<svg width="12" height="6" viewBox="0 0 12 6" fill="none" xmlns="http://www.w3.org/2000/svg">
<path fill-rule="evenodd" clip-rule="evenodd" d="M10.9942 0.505006C11.2676 0.778373 11.2676 1.22159 10.9942 1.49496L10.5608 1.06153C10.9942 1.49496 10.9942 1.49491 10.9942 1.49496L10.9481 1.54091L10.8191 1.66903C10.708 1.77922 10.5488 1.93644 10.3563 2.12503C9.97149 2.50194 9.45229 3.00543 8.91647 3.50972C8.38245 4.01233 7.82445 4.52282 7.36418 4.91042C7.13554 5.10295 6.91923 5.27519 6.73588 5.40274C6.64521 5.46581 6.54844 5.52794 6.4532 5.57709C6.38798 5.61076 6.21242 5.69998 5.99922 5.69998C5.78602 5.69998 5.61046 5.61076 5.54523 5.57709C5.45 5.52794 5.35323 5.46581 5.26256 5.40274C5.07921 5.27519 4.8629 5.10295 4.63426 4.91042C4.17399 4.52282 3.61598 4.01233 3.08196 3.50972C2.54615 3.00543 2.02694 2.50194 1.64219 2.12503C1.44966 1.93644 1.29047 1.77922 1.1793 1.66903L1.05032 1.5409L1.00509 1.49581L1.00432 1.49503C1.00427 1.49499 1.00424 1.49496 1.49922 0.999981L1.99421 0.505021L2.03821 0.5489L2.16484 0.674686C2.27437 0.783245 2.43159 0.938524 2.62188 1.12493C3.00274 1.49802 3.51479 1.99454 4.04147 2.49024C4.56995 2.98763 5.1057 3.47714 5.53605 3.83954C5.71989 3.99435 5.87604 4.11878 5.99922 4.20864C6.1224 4.11878 6.27855 3.99435 6.46239 3.83954C6.89274 3.47714 7.42848 2.98763 7.95696 2.49024C8.48365 1.99454 8.99569 1.49802 9.37656 1.12493C9.56685 0.938524 9.72407 0.783246 9.8336 0.674686L9.96023 0.5489L10.0036 0.505613C10.277 0.232246 10.7208 0.231639 10.9942 0.505006ZM5.8111 4.33303C5.79309 4.34022 5.7922 4.34278 5.8111 4.33303C5.81134 4.3329 5.81086 4.33315 5.8111 4.33303ZM1.00424 0.505006C1.27761 0.231639 1.72084 0.231654 1.99421 0.505021L1.49922 0.999981L1.00432 1.49503C0.730953 1.22166 0.730877 0.778373 1.00424 0.505006Z" fill="#CDCDCD"/>
</svg>
