<svg width="12" height="7" viewBox="0 0 12 7" fill="none" xmlns="http://www.w3.org/2000/svg">
<path fill-rule="evenodd" clip-rule="evenodd" d="M10.9952 0.969484C11.2685 1.24285 11.2685 1.68607 10.9952 1.95943L10.5617 1.526C10.9952 1.95944 10.9952 1.95939 10.9952 1.95943L10.9491 2.00538L10.8201 2.1335C10.7089 2.24369 10.5498 2.40092 10.3572 2.58951C9.97247 2.96641 9.45326 3.4699 8.91745 3.9742C8.38343 4.47681 7.82542 4.9873 7.36515 5.3749C7.13652 5.56743 6.9202 5.73967 6.73685 5.86722C6.64619 5.93029 6.54942 5.99242 6.45418 6.04157C6.38896 6.07524 6.2134 6.16446 6.0002 6.16446C5.78699 6.16446 5.61144 6.07524 5.54621 6.04157C5.45097 5.99242 5.3542 5.93029 5.26354 5.86722C5.08019 5.73967 4.86387 5.56743 4.63524 5.3749C4.17497 4.9873 3.61696 4.47681 3.08294 3.9742C2.54713 3.4699 2.02792 2.96641 1.64316 2.58951C1.45064 2.40092 1.29145 2.24369 1.18028 2.1335L1.05129 2.00538L1.00607 1.96028L1.0053 1.95951C1.00525 1.95946 1.00522 1.95943 1.5002 1.46446L1.99519 0.969499L2.03918 1.01338L2.16582 1.13916C2.27535 1.24772 2.43256 1.403 2.62285 1.58941C3.00372 1.9625 3.51576 2.45901 4.04245 2.95472C4.57093 3.45211 5.10667 3.94162 5.53703 4.30402C5.72086 4.45883 5.87702 4.58326 6.0002 4.67312C6.12338 4.58326 6.27953 4.45883 6.46336 4.30402C6.89372 3.94162 7.42946 3.45211 7.95794 2.95472C8.48463 2.45901 8.99667 1.9625 9.37754 1.58941C9.56783 1.403 9.72504 1.24772 9.83457 1.13916L9.96121 1.01338L10.0046 0.970091C10.278 0.696724 10.7218 0.696117 10.9952 0.969484ZM5.81208 4.7975C5.79407 4.8047 5.79318 4.80726 5.81208 4.7975C5.81232 4.79738 5.81183 4.79763 5.81208 4.7975ZM1.00522 0.969483C1.27859 0.696116 1.72182 0.696132 1.99519 0.969499L1.5002 1.46446L1.0053 1.95951C0.73193 1.68614 0.731854 1.24285 1.00522 0.969483Z" fill="#222628"/>
</svg>
