<svg width="16" height="16" viewBox="0 0 16 16" fill="none" xmlns="http://www.w3.org/2000/svg">
<path d="M14.6667 3.23332V11.16C14.6667 11.8067 14.14 12.4 13.4933 12.48L13.2867 12.5067C12.1933 12.6533 10.6533 13.1067 9.41333 13.6267C8.98 13.8067 8.5 13.48 8.5 13.0067V3.73332C8.5 3.48665 8.64 3.25998 8.86 3.13998C10.08 2.47998 11.9267 1.89332 13.18 1.78665H13.22C14.02 1.78665 14.6667 2.43332 14.6667 3.23332Z" fill="#CDCDCD"/>
<path d="M7.13951 3.13998C5.91951 2.47998 4.07284 1.89332 2.81951 1.78665H2.77284C1.97284 1.78665 1.32617 2.43332 1.32617 3.23332V11.16C1.32617 11.8067 1.85284 12.4 2.49951 12.48L2.70617 12.5067C3.79951 12.6533 5.33951 13.1067 6.57951 13.6267C7.01284 13.8067 7.49284 13.48 7.49284 13.0067V3.73332C7.49284 3.47998 7.35951 3.25998 7.13951 3.13998ZM3.33284 5.15998H4.83284C5.10617 5.15998 5.33284 5.38665 5.33284 5.65998C5.33284 5.93998 5.10617 6.15998 4.83284 6.15998H3.33284C3.05951 6.15998 2.83284 5.93998 2.83284 5.65998C2.83284 5.38665 3.05951 5.15998 3.33284 5.15998ZM5.33284 8.15998H3.33284C3.05951 8.15998 2.83284 7.93998 2.83284 7.65998C2.83284 7.38665 3.05951 7.15998 3.33284 7.15998H5.33284C5.60617 7.15998 5.83284 7.38665 5.83284 7.65998C5.83284 7.93998 5.60617 8.15998 5.33284 8.15998Z" fill="#CDCDCD"/>
</svg>
