<svg width="16" height="16" viewBox="0 0 16 16" fill="none" xmlns="http://www.w3.org/2000/svg">
<path d="M11.1797 13.8562L8.31967 11.6629C8.04784 11.4562 7.67151 11.4562 7.39967 11.6629L4.51301 13.8562C4.3025 14.0254 4.01552 14.0639 3.76786 13.9562C3.5202 13.8484 3.35272 13.6122 3.33301 13.3429V3.96954C3.35886 3.41999 3.60278 2.90342 4.01071 2.53427C4.41865 2.16513 4.95694 1.97387 5.50634 2.00288H10.173C10.7257 1.97762 11.2655 2.17504 11.6715 2.55095C12.0774 2.92686 12.3157 3.44986 12.333 4.00288V13.3429C12.3071 13.6026 12.1438 13.8284 11.9054 13.9345C11.667 14.0406 11.39 14.0107 11.1797 13.8562Z" fill="#CDCDCD"/>
</svg>
