<svg width="16" height="16" viewBox="0 0 16 16" fill="none" xmlns="http://www.w3.org/2000/svg">
<path d="M9.56618 1.33331H6.43285C5.73952 1.33331 5.17285 1.89331 5.17285 2.58665V3.21331C5.17285 3.90665 5.73285 4.46665 6.42618 4.46665H9.56618C10.2595 4.46665 10.8195 3.90665 10.8195 3.21331V2.58665C10.8262 1.89331 10.2595 1.33331 9.56618 1.33331Z" fill="#CDCDCD"/>
<path d="M11.4934 3.21332C11.4934 4.27332 10.6267 5.13999 9.56669 5.13999H6.43336C5.37336 5.13999 4.50669 4.27332 4.50669 3.21332C4.50669 2.83999 4.10669 2.60665 3.77336 2.77999C2.83336 3.27999 2.19336 4.27332 2.19336 5.41332V11.6867C2.19336 13.3267 3.53336 14.6667 5.17336 14.6667H10.8267C12.4667 14.6667 13.8067 13.3267 13.8067 11.6867V5.41332C13.8067 4.27332 13.1667 3.27999 12.2267 2.77999C11.8934 2.60665 11.4934 2.83999 11.4934 3.21332ZM8.25336 11.3H5.33336C5.06003 11.3 4.83336 11.0733 4.83336 10.8C4.83336 10.5267 5.06003 10.3 5.33336 10.3H8.25336C8.52669 10.3 8.75336 10.5267 8.75336 10.8C8.75336 11.0733 8.52669 11.3 8.25336 11.3ZM10 8.63332H5.33336C5.06003 8.63332 4.83336 8.40665 4.83336 8.13332C4.83336 7.85999 5.06003 7.63332 5.33336 7.63332H10C10.2734 7.63332 10.5 7.85999 10.5 8.13332C10.5 8.40665 10.2734 8.63332 10 8.63332Z" fill="#CDCDCD"/>
</svg>
