<svg width="40" height="40" viewBox="0 0 40 40" fill="none" xmlns="http://www.w3.org/2000/svg">
<path d="M19.9997 3.33333C10.783 3.33333 3.33301 10.7833 3.33301 20C3.33301 29.2167 10.783 36.6667 19.9997 36.6667C29.2163 36.6667 36.6663 29.2167 36.6663 20C36.6663 10.7833 29.2163 3.33333 19.9997 3.33333ZM27.158 24.8083C27.8069 25.4573 27.8069 26.5094 27.158 27.1583C26.5091 27.8073 25.4569 27.8073 24.808 27.1583L19.9997 22.35L15.1913 27.1583C14.5424 27.8073 13.4903 27.8073 12.8413 27.1583C12.1924 26.5094 12.1924 25.4573 12.8413 24.8083L17.6497 20L12.8413 15.1917C12.1924 14.5427 12.1924 13.4906 12.8413 12.8417C13.4903 12.1927 14.5424 12.1927 15.1913 12.8417L19.9997 17.65L24.808 12.8417C25.4569 12.1927 26.5091 12.1927 27.158 12.8417C27.8069 13.4906 27.8069 14.5427 27.158 15.1917L22.3497 20L27.158 24.8083Z" fill="#CDCDCD"/>
</svg>
