<svg width="24" height="24" viewBox="0 0 24 24" fill="none" xmlns="http://www.w3.org/2000/svg">
<path fill-rule="evenodd" clip-rule="evenodd" d="M12 3.75C9.81196 3.75 7.71354 4.61919 6.16637 6.16637C4.61919 7.71354 3.75 9.81196 3.75 12C3.75 13.0834 3.96339 14.1562 4.37799 15.1571C4.79259 16.1581 5.40029 17.0675 6.16637 17.8336C6.93245 18.5997 7.84193 19.2074 8.84286 19.622C9.8438 20.0366 10.9166 20.25 12 20.25C13.0834 20.25 14.1562 20.0366 15.1571 19.622C16.1581 19.2074 17.0675 18.5997 17.8336 17.8336C18.5997 17.0675 19.2074 16.1581 19.622 15.1571C20.0366 14.1562 20.25 13.0834 20.25 12C20.25 9.81196 19.3808 7.71354 17.8336 6.16637C16.2865 4.61919 14.188 3.75 12 3.75ZM5.10571 5.10571C6.93419 3.27723 9.41414 2.25 12 2.25C14.5859 2.25 17.0658 3.27723 18.8943 5.10571C20.7228 6.93419 21.75 9.41414 21.75 12C21.75 13.2804 21.4978 14.5482 21.0078 15.7312C20.5178 16.9141 19.7997 17.9889 18.8943 18.8943C17.9889 19.7997 16.9141 20.5178 15.7312 21.0078C14.5482 21.4978 13.2804 21.75 12 21.75C10.7196 21.75 9.45176 21.4978 8.26884 21.0078C7.08591 20.5178 6.01108 19.7997 5.10571 18.8943C4.20034 17.9889 3.48216 16.9141 2.99217 15.7312C2.50219 14.5482 2.25 13.2804 2.25 12C2.25 9.41414 3.27723 6.93419 5.10571 5.10571ZM12 6.25C12.4142 6.25 12.75 6.58579 12.75 7V7.30399C13.727 7.44632 14.6075 7.86561 15.1654 8.5084C15.3911 8.76845 15.4107 9.14877 15.213 9.43067C15.0153 9.71257 14.651 9.82362 14.3297 9.69997L12.75 9.09217V11.3037C13.4203 11.4011 14.0372 11.6281 14.5374 11.9616C15.2144 12.4129 15.75 13.1188 15.75 14C15.75 14.8812 15.2144 15.5871 14.5374 16.0384C14.0372 16.3719 13.4203 16.5989 12.75 16.6963V17C12.75 17.4142 12.4142 17.75 12 17.75C11.5858 17.75 11.25 17.4142 11.25 17V16.696C10.273 16.5537 9.39245 16.1344 8.83458 15.4916C8.60888 15.2315 8.58925 14.8512 8.78697 14.5693C8.98469 14.2874 9.34896 14.1764 9.67032 14.3L11.25 14.9078V12.6963C10.5797 12.5989 9.96284 12.3719 9.46263 12.0384C8.78555 11.5871 8.25 10.8812 8.25 10C8.25 9.11879 8.78555 8.4129 9.46263 7.96156C9.96284 7.62813 10.5797 7.40113 11.25 7.30373V7C11.25 6.58579 11.5858 6.25 12 6.25ZM11.25 8.82634C10.8711 8.90612 10.5449 9.04285 10.2946 9.20968C9.88595 9.4821 9.75 9.77621 9.75 10C9.75 10.2238 9.88595 10.5179 10.2946 10.7903C10.5449 10.9571 10.8711 11.0939 11.25 11.1737V8.82634ZM12.75 12.8263V15.1737C13.1289 15.0939 13.4551 14.9571 13.7054 14.7903C14.114 14.5179 14.25 14.2238 14.25 14C14.25 13.7762 14.114 13.4821 13.7054 13.2097C13.4551 13.0428 13.1289 12.9061 12.75 12.8263Z" fill="white"/>
</svg>
