<svg width="24" height="25" viewBox="0 0 24 25" fill="none" xmlns="http://www.w3.org/2000/svg">
<path d="M16.0005 23.1839H8.00049C4.35049 23.1839 2.25049 21.0818 2.25049 17.4283V7.41855C2.25049 3.76501 4.35049 1.66296 8.00049 1.66296H16.0005C19.6505 1.66296 21.7505 3.76501 21.7505 7.41855V17.4283C21.7505 21.0818 19.6505 23.1839 16.0005 23.1839ZM8.00049 3.16442C5.14049 3.16442 3.75049 4.55577 3.75049 7.41855V17.4283C3.75049 20.2911 5.14049 21.6824 8.00049 21.6824H16.0005C18.8605 21.6824 20.2505 20.2911 20.2505 17.4283V7.41855C20.2505 4.55577 18.8605 3.16442 16.0005 3.16442H8.00049Z" fill="white"/>
<path d="M8.99951 11.5325C8.82951 11.5325 8.65951 11.5025 8.49951 11.4325C8.03951 11.2323 7.74951 10.7818 7.74951 10.2913V2.41369C7.74951 2.00329 8.08951 1.66296 8.49951 1.66296H15.4995C15.9095 1.66296 16.2495 2.00329 16.2495 2.41369V10.2813C16.2495 10.7818 15.9595 11.2323 15.4995 11.4224C15.0495 11.6226 14.5195 11.5326 14.1495 11.1922L11.9995 9.22029L9.84949 11.2023C9.60949 11.4225 9.30951 11.5325 8.99951 11.5325ZM11.9995 7.62878C12.2995 7.62878 12.6095 7.73884 12.8495 7.95906L14.7495 9.71076V3.16442H9.24951V9.71076L11.1495 7.95906C11.3895 7.73884 11.6995 7.62878 11.9995 7.62878Z" fill="white"/>
<path d="M17.499 15.1761H13.249C12.839 15.1761 12.499 14.8357 12.499 14.4254C12.499 14.015 12.839 13.6746 13.249 13.6746H17.499C17.909 13.6746 18.249 14.015 18.249 14.4254C18.249 14.8357 17.909 15.1761 17.499 15.1761Z" fill="white"/>
<path d="M17.4995 19.1799H8.99951C8.58951 19.1799 8.24951 18.8396 8.24951 18.4292C8.24951 18.0188 8.58951 17.6785 8.99951 17.6785H17.4995C17.9095 17.6785 18.2495 18.0188 18.2495 18.4292C18.2495 18.8396 17.9095 19.1799 17.4995 19.1799Z" fill="white"/>
</svg>
