<svg width="16" height="16" viewBox="0 0 16 16" fill="none" xmlns="http://www.w3.org/2000/svg">
<path d="M14.1796 6.11997C13.9863 5.81331 13.7796 5.52664 13.5663 5.25997C13.3196 4.94664 12.853 4.91997 12.573 5.19997L10.573 7.19997C10.7196 7.63997 10.7463 8.14664 10.613 8.67331C10.3796 9.61331 9.61964 10.3733 8.67964 10.6066C8.15297 10.74 7.64631 10.7133 7.20631 10.5666C7.20631 10.5666 6.25297 11.52 5.56631 12.2066C5.23297 12.54 5.33964 13.1266 5.78631 13.3C6.49964 13.5733 7.23964 13.7133 7.99964 13.7133C9.18631 13.7133 10.3396 13.3666 11.393 12.72C12.4663 12.0533 13.433 11.0733 14.213 9.82664C14.8463 8.81997 14.813 7.12664 14.1796 6.11997Z" fill="#CDCDCD"/>
<path d="M9.34708 6.65332L6.65375 9.34666C6.31375 8.99999 6.09375 8.51999 6.09375 7.99999C6.09375 6.95332 6.94708 6.09332 8.00042 6.09332C8.52042 6.09332 9.00042 6.31332 9.34708 6.65332Z" fill="#CDCDCD"/>
<path d="M12.1663 3.83335L9.90634 6.09335C9.41967 5.60002 8.74634 5.30668 7.99967 5.30668C6.50634 5.30668 5.30634 6.51335 5.30634 8.00001C5.30634 8.74668 5.60634 9.42001 6.09301 9.90668L3.83967 12.1667H3.83301C3.09301 11.5667 2.41301 10.8 1.83301 9.89335C1.16634 8.84668 1.16634 7.14668 1.83301 6.10001C2.60634 4.88668 3.55301 3.93335 4.60634 3.28002C5.65967 2.64002 6.81301 2.28668 7.99967 2.28668C9.48634 2.28668 10.9263 2.83335 12.1663 3.83335Z" fill="#CDCDCD"/>
<path d="M9.90672 7.99999C9.90672 9.04666 9.05339 9.90666 8.00005 9.90666C7.96005 9.90666 7.92672 9.90666 7.88672 9.89332L9.89338 7.88666C9.90672 7.92666 9.90672 7.95999 9.90672 7.99999Z" fill="#CDCDCD"/>
<path d="M14.5136 1.48667C14.3136 1.28667 13.9869 1.28667 13.7869 1.48667L1.48691 13.7933C1.28691 13.9933 1.28691 14.32 1.48691 14.52C1.58691 14.6133 1.71358 14.6667 1.84691 14.6667C1.98025 14.6667 2.10691 14.6133 2.20691 14.5133L14.5136 2.20667C14.7202 2.00667 14.7202 1.68667 14.5136 1.48667Z" fill="#CDCDCD"/>
</svg>
