<svg width="16" height="16" viewBox="0 0 16 16" fill="none" xmlns="http://www.w3.org/2000/svg">
<path d="M14.1673 6.10001C12.6273 3.68001 10.374 2.28668 8.00065 2.28668C6.81398 2.28668 5.66065 2.63335 4.60732 3.28002C3.55398 3.93335 2.60732 4.88668 1.83398 6.10001C1.16732 7.14668 1.16732 8.84668 1.83398 9.89335C3.37398 12.32 5.62732 13.7067 8.00065 13.7067C9.18732 13.7067 10.3407 13.36 11.394 12.7133C12.4473 12.06 13.394 11.1067 14.1673 9.89335C14.834 8.85335 14.834 7.14668 14.1673 6.10001ZM8.00065 10.6933C6.50732 10.6933 5.30732 9.48668 5.30732 8.00001C5.30732 6.51335 6.50732 5.30668 8.00065 5.30668C9.49398 5.30668 10.694 6.51335 10.694 8.00001C10.694 9.48668 9.49398 10.6933 8.00065 10.6933Z" fill="#CDCDCD"/>
<path d="M7.99961 6.09332C6.95294 6.09332 6.09961 6.94666 6.09961 7.99999C6.09961 9.04666 6.95294 9.89999 7.99961 9.89999C9.04628 9.89999 9.90628 9.04666 9.90628 7.99999C9.90628 6.95332 9.04628 6.09332 7.99961 6.09332Z" fill="#CDCDCD"/>
</svg>
