<svg width="24" height="24" viewBox="0 0 24 24" fill="none" xmlns="http://www.w3.org/2000/svg">
<path fill-rule="evenodd" clip-rule="evenodd" d="M1.125 4.5C0.503679 4.5 0 5.00368 0 5.625C0 6.24632 0.503679 6.75 1.125 6.75H22.875C23.4963 6.75 24 6.24632 24 5.625C24 5.00368 23.4963 4.5 22.875 4.5H1.125ZM4.5 11.625C4.5 11.0037 5.00368 10.5 5.625 10.5H18.375C18.9963 10.5 19.5 11.0037 19.5 11.625C19.5 12.2463 18.9963 12.75 18.375 12.75H5.625C5.00368 12.75 4.5 12.2463 4.5 11.625ZM9 17.625C9 17.0037 9.50368 16.5 10.125 16.5H13.875C14.4963 16.5 15 17.0037 15 17.625C15 18.2463 14.4963 18.75 13.875 18.75H10.125C9.50368 18.75 9 18.2463 9 17.625Z" fill="white"/>
</svg>
