<svg width="16" height="16" viewBox="0 0 16 16" fill="none" xmlns="http://www.w3.org/2000/svg">
<path d="M0.432587 15.5947C0.702933 15.865 1.05416 16 1.37862 16C1.70289 16 2.08128 15.8648 2.32447 15.5947L8.00012 9.91903L13.6758 15.5947C13.9461 15.865 14.2973 16 14.6218 16C14.9461 16 15.3245 15.8648 15.5676 15.5947C16.1081 15.0542 16.1081 14.2164 15.5676 13.6757L9.892 8.00002L15.5676 2.32437C16.1081 1.78388 16.1081 0.94605 15.5676 0.405367C15.0272 -0.135122 14.1893 -0.135122 13.6486 0.405367L7.97299 6.08102L2.32437 0.459421C1.78388 -0.0810685 0.94605 -0.0810685 0.405367 0.459421C-0.135122 0.999911 -0.135122 1.83774 0.405367 2.37843L6.08101 8.05408L0.432394 13.7027C-0.108096 14.2161 -0.108096 15.081 0.432394 15.5945L0.432587 15.5947Z" fill="white"/>
</svg>
