<svg width="165" height="72" viewBox="0 0 165 72" fill="none" xmlns="http://www.w3.org/2000/svg">
<g clip-path="url(#clip0_313_1306)">
<path d="M13.2188 72C13.2188 72 14.4308 58.9757 14.4308 53.7224L13.1093 59.7412L9.78363 40.5566C9.78363 40.5566 11.8973 65.7599 13.2188 72Z" fill="#B2B2B2"/>
<path d="M29.296 14.8673C29.296 14.8673 25.3315 18.4771 20.7062 23.9517H4.51575C4.51575 23.9517 18.8334 17.8241 29.296 14.8673Z" fill="url(#paint0_linear_313_1306)"/>
<path d="M16.9059 37.4149L20.7062 23.9517H4.51575L16.9059 37.4149Z" fill="url(#paint1_linear_313_1306)"/>
<path d="M8.20291 31.3199L13.3284 41.645L14.4308 53.766L13.1093 59.5961C13.1093 59.5961 10.1852 43.7964 8.20291 31.3199Z" fill="url(#paint2_linear_313_1306)"/>
<path d="M8.20291 31.3199L15.6392 39.7114L14.4308 53.766L13.3284 41.7938L8.20291 31.3199Z" fill="url(#paint3_linear_313_1306)"/>
<path d="M30.8878 20.7844C30.8878 20.7844 16.822 32.1 18.0121 52.8118C18.0121 52.8118 13.6934 31.8061 30.8878 20.7844Z" fill="white"/>
<path d="M10.7912 57.4701L6.5492 35.503L16.906 42.3017L5.13641 33.1376C5.13641 33.1376 9.84934 53.9075 10.7912 57.4701Z" fill="white"/>
<path d="M8.80526 28.6099L0 24.7788C0 24.7788 29.9934 10.8004 39.4448 7.54614C39.4448 7.54614 25.1563 22.0434 19.9834 26.5166L20.2682 25.5044L34.9801 10.6517L1.71213 24.7026L8.20291 27.9533L8.80526 28.6099Z" fill="white"/>
<path d="M15.4384 10.024C15.4384 11.5151 14.2227 12.7232 12.7223 12.7232C11.2219 12.7232 10.0063 11.5151 10.0063 10.024C10.0063 8.53294 11.2219 7.32484 12.7223 7.32484C14.2227 7.32121 15.4384 8.53294 15.4384 10.024Z" fill="#B2B2B2"/>
<path d="M41.5293 0L40.7115 1.6362L38.627 1.92281L40.0763 3.47556L39.4448 5.47455L41.5293 4.58571L43.7634 5.47455L43.0187 3.1817L44.5812 1.7015L42.4237 1.62894L41.5293 0Z" fill="url(#paint4_linear_313_1306)"/>
<path d="M32.4904 61.4535C32.0012 61.5515 31.5376 61.5986 31.0959 61.5986C30.154 61.5986 29.4093 61.3519 28.8653 60.8585C28.3214 60.3651 28.0476 59.6504 28.0476 58.7181V52.8916H27.0181V50.4754H28.0476V48.2079L31.063 47.047V50.479H32.3407V52.8952H31.063V57.9707C31.063 58.5693 31.3076 58.8668 31.7968 58.8668C31.9829 58.8668 32.2166 58.8233 32.494 58.7398V61.4535H32.4904Z" fill="white"/>
<path d="M41.2445 61.5261H38.2729V60.8296C38.1598 61.0436 37.9006 61.225 37.4954 61.3738C37.0902 61.5225 36.6484 61.5915 36.1702 61.5806C35.3525 61.5697 34.6552 61.2686 34.0748 60.6845C33.3994 60.006 33.0635 59.1136 33.0635 58.0034V50.4755H36.0607V57.5753C36.0607 57.9708 36.1702 58.2937 36.3929 58.5367C36.6156 58.7798 36.8711 58.9032 37.1595 58.9032C37.7655 58.9032 38.1342 58.4678 38.2583 57.5935V50.4755H41.2482V61.5261H41.2445Z" fill="white"/>
<path d="M50.1666 61.9361C50.1666 63.1623 49.6847 64.0984 48.7173 64.7441C47.8886 65.3065 46.8409 65.5858 45.5778 65.5858C44.2891 65.5858 43.2086 65.3246 42.3324 64.7985V61.8635C43.183 62.6363 44.2125 63.0245 45.4245 63.0245C46.5927 63.0245 47.1768 62.6073 47.1768 61.7692V60.8622C47.0745 61.0509 46.8519 61.2105 46.5087 61.3411C46.1656 61.4717 45.7786 61.537 45.3478 61.537C44.4461 61.537 43.6904 61.2504 43.0844 60.6772C42.3397 59.9625 41.971 58.885 41.971 57.4375V50.4646H45.001V57.5463C45.001 57.9309 45.1105 58.2465 45.3332 58.4968C45.5559 58.7471 45.8114 58.8705 46.0998 58.8705C46.6949 58.8705 47.0563 58.4351 47.1804 57.5608V50.4609H50.1703V61.9361H50.1666Z" fill="white"/>
<path d="M59.4866 56.8062H53.9267C53.9267 57.4955 54.1604 58.0251 54.624 58.3988C55.0402 58.7217 55.5841 58.885 56.2595 58.885C57.3766 58.885 58.3148 58.5294 59.0704 57.8147V60.9057C58.0811 61.4064 57.0298 61.6567 55.9127 61.6567C54.4597 61.6567 53.2842 61.2141 52.3862 60.3289C51.3312 59.2659 50.8201 57.6841 50.8529 55.5727C50.8858 53.8458 51.4078 52.4962 52.419 51.5203C53.2587 50.733 54.2188 50.3339 55.2957 50.323C56.7268 50.3122 57.8073 50.8527 58.5411 51.952C59.1946 52.9279 59.5195 54.2485 59.5195 55.9137C59.5231 56.2075 59.5122 56.5087 59.4866 56.8062ZM56.6428 54.575C56.6099 54.1432 56.4566 53.7913 56.1901 53.5265C55.9236 53.2617 55.6097 53.1238 55.2446 53.1093C54.8978 53.1093 54.5911 53.2435 54.3247 53.5156C54.0582 53.7877 53.9048 54.1396 53.8647 54.5713H56.6428V54.575Z" fill="white"/>
<path d="M68.1787 61.5261H65.1815V54.3174C65.1815 53.9401 65.072 53.639 64.8566 53.4213C64.6413 53.2 64.3894 53.0911 64.101 53.0911C63.4877 53.0911 63.1153 53.5011 62.9839 54.3174V61.5261H60.0378V50.4754H62.9839V51.1901C63.0897 50.9906 63.338 50.8164 63.7213 50.6713C64.1046 50.5298 64.5281 50.4609 64.9954 50.4754C65.8752 50.5117 66.5907 50.7693 67.1419 51.2445C67.8355 51.8649 68.1787 52.8191 68.1787 54.107V61.5261Z" fill="white"/>
<path d="M77.6483 61.5262H74.7206L74.6877 60.9239C74.2898 61.3629 73.7203 61.5842 72.9756 61.5842C71.9206 61.5842 70.986 61.0654 70.1756 60.0278C69.325 58.9431 68.8942 57.608 68.8796 56.0226C68.8686 54.3755 69.241 53.0295 69.993 51.9883C70.7487 50.9435 71.6942 50.4247 72.8369 50.4247C72.9792 50.4247 73.1106 50.4319 73.2384 50.4428C73.7714 50.5045 74.2533 50.6823 74.6841 50.9834V46.8729H77.6483V61.5262ZM74.6841 56.8788V55.1047C74.5198 54.0127 74.0671 53.4685 73.3224 53.4685C72.3696 53.4685 71.8986 54.3211 71.9096 56.0226C71.9096 57.7313 72.3805 58.5766 73.3224 58.5658C74.0671 58.5512 74.5198 57.9889 74.6841 56.8788Z" fill="white"/>
<path d="M86.5595 61.5261H83.5879V60.8296C83.4747 61.0436 83.2155 61.225 82.8103 61.3738C82.4051 61.5225 81.9634 61.5915 81.4851 61.5806C80.6674 61.5697 79.9701 61.2686 79.3897 60.6845C78.7143 60.006 78.3748 59.1136 78.3748 58.0034V50.4755H81.372V57.5753C81.372 57.9708 81.4815 58.2937 81.7042 58.5367C81.9268 58.7798 82.1787 58.9032 82.4708 58.9032C83.0768 58.9032 83.4455 58.4678 83.5696 57.5935V50.4755H86.5595V61.5261Z" fill="white"/>
<path d="M95.4231 61.5261H92.426V54.3174C92.426 53.9401 92.3164 53.639 92.1011 53.4213C91.8857 53.2 91.6338 53.0911 91.3417 53.0911C90.7284 53.0911 90.3561 53.5011 90.2247 54.3174V61.5261H87.2786V50.4754H90.2247V51.1901C90.3342 50.9906 90.5788 50.8164 90.9621 50.6713C91.3454 50.5298 91.7689 50.4609 92.2361 50.4754C93.1159 50.5117 93.8314 50.7693 94.3827 51.2445C95.0763 51.8649 95.4195 52.8191 95.4195 54.107V61.5261H95.4231Z" fill="white"/>
<path d="M104.907 61.04C104.907 62.5782 104.385 63.7754 103.341 64.6352C102.432 65.3862 101.323 65.7599 100.012 65.7599C98.8474 65.7599 97.8654 65.4733 97.0659 64.9001V61.6712C97.3762 62.1102 97.7887 62.4585 98.2998 62.7161C98.8109 62.9736 99.3293 63.1006 99.8513 63.1006C100.457 63.1006 100.947 62.9374 101.315 62.6145C101.735 62.2481 101.939 61.7438 101.929 61.0944V60.8658C101.312 61.3411 100.673 61.5805 100.012 61.5805C98.7671 61.5805 97.7814 60.9565 97.0477 59.7049C96.4161 58.631 96.1094 57.3903 96.1204 55.9826C96.1314 54.3283 96.4891 52.9859 97.1937 51.9484C97.8982 50.9108 98.8073 50.392 99.9243 50.392C100.07 50.392 100.224 50.3992 100.377 50.421C101.096 50.5189 101.615 50.7475 101.925 51.1067V50.4754H104.904V61.04H104.907ZM101.929 56.8787V55.1047C101.764 53.9873 101.312 53.4286 100.567 53.4286C99.6359 53.4177 99.165 54.2593 99.1541 55.9645C99.1431 57.6478 99.614 58.4895 100.567 58.4895C101.312 58.4895 101.764 57.9526 101.929 56.8787Z" fill="white"/>
<path d="M111.362 49.1222C111.095 49.0352 110.862 48.9953 110.664 48.9953C110.142 48.9953 109.88 49.2891 109.88 49.8732V50.4755H110.96V52.8372H109.88V61.5298H106.893V52.8372H105.641V50.4755H106.893V49.1404C106.893 48.2189 107.178 47.5151 107.755 47.0289C108.288 46.5537 109.033 46.3142 109.985 46.3142C110.416 46.3142 110.876 46.3614 111.365 46.4593V49.1222H111.362Z" fill="#E54100"/>
<path d="M115.158 48.2443C115.158 48.8066 115.012 49.2673 114.724 49.6301C114.436 49.9929 114.041 50.1743 113.541 50.1743C113.023 50.1743 112.621 49.9929 112.333 49.6301C112.044 49.2673 111.898 48.8066 111.898 48.2443C111.898 47.6964 112.044 47.2393 112.333 46.8765C112.621 46.5137 113.023 46.3251 113.541 46.3142C114.041 46.3142 114.436 46.4992 114.724 46.8693C115.016 47.2357 115.158 47.6928 115.158 48.2443ZM115.023 61.5261H112.033V50.4755H115.023V61.5261Z" fill="#E54100"/>
<path d="M121.324 61.4535C120.835 61.5515 120.371 61.5986 119.93 61.5986C118.988 61.5986 118.243 61.3519 117.699 60.8585C117.155 60.3651 116.881 59.6504 116.881 58.7181V52.8916H115.852V50.4754H116.881V48.2079L119.897 47.047V50.479H121.174V52.8952H119.897V57.9707C119.897 58.5693 120.141 58.8668 120.627 58.8668C120.813 58.8668 121.047 58.8233 121.324 58.7398V61.4535Z" fill="#E54100"/>
<path d="M130.035 61.5261H127.037V54.3174C127.037 53.9401 126.928 53.639 126.712 53.4213C126.497 53.2 126.245 53.0911 125.957 53.0911C125.343 53.0911 124.971 53.5011 124.84 54.3174V61.5261H121.894V50.4754H124.84V51.1901C124.946 50.9906 125.194 50.8164 125.577 50.6713C125.96 50.5298 126.384 50.4609 126.848 50.4754C127.727 50.5117 128.443 50.7693 128.994 51.2445C129.688 51.8649 130.035 52.8191 130.035 54.107V61.5261Z" fill="#E54100"/>
<path d="M139.365 56.8062H133.806C133.806 57.4955 134.039 58.0251 134.503 58.3988C134.915 58.7217 135.463 58.885 136.138 58.885C137.255 58.885 138.194 58.5294 138.949 57.8147V60.9057C137.96 61.4064 136.909 61.6567 135.792 61.6567C134.339 61.6567 133.163 61.2141 132.265 60.3289C131.21 59.2659 130.699 57.6841 130.732 55.5727C130.765 53.8458 131.287 52.4962 132.298 51.5203C133.138 50.733 134.098 50.3339 135.175 50.323C136.606 50.3122 137.686 50.8527 138.416 51.952C139.07 52.9279 139.395 54.2485 139.395 55.9137C139.398 56.2075 139.387 56.5087 139.365 56.8062ZM136.518 54.575C136.485 54.1432 136.335 53.7913 136.065 53.5265C135.799 53.2617 135.485 53.1238 135.12 53.1093C134.773 53.1093 134.466 53.2435 134.2 53.5156C133.933 53.7877 133.78 54.1396 133.74 54.5713H136.518V54.575Z" fill="#E54100"/>
<path d="M145.878 53.4866C145.02 53.0404 144.349 52.8553 143.859 52.9279C143.315 53.015 143.042 53.2834 143.042 53.7333C143.042 53.9945 143.18 54.2448 143.458 54.4843C143.837 54.7963 144.221 55.1083 144.608 55.4167C145.038 55.8085 145.371 56.1749 145.604 56.5232C145.882 56.9767 146.021 57.4918 146.021 58.0796C146.021 58.9829 145.718 59.7811 145.108 60.4776C144.422 61.2758 143.494 61.6749 142.322 61.6749C141.614 61.6749 140.811 61.5261 139.913 61.225V58.2719C140.136 58.4968 140.45 58.6927 140.855 58.8632C141.26 59.0301 141.643 59.1135 142.008 59.1135C142.308 59.1135 142.549 59.0446 142.724 58.9031C142.969 58.7326 143.089 58.504 143.089 58.2174C143.089 57.9127 142.954 57.6297 142.687 57.3649C142.29 57.0783 141.72 56.6248 140.975 56.0008C140.311 55.384 139.979 54.5968 139.979 53.639C139.979 53.0912 140.099 52.5651 140.344 52.0645C140.906 50.9471 141.925 50.3412 143.399 50.2432C144.188 50.1961 145.009 50.3013 145.867 50.5625V53.4866H145.878Z" fill="#E54100"/>
<path d="M152.584 53.4866C151.726 53.0404 151.055 52.8553 150.566 52.9279C150.022 53.015 149.748 53.2834 149.748 53.7333C149.748 53.9945 149.887 54.2448 150.164 54.4843C150.544 54.7963 150.927 55.1083 151.314 55.4167C151.745 55.8085 152.077 56.1749 152.311 56.5232C152.588 56.9767 152.727 57.4918 152.727 58.0796C152.727 58.9829 152.424 59.7811 151.814 60.4776C151.128 61.2758 150.2 61.6749 149.032 61.6749C148.32 61.6749 147.521 61.5261 146.623 61.225V58.2719C146.846 58.4968 147.159 58.6927 147.565 58.8632C147.97 59.0301 148.353 59.1135 148.718 59.1135C149.018 59.1135 149.259 59.0446 149.434 58.9031C149.678 58.7326 149.799 58.504 149.799 58.2174C149.799 57.9127 149.664 57.6297 149.397 57.3649C148.999 57.0783 148.43 56.6248 147.685 56.0008C147.021 55.384 146.689 54.5968 146.689 53.639C146.689 53.0912 146.809 52.5651 147.054 52.0645C147.616 50.9471 148.634 50.3412 150.109 50.2432C150.898 50.1961 151.723 50.3013 152.577 50.5625V53.4866H152.584Z" fill="#E54100"/>
<path d="M155.016 61.5261H153.333V59.6069H155.016V61.5261Z" fill="#B2B2B2"/>
<path d="M160.075 55.2135L158.644 61.5261H156.432L154.997 55.2135H156.812L157.538 59.3203L158.276 55.2135H160.075Z" fill="#B2B2B2"/>
<path d="M165 61.5262H163.288V57.4085C163.288 57.1908 163.226 57.0203 163.102 56.8969C162.978 56.7699 162.835 56.7083 162.667 56.7083C162.317 56.7083 162.105 56.9405 162.028 57.4085V61.5262H160.345V55.2136H162.028V55.6199C162.09 55.5038 162.229 55.4058 162.448 55.326C162.667 55.2426 162.908 55.2063 163.175 55.2136C163.678 55.2353 164.087 55.3804 164.401 55.6525C164.799 56.0081 164.996 56.5523 164.996 57.2887V61.5262H165Z" fill="#B2B2B2"/>
<path d="M29.4969 68.158H30.384L32.6437 71.9999H31.6143L31.1543 71.1583H28.6536L28.1863 71.9999H27.2737L29.4969 68.158ZM30.7053 70.342L29.9131 68.9053L29.1099 70.342H30.7053Z" fill="white"/>
<path d="M35.4401 68.158H36.4112L37.3859 70.683L38.408 68.158H39.0943L40.1384 70.683L41.073 68.158H41.9126L40.4086 71.9999H39.7697L38.6891 69.3443L37.5903 71.9999H36.9587L35.4401 68.158Z" fill="white"/>
<path d="M46.9395 68.158H47.8229L50.0827 71.9999H49.0532L48.5932 71.1583H46.0925L45.6253 71.9999H44.7126L46.9395 68.158ZM48.1478 70.342L47.3557 68.9053L46.5525 70.342H48.1478Z" fill="white"/>
<path d="M53.4339 68.158H54.3502V69.7579L56.5442 68.158H57.873L55.2848 69.9901L58.1943 71.9999H56.7158L54.3502 70.313V71.9999H53.4339V68.158Z" fill="white"/>
<path d="M61.5383 68.158H65.5685V69.0178H62.4509V69.5946H64.2726V70.4073H62.4509V71.151H65.6087V72.0036H61.5383V68.158Z" fill="white"/>
<path d="M69.4673 68.158H70.1829L73.3698 70.7737V68.158H74.2825V71.9999H73.567L70.38 69.3878V71.9999H69.4673V68.158Z" fill="white"/>
<path d="M84.2925 70.2839L82.2408 68.158H83.482L84.8109 69.6164L86.1506 68.158H87.2458L85.2051 70.2622V71.9999H84.2888V70.2839H84.2925Z" fill="white"/>
<path d="M95.2005 71.1547C95.2005 71.3107 95.1859 71.4449 95.1567 71.5537C95.1275 71.6626 95.0764 71.7497 95.0107 71.815C94.9413 71.8803 94.8537 71.9311 94.7442 71.9601C94.6346 71.9891 94.4959 72.0036 94.3353 72.0036H91.3783C91.2177 72.0036 91.0826 71.9891 90.9731 71.9601C90.8636 71.9311 90.7759 71.8839 90.7066 71.815C90.6372 71.7497 90.5898 71.6626 90.5606 71.5537C90.5314 71.4449 90.5168 71.3143 90.5168 71.1547V69.0069C90.5168 68.6949 90.5788 68.4772 90.7066 68.3503C90.8344 68.2233 91.057 68.1616 91.3783 68.1616H94.3353C94.4959 68.1616 94.631 68.1761 94.7442 68.2088C94.8537 68.2378 94.9449 68.2886 95.0107 68.3503C95.08 68.4156 95.1275 68.5026 95.1567 68.6115C95.1859 68.7203 95.2005 68.8546 95.2005 69.0069V71.1547ZM94.2878 71.1474V69.0142H91.4331V71.1474H94.2878Z" fill="white"/>
<path d="M100.012 71.1474H102.626V68.158H103.538V71.1546C103.538 71.3106 103.524 71.4449 103.495 71.5537C103.465 71.6625 103.414 71.7496 103.349 71.8149C103.279 71.8802 103.192 71.931 103.082 71.96C102.973 71.9891 102.838 72.0036 102.681 72.0036H99.9682C99.8076 72.0036 99.6688 71.9891 99.5593 71.96C99.4498 71.931 99.3622 71.8839 99.2928 71.8149C99.2271 71.7496 99.176 71.6625 99.1468 71.5537C99.1176 71.4449 99.0993 71.3143 99.0993 71.1546V68.158H100.012V71.1474Z" fill="white"/>
<path d="M107.529 71.9999V68.158H110.909C111.059 68.158 111.176 68.1652 111.259 68.1797C111.343 68.1942 111.424 68.2233 111.5 68.2668C111.614 68.3285 111.69 68.4119 111.73 68.5208C111.771 68.626 111.792 68.7892 111.792 69.0033V69.7071C111.792 69.8377 111.789 69.9393 111.778 70.0082C111.767 70.0771 111.745 70.1461 111.716 70.2114C111.661 70.3347 111.57 70.4218 111.449 70.4726C111.329 70.5234 111.146 70.5488 110.913 70.5488H110.442L112.205 71.9999H110.887L109.266 70.5488H108.445V71.9999H107.529ZM110.489 69.7361C110.628 69.7361 110.727 69.7143 110.785 69.6708C110.843 69.6273 110.873 69.5547 110.873 69.4568V69.2935C110.873 69.1919 110.843 69.123 110.785 69.0795C110.727 69.0359 110.628 69.0178 110.489 69.0178H108.445V69.7361H110.489Z" fill="white"/>
<path d="M122.649 71.9999H121.729V69.0178H119.919V68.158H124.456V69.0178H122.649V71.9999Z" fill="white"/>
<path d="M129.607 68.158H130.491L132.751 71.9999H131.721L131.261 71.1583H128.76L128.293 71.9999H127.381L129.607 68.158ZM130.812 70.342L130.02 68.9053L129.217 70.342H130.812Z" fill="white"/>
<path d="M136.098 68.158H137.011V71.1474H139.964V71.9999H136.095V68.158H136.098Z" fill="white"/>
<path d="M143.553 68.158H147.583V69.0178H144.465V69.5946H146.287V70.4073H144.465V71.151H147.623V72.0036H143.553V68.158Z" fill="white"/>
<path d="M151.482 68.158H152.197L155.384 70.7737V68.158H156.297V71.9999H155.581L152.398 69.3878V71.9999H151.482V68.158Z" fill="white"/>
<path d="M162.613 71.9999H161.693V69.0178H159.886V68.158H164.423V69.0178H162.613V71.9999Z" fill="white"/>
<g opacity="0.15">
<path opacity="0.15" d="M32.4721 61.4355C31.9829 61.5334 31.5193 61.5806 31.0739 61.5806C30.1321 61.5806 29.3874 61.3339 28.8434 60.8405C28.2995 60.3471 28.0257 59.6324 28.0257 58.7V52.8735H26.9962V50.4573H28.0257V48.1899L31.0411 47.0289V50.4573H32.3188V52.8735H31.0411V57.9526C31.0411 58.5513 31.2857 58.8487 31.7749 58.8487C31.961 58.8487 32.1947 58.8052 32.4721 58.7218V61.4355Z" fill="black"/>
<path opacity="0.15" d="M41.2226 61.508H38.251V60.8114C38.1379 61.0254 37.8787 61.2068 37.4735 61.3556C37.0682 61.5043 36.6265 61.5733 36.1483 61.5624C35.3306 61.5515 34.6333 61.2504 34.0528 60.6663C33.3775 59.9879 33.0416 59.0954 33.0416 57.9852V50.4573H36.0388V57.5571C36.0388 57.9526 36.1483 58.2755 36.371 58.5185C36.5937 58.7616 36.8492 58.885 37.1376 58.885C37.7436 58.885 38.1123 58.4496 38.2364 57.5753V50.4573H41.2263V61.508H41.2226Z" fill="black"/>
<path opacity="0.15" d="M50.1666 61.9362C50.1666 63.1624 49.6847 64.0984 48.7173 64.7442C47.8886 65.3065 46.8409 65.5859 45.5778 65.5859C44.2891 65.5859 43.2086 65.3247 42.3324 64.7986V61.8636C43.183 62.6364 44.2125 63.0246 45.4245 63.0246C46.5927 63.0246 47.1768 62.6073 47.1768 61.7693V60.8623C47.0745 61.051 46.8519 61.2106 46.5087 61.3448C46.1656 61.4754 45.7786 61.5407 45.3478 61.5407C44.4461 61.5407 43.6904 61.2541 43.0844 60.6809C42.3397 59.9662 41.971 58.8887 41.971 57.4412V50.4683H45.001V57.55C45.001 57.9346 45.1105 58.2538 45.3332 58.5005C45.5559 58.7508 45.8114 58.8742 46.0998 58.8742C46.6949 58.8742 47.0563 58.4388 47.1804 57.5681V50.4683H50.1703V61.9362H50.1666Z" fill="black"/>
<path opacity="0.15" d="M59.4683 56.7881H53.9085C53.9085 57.4774 54.1421 58.0071 54.6057 58.3808C55.0219 58.7036 55.5658 58.8669 56.2412 58.8669C57.3583 58.8669 58.2965 58.5114 59.0485 57.7967V60.8877C58.0629 61.3883 57.0078 61.6386 55.8908 61.6386C54.4378 61.6386 53.2623 61.196 52.3643 60.3108C51.3092 59.2478 50.7982 57.6624 50.831 55.5546C50.8639 53.8277 51.3859 52.4781 52.3971 51.5022C53.2368 50.7149 54.1969 50.3159 55.2738 50.305C56.7048 50.2941 57.7854 50.8346 58.5192 51.9339C59.1726 52.9098 59.4976 54.2304 59.4976 55.8956C59.5012 56.1895 59.4902 56.487 59.4683 56.7881ZM56.6245 54.5533C56.5917 54.1216 56.442 53.7696 56.1718 53.5048C55.9054 53.24 55.5914 53.0985 55.2263 53.0876C54.8795 53.0876 54.5729 53.2218 54.3064 53.4939C54.0399 53.766 53.8866 54.1179 53.8464 54.5497H56.6245V54.5533Z" fill="black"/>
<path opacity="0.15" d="M68.1604 61.508H65.1633V54.2993C65.1633 53.922 65.0538 53.6209 64.8384 53.4032C64.623 53.1819 64.3711 53.0731 64.0827 53.0731C63.4694 53.0731 63.097 53.483 62.9693 54.2993V61.508H60.0232V50.4573H62.9693V51.172C63.0751 50.9725 63.3234 50.7984 63.7067 50.6533C64.09 50.5118 64.5135 50.4428 64.9807 50.4573C65.8605 50.4936 66.5761 50.7512 67.1273 51.2265C67.8173 51.8505 68.1641 52.8046 68.1641 54.0889V61.508H68.1604Z" fill="black"/>
<path opacity="0.15" d="M77.6264 61.508H74.6986L74.6658 60.9058C74.2679 61.3447 73.6984 61.566 72.9537 61.566C71.8986 61.566 70.9641 61.0473 70.1537 60.0097C69.3031 58.9249 68.8723 57.5898 68.8577 56.0044C68.8467 54.3573 69.2191 53.0114 69.9711 51.9702C70.7268 50.9253 71.676 50.4065 72.8149 50.4065C72.9573 50.4065 73.0887 50.4138 73.2165 50.4247C73.7495 50.4863 74.2314 50.6641 74.6621 50.9652V46.8584H77.6264V61.508ZM74.6658 56.8606V55.0866C74.5015 53.9945 74.0488 53.4467 73.3041 53.4467C72.3513 53.4467 71.8804 54.2993 71.8913 56.0008C71.8913 57.7095 72.3623 58.5549 73.3041 58.544C74.0452 58.5295 74.5015 57.9708 74.6658 56.8606Z" fill="black"/>
<path opacity="0.15" d="M86.5412 61.508H83.5696V60.8114C83.4565 61.0254 83.1973 61.2068 82.792 61.3556C82.3832 61.5043 81.9451 61.5733 81.4669 61.5624C80.6491 61.5515 79.9519 61.2504 79.3714 60.6663C78.6961 59.9879 78.3566 59.0954 78.3566 57.9852V50.4573H81.3537V57.5571C81.3537 57.9526 81.4632 58.2755 81.6859 58.5185C81.9086 58.7616 82.1605 58.885 82.4525 58.885C83.0585 58.885 83.4273 58.4496 83.5514 57.5753V50.4573H86.5412V61.508Z" fill="black"/>
<path opacity="0.15" d="M95.4049 61.508H92.4077V54.2993C92.4077 53.922 92.2982 53.6209 92.0828 53.4032C91.8675 53.1819 91.6156 53.0731 91.3272 53.0731C90.7139 53.0731 90.3415 53.483 90.2101 54.2993V61.508H87.264V50.4573H90.2101V51.172C90.3196 50.9725 90.5642 50.7984 90.9475 50.6533C91.3308 50.5118 91.7543 50.4428 92.2179 50.4573C93.0977 50.4936 93.8132 50.7512 94.3645 51.2265C95.0581 51.8505 95.4049 52.8046 95.4049 54.0889V61.508Z" fill="black"/>
<path opacity="0.15" d="M104.889 61.0219C104.889 62.5601 104.367 63.7573 103.323 64.6172C102.414 65.3681 101.304 65.7418 99.9937 65.7418C98.8292 65.7418 97.8471 65.4552 97.0477 64.882V61.6531C97.358 62.0921 97.7705 62.4404 98.2816 62.698C98.7926 62.9556 99.3074 63.0825 99.8294 63.0825C100.435 63.0825 100.925 62.9193 101.293 62.5964C101.713 62.23 101.918 61.7257 101.907 61.0763V60.8477C101.29 61.323 100.651 61.5588 99.9937 61.5588C98.7488 61.5588 97.7632 60.9348 97.0294 59.6832C96.3979 58.6093 96.0912 57.3685 96.1022 55.9609C96.1131 54.3066 96.4709 52.9642 97.1754 51.9266C97.88 50.889 98.789 50.3702 99.9061 50.3702C100.052 50.3702 100.205 50.3811 100.359 50.3993C101.078 50.4972 101.596 50.7258 101.907 51.0849V50.4537H104.886V61.0219H104.889ZM101.91 56.8606V55.0866C101.746 53.9692 101.293 53.4105 100.549 53.4105C99.6177 53.3996 99.1468 54.2413 99.1358 55.9464C99.1249 57.6297 99.5958 58.4714 100.549 58.4714C101.29 58.4678 101.746 57.9345 101.91 56.8606Z" fill="black"/>
<path opacity="0.15" d="M111.343 49.1005C111.077 49.0134 110.843 48.9735 110.646 48.9735C110.124 48.9735 109.861 49.2674 109.861 49.8515V50.4537H110.942V52.8118H109.861V61.5044H106.875V52.8118H105.623V50.4537H106.875V49.1186C106.875 48.1971 107.16 47.4933 107.737 47.0035C108.27 46.5283 109.014 46.2888 109.967 46.2888C110.398 46.2888 110.858 46.3396 111.347 46.4339V49.1005H111.343Z" fill="white"/>
<path opacity="0.15" d="M115.14 48.2225C115.14 48.7849 114.994 49.2456 114.706 49.6084C114.417 49.9712 114.023 50.1526 113.523 50.1526C113.004 50.1526 112.603 49.9712 112.314 49.6084C112.026 49.2456 111.88 48.7812 111.88 48.2225C111.88 47.6747 112.026 47.2176 112.314 46.8548C112.603 46.492 113.008 46.3034 113.523 46.2925C114.023 46.2925 114.417 46.4775 114.706 46.8476C114.994 47.214 115.14 47.6747 115.14 48.2225ZM115.001 61.508H112.015V50.4573H115.001V61.508Z" fill="white"/>
<path opacity="0.15" d="M121.302 61.4355C120.813 61.5334 120.349 61.5806 119.908 61.5806C118.966 61.5806 118.221 61.3339 117.677 60.8405C117.133 60.3471 116.859 59.6324 116.859 58.7V52.8735H115.83V50.4573H116.859V48.1899L119.875 47.0289V50.4573H121.153V52.8735H119.875V57.9526C119.875 58.5513 120.119 58.8487 120.609 58.8487C120.795 58.8487 121.028 58.8052 121.306 58.7218V61.4355H121.302Z" fill="white"/>
<path opacity="0.15" d="M130.013 61.508H127.015V54.2993C127.015 53.922 126.906 53.6209 126.691 53.4032C126.475 53.1819 126.223 53.0731 125.935 53.0731C125.322 53.0731 124.949 53.483 124.821 54.2993V61.508H121.875V50.4573H124.821V51.172C124.927 50.9725 125.176 50.7984 125.559 50.6533C125.942 50.5118 126.366 50.4428 126.833 50.4573C127.713 50.4936 128.428 50.7512 128.979 51.2265C129.673 51.8505 130.02 52.8046 130.02 54.0889V61.508H130.013Z" fill="white"/>
<path opacity="0.15" d="M139.344 56.7881H133.784C133.784 57.4774 134.017 58.0071 134.481 58.3808C134.897 58.7036 135.441 58.8669 136.116 58.8669C137.233 58.8669 138.172 58.5114 138.927 57.7967V60.8877C137.938 61.3883 136.887 61.6386 135.77 61.6386C134.317 61.6386 133.141 61.196 132.243 60.3108C131.188 59.2478 130.677 57.6624 130.71 55.5546C130.743 53.8277 131.265 52.4781 132.276 51.5022C133.116 50.7149 134.076 50.3159 135.153 50.305C136.584 50.2941 137.664 50.8346 138.394 51.9339C139.048 52.9098 139.373 54.2304 139.373 55.8956C139.38 56.1895 139.365 56.487 139.344 56.7881ZM136.5 54.5533C136.467 54.1216 136.317 53.7696 136.047 53.5048C135.781 53.24 135.467 53.0985 135.102 53.0876C134.755 53.0876 134.448 53.2218 134.182 53.4939C133.915 53.766 133.762 54.1179 133.722 54.5497H136.5V54.5533Z" fill="white"/>
<path opacity="0.15" d="M145.856 53.4649C144.998 53.0223 144.327 52.8336 143.837 52.9062C143.294 52.9933 143.02 53.2617 143.02 53.7116C143.02 53.9728 143.158 54.2231 143.436 54.4626C143.816 54.7746 144.199 55.0866 144.586 55.3949C145.017 55.7831 145.349 56.1532 145.582 56.5015C145.86 56.9513 145.999 57.4701 145.999 58.0579C145.999 58.9612 145.696 59.7594 145.086 60.4559C144.4 61.2541 143.472 61.6531 142.301 61.6531C141.592 61.6531 140.789 61.5044 139.891 61.2069V58.2501C140.114 58.4751 140.428 58.6746 140.833 58.8415C141.238 59.0084 141.622 59.0918 141.987 59.0918C142.286 59.0918 142.527 59.0229 142.702 58.8814C142.947 58.7109 143.067 58.4823 143.067 58.1957C143.067 57.891 142.932 57.608 142.666 57.3431C142.268 57.0565 141.698 56.603 140.953 55.979C140.289 55.3623 139.957 54.575 139.957 53.6173C139.957 53.0694 140.077 52.5434 140.322 52.0427C140.884 50.9253 141.903 50.3195 143.377 50.2215C144.166 50.1743 144.987 50.2796 145.845 50.5408V53.4649H145.856Z" fill="white"/>
<path opacity="0.15" d="M152.566 53.4649C151.708 53.0223 151.036 52.8336 150.547 52.9062C150.003 52.9933 149.73 53.2617 149.73 53.7116C149.73 53.9728 149.868 54.2231 150.146 54.4626C150.525 54.7746 150.909 55.0866 151.296 55.3949C151.726 55.7831 152.059 56.1532 152.292 56.5015C152.57 56.9513 152.708 57.4701 152.708 58.0579C152.708 58.9612 152.405 59.7594 151.796 60.4559C151.109 61.2541 150.182 61.6531 149.014 61.6531C148.302 61.6531 147.503 61.5044 146.605 61.2069V58.2501C146.827 58.4751 147.141 58.6746 147.546 58.8415C147.952 59.0084 148.335 59.0918 148.7 59.0918C148.999 59.0918 149.24 59.0229 149.416 58.8814C149.66 58.7109 149.781 58.4823 149.781 58.1957C149.781 57.891 149.646 57.608 149.379 57.3431C148.981 57.0565 148.412 56.603 147.667 55.979C147.003 55.3623 146.67 54.575 146.67 53.6173C146.67 53.0694 146.791 52.5434 147.035 52.0427C147.598 50.9253 148.616 50.3195 150.091 50.2215C150.879 50.1743 151.704 50.2796 152.559 50.5408V53.4649H152.566Z" fill="white"/>
</g>
</g>
<defs>
<linearGradient id="paint0_linear_313_1306" x1="4.51721" y1="19.4109" x2="29.2971" y2="19.4109" gradientUnits="userSpaceOnUse">
<stop stop-color="white"/>
<stop offset="0.037" stop-color="#FDF0EB"/>
<stop offset="0.1456" stop-color="#F7C7B4"/>
<stop offset="0.2581" stop-color="#F2A384"/>
<stop offset="0.3721" stop-color="#EE855B"/>
<stop offset="0.4881" stop-color="#EB6C3A"/>
<stop offset="0.6066" stop-color="#E85921"/>
<stop offset="0.7287" stop-color="#E64C0E"/>
<stop offset="0.8567" stop-color="#E54404"/>
<stop offset="1" stop-color="#E54100"/>
</linearGradient>
<linearGradient id="paint1_linear_313_1306" x1="4.51721" y1="30.6841" x2="20.7068" y2="30.6841" gradientUnits="userSpaceOnUse">
<stop stop-color="white"/>
<stop offset="0.037" stop-color="#FDF0EB"/>
<stop offset="0.1456" stop-color="#F7C7B4"/>
<stop offset="0.2581" stop-color="#F2A384"/>
<stop offset="0.3721" stop-color="#EE855B"/>
<stop offset="0.4881" stop-color="#EB6C3A"/>
<stop offset="0.6066" stop-color="#E85921"/>
<stop offset="0.7287" stop-color="#E64C0E"/>
<stop offset="0.8567" stop-color="#E54404"/>
<stop offset="1" stop-color="#E54100"/>
</linearGradient>
<linearGradient id="paint2_linear_313_1306" x1="8.20174" y1="45.4583" x2="14.4295" y2="45.4583" gradientUnits="userSpaceOnUse">
<stop stop-color="white"/>
<stop offset="0.037" stop-color="#FDF0EB"/>
<stop offset="0.1456" stop-color="#F7C7B4"/>
<stop offset="0.2581" stop-color="#F2A384"/>
<stop offset="0.3721" stop-color="#EE855B"/>
<stop offset="0.4881" stop-color="#EB6C3A"/>
<stop offset="0.6066" stop-color="#E85921"/>
<stop offset="0.7287" stop-color="#E64C0E"/>
<stop offset="0.8567" stop-color="#E54404"/>
<stop offset="1" stop-color="#E54100"/>
</linearGradient>
<linearGradient id="paint3_linear_313_1306" x1="8.20174" y1="42.5439" x2="15.6409" y2="42.5439" gradientUnits="userSpaceOnUse">
<stop stop-color="white"/>
<stop offset="0.037" stop-color="#FDF0EB"/>
<stop offset="0.1456" stop-color="#F7C7B4"/>
<stop offset="0.2581" stop-color="#F2A384"/>
<stop offset="0.3721" stop-color="#EE855B"/>
<stop offset="0.4881" stop-color="#EB6C3A"/>
<stop offset="0.6066" stop-color="#E85921"/>
<stop offset="0.7287" stop-color="#E64C0E"/>
<stop offset="0.8567" stop-color="#E54404"/>
<stop offset="1" stop-color="#E54100"/>
</linearGradient>
<linearGradient id="paint4_linear_313_1306" x1="38.6272" y1="2.73655" x2="44.5812" y2="2.73655" gradientUnits="userSpaceOnUse">
<stop stop-color="white"/>
<stop offset="0.0313" stop-color="#FCECE6"/>
<stop offset="0.0972" stop-color="#F8C9B6"/>
<stop offset="0.1687" stop-color="#F3A88B"/>
<stop offset="0.2443" stop-color="#EF8C65"/>
<stop offset="0.325" stop-color="#EC7546"/>
<stop offset="0.4123" stop-color="#E9622C"/>
<stop offset="0.5088" stop-color="#E75318"/>
<stop offset="0.6193" stop-color="#E6490B"/>
<stop offset="0.7563" stop-color="#E54302"/>
<stop offset="1" stop-color="#E54100"/>
</linearGradient>
<clipPath id="clip0_313_1306">
<rect width="165" height="72" fill="white"/>
</clipPath>
</defs>
</svg>
