<svg width="16" height="16" viewBox="0 0 16 16" fill="none" xmlns="http://www.w3.org/2000/svg">
<path fill-rule="evenodd" clip-rule="evenodd" d="M8 2.5C6.54131 2.5 5.14236 3.07946 4.11091 4.11091C3.07946 5.14236 2.5 6.54131 2.5 8C2.5 8.72227 2.64226 9.43747 2.91866 10.1048C3.19506 10.772 3.60019 11.3784 4.11091 11.8891C4.62164 12.3998 5.22795 12.8049 5.89524 13.0813C6.56253 13.3577 7.27773 13.5 8 13.5C8.72227 13.5 9.43747 13.3577 10.1048 13.0813C10.772 12.8049 11.3784 12.3998 11.8891 11.8891C12.3998 11.3784 12.8049 10.772 13.0813 10.1048C13.3577 9.43747 13.5 8.72227 13.5 8C13.5 6.54131 12.9205 5.14236 11.8891 4.11091C10.8576 3.07946 9.45869 2.5 8 2.5ZM3.40381 3.40381C4.62279 2.18482 6.27609 1.5 8 1.5C9.72391 1.5 11.3772 2.18482 12.5962 3.40381C13.8152 4.62279 14.5 6.27609 14.5 8C14.5 8.85359 14.3319 9.69883 14.0052 10.4874C13.6786 11.2761 13.1998 11.9926 12.5962 12.5962C11.9926 13.1998 11.2761 13.6786 10.4874 14.0052C9.69883 14.3319 8.85359 14.5 8 14.5C7.14641 14.5 6.30117 14.3319 5.51256 14.0052C4.72394 13.6786 4.00739 13.1998 3.40381 12.5962C2.80023 11.9926 2.32144 11.2761 1.99478 10.4874C1.66813 9.69883 1.5 8.85359 1.5 8C1.5 6.27609 2.18482 4.62279 3.40381 3.40381ZM8 4.16667C8.27614 4.16667 8.5 4.39052 8.5 4.66667V4.86932C9.15134 4.96421 9.73837 5.24374 10.1103 5.67227C10.2607 5.84563 10.2738 6.09918 10.142 6.28711C10.0102 6.47504 9.76736 6.54908 9.55312 6.46665L8.5 6.06145V7.53582C8.94686 7.60075 9.35811 7.75209 9.69158 7.97438C10.143 8.27527 10.5 8.74586 10.5 9.33333C10.5 9.9208 10.143 10.3914 9.69158 10.6923C9.35811 10.9146 8.94686 11.0659 8.5 11.1308V11.3333C8.5 11.6095 8.27614 11.8333 8 11.8333C7.72386 11.8333 7.5 11.6095 7.5 11.3333V11.1307C6.84866 11.0358 6.26164 10.7563 5.88972 10.3277C5.73926 10.1544 5.72617 9.90082 5.85798 9.71289C5.9898 9.52496 6.23264 9.45092 6.44688 9.53335L7.5 9.93855V8.46418C7.05314 8.39925 6.64189 8.24791 6.30842 8.02562C5.85703 7.72473 5.5 7.25414 5.5 6.66667C5.5 6.0792 5.85703 5.6086 6.30842 5.30771C6.64189 5.08542 7.05314 4.93409 7.5 4.86915V4.66667C7.5 4.39052 7.72386 4.16667 8 4.16667ZM7.5 5.88423C7.24737 5.93742 7.02993 6.02857 6.86308 6.13979C6.59063 6.3214 6.5 6.51747 6.5 6.66667C6.5 6.81586 6.59063 7.01194 6.86308 7.19354C7.02993 7.30477 7.24737 7.39592 7.5 7.44911V5.88423ZM8.5 8.55089V10.1158C8.75263 10.0626 8.97007 9.97143 9.13692 9.86021C9.40937 9.6786 9.5 9.48253 9.5 9.33333C9.5 9.18414 9.40937 8.98807 9.13692 8.80646C8.97007 8.69523 8.75263 8.60408 8.5 8.55089Z" fill="black"/>
</svg>
