<svg width="33" height="33" viewBox="0 0 33 33" fill="none" xmlns="http://www.w3.org/2000/svg">
<circle cx="16.5" cy="16.5" r="15.5" fill="#FF5C1D" stroke="#424A59" stroke-width="2"/>
<path d="M22 22.6667H10C9.72667 22.6667 9.5 22.44 9.5 22.1667C9.5 21.8934 9.72667 21.6667 10 21.6667H22C22.2733 21.6667 22.5 21.8934 22.5 22.1667C22.5 22.44 22.2733 22.6667 22 22.6667Z" fill="white"/>
<path d="M20.6804 10.32C19.387 9.02667 18.1204 8.99334 16.7937 10.32L15.987 11.1267C15.9204 11.1933 15.8937 11.3 15.9204 11.3933C16.427 13.16 17.8404 14.5733 19.607 15.08C19.6337 15.0867 19.6604 15.0933 19.687 15.0933C19.7604 15.0933 19.827 15.0667 19.8804 15.0133L20.6804 14.2067C21.3404 13.5533 21.6604 12.92 21.6604 12.28C21.667 11.62 21.347 10.98 20.6804 10.32Z" fill="white"/>
<path d="M18.4066 15.6867C18.2132 15.5933 18.0266 15.5 17.8466 15.3933C17.6999 15.3067 17.5599 15.2133 17.4199 15.1133C17.3066 15.04 17.1732 14.9333 17.0466 14.8267C17.0332 14.82 16.9866 14.78 16.9332 14.7267C16.7132 14.54 16.4666 14.3 16.2466 14.0333C16.2266 14.02 16.1932 13.9733 16.1466 13.9133C16.0799 13.8333 15.9666 13.7 15.8666 13.5467C15.7866 13.4467 15.6932 13.3 15.6066 13.1533C15.4999 12.9733 15.4066 12.7933 15.3132 12.6067V12.6067C15.1908 12.3444 14.8467 12.2665 14.6421 12.4712L10.8932 16.22C10.8066 16.3067 10.7266 16.4733 10.7066 16.5867L10.3466 19.14C10.2799 19.5933 10.4066 20.02 10.6866 20.3067C10.9266 20.54 11.2599 20.6667 11.6199 20.6667C11.6999 20.6667 11.7799 20.66 11.8599 20.6467L14.4199 20.2867C14.5399 20.2667 14.7066 20.1867 14.7866 20.1L18.5416 16.345C18.7421 16.1444 18.6668 15.7994 18.4066 15.6867V15.6867Z" fill="white"/>
</svg>
