<svg width="14" height="14" viewBox="0 0 14 14" fill="none" xmlns="http://www.w3.org/2000/svg">
<path fill-rule="evenodd" clip-rule="evenodd" d="M7 2.1875C5.72365 2.1875 4.49957 2.69453 3.59705 3.59705C2.69453 4.49957 2.1875 5.72365 2.1875 7C2.1875 7.63199 2.31198 8.25778 2.55383 8.84166C2.79568 9.42554 3.15017 9.95607 3.59705 10.403C4.04393 10.8498 4.57446 11.2043 5.15834 11.4462C5.74221 11.688 6.36801 11.8125 7 11.8125C7.63199 11.8125 8.25778 11.688 8.84166 11.4462C9.42554 11.2043 9.95607 10.8498 10.403 10.403C10.8498 9.95607 11.2043 9.42554 11.4462 8.84166C11.688 8.25778 11.8125 7.63199 11.8125 7C11.8125 5.72365 11.3055 4.49957 10.403 3.59705C9.50043 2.69453 8.27635 2.1875 7 2.1875ZM2.97833 2.97833C4.04494 1.91172 5.49158 1.3125 7 1.3125C8.50842 1.3125 9.95506 1.91172 11.0217 2.97833C12.0883 4.04494 12.6875 5.49158 12.6875 7C12.6875 7.74689 12.5404 8.48647 12.2546 9.17651C11.9687 9.86655 11.5498 10.4935 11.0217 11.0217C10.4935 11.5498 9.86655 11.9687 9.17651 12.2546C8.48647 12.5404 7.74689 12.6875 7 12.6875C6.25311 12.6875 5.51353 12.5404 4.82349 12.2546C4.13345 11.9687 3.50646 11.5498 2.97833 11.0217C2.4502 10.4935 2.03126 9.86655 1.74544 9.17651C1.45961 8.48647 1.3125 7.74689 1.3125 7C1.3125 5.49158 1.91172 4.04494 2.97833 2.97833ZM7 3.64583C7.24162 3.64583 7.4375 3.84171 7.4375 4.08333V4.26066C8.00742 4.34369 8.52107 4.58827 8.8465 4.96324C8.97815 5.11493 8.9896 5.33678 8.87426 5.50122C8.75893 5.66566 8.54644 5.73045 8.35898 5.65832L7.4375 5.30377V6.59384C7.8285 6.65066 8.18834 6.78308 8.48013 6.97758C8.8751 7.24086 9.1875 7.65263 9.1875 8.16667C9.1875 8.6807 8.8751 9.09247 8.48013 9.35575C8.18834 9.55026 7.8285 9.68267 7.4375 9.73949V9.91667C7.4375 10.1583 7.24162 10.3542 7 10.3542C6.75838 10.3542 6.5625 10.1583 6.5625 9.91667V9.73934C5.99258 9.65631 5.47893 9.41173 5.1535 9.03676C5.02185 8.88507 5.0104 8.66322 5.12574 8.49878C5.24107 8.33434 5.45356 8.26955 5.64102 8.34168L6.5625 8.69623V7.40616C6.1715 7.34934 5.81166 7.21692 5.51987 7.02242C5.1249 6.75914 4.8125 6.34737 4.8125 5.83333C4.8125 5.3193 5.1249 4.90753 5.51987 4.64425C5.81166 4.44974 6.1715 4.31733 6.5625 4.26051V4.08333C6.5625 3.84171 6.75838 3.64583 7 3.64583ZM6.5625 5.1487C6.34145 5.19524 6.15119 5.275 6.00519 5.37232C5.7668 5.53122 5.6875 5.70279 5.6875 5.83333C5.6875 5.96388 5.7668 6.13544 6.00519 6.29435C6.15119 6.39167 6.34145 6.47143 6.5625 6.51797V5.1487ZM7.4375 7.48203V8.8513C7.65855 8.80476 7.84881 8.725 7.99481 8.62768C8.23319 8.46878 8.3125 8.29721 8.3125 8.16667C8.3125 8.03612 8.23319 7.86456 7.99481 7.70565C7.84881 7.60833 7.65855 7.52857 7.4375 7.48203Z" fill="#666666"/>
</svg>
