<svg width="16" height="16" viewBox="0 0 16 16" fill="none" xmlns="http://www.w3.org/2000/svg">
<path d="M7.33334 3.33336H4.00001C3.64638 3.33336 3.30724 3.47384 3.0572 3.72388C2.80715 3.97393 2.66667 4.31307 2.66667 4.66669V12C2.66667 12.3536 2.80715 12.6928 3.0572 12.9428C3.30724 13.1929 3.64638 13.3334 4.00001 13.3334H11.3333C11.687 13.3334 12.0261 13.1929 12.2761 12.9428C12.5262 12.6928 12.6667 12.3536 12.6667 12V8.66669L7.33334 3.33336ZM11.724 2.39069C11.847 2.26335 11.9941 2.16177 12.1568 2.09189C12.3195 2.02201 12.4944 1.98523 12.6715 1.98369C12.8485 1.98215 13.0241 2.01589 13.1879 2.08293C13.3518 2.14997 13.5007 2.24898 13.6259 2.37417C13.7511 2.49936 13.8501 2.64823 13.9171 2.81209C13.9841 2.97595 14.0179 3.15152 14.0163 3.32856C14.0148 3.5056 13.978 3.68056 13.9081 3.84323C13.8383 4.0059 13.7367 4.15303 13.6093 4.27603L7.88534 10H6V8.11469L11.724 2.39069Z" stroke="#FF5C1D" stroke-linecap="round" stroke-linejoin="round"/>
</svg>
