<svg width="16" height="16" viewBox="0 0 16 16" fill="none" xmlns="http://www.w3.org/2000/svg">
<path fill-rule="evenodd" clip-rule="evenodd" d="M7.99999 2.50018C7.04406 2.50018 6.10959 2.78365 5.31476 3.31473C4.51993 3.84581 3.90043 4.60066 3.5346 5.48382C3.16877 6.36698 3.07304 7.33879 3.25951 8.27636C3.44598 9.2139 3.90627 10.0751 4.58217 10.7511C4.58219 10.7511 4.58215 10.751 4.58217 10.7511L7.4115 13.5797C7.48877 13.6571 7.58075 13.7186 7.68174 13.7605C7.78274 13.8024 7.89099 13.8239 8.00033 13.8239C8.10966 13.8239 8.21791 13.8024 8.31891 13.7605C8.4199 13.7186 8.51166 13.6573 8.58893 13.5799L11.4178 10.7511C12.0937 10.0751 12.554 9.21393 12.7405 8.27636C12.9269 7.33879 12.8312 6.36698 12.4654 5.48382C12.0996 4.60066 11.4801 3.84581 10.6852 3.31473C9.89039 2.78365 8.95592 2.50018 7.99999 2.50018ZM12.1249 11.4582C12.9407 10.6424 13.4962 9.60298 13.7213 8.47143C13.9463 7.33988 13.8308 6.16701 13.3893 5.10113C12.9477 4.03524 12.2001 3.12422 11.2408 2.48326C10.2815 1.84229 9.1537 1.50018 7.99999 1.50018C6.84628 1.50018 5.71848 1.84229 4.7592 2.48326C3.79992 3.12422 3.05224 4.03524 2.61072 5.10113C2.1692 6.16701 2.05367 7.33988 2.27872 8.47143C2.50378 9.60298 3.05932 10.6424 3.8751 11.4582L6.70426 14.2867C6.8744 14.457 7.07644 14.5921 7.29883 14.6843C7.52122 14.7765 7.75959 14.8239 8.00033 14.8239C8.24106 14.8239 8.47943 14.7765 8.70182 14.6843C8.92413 14.5921 9.12611 14.4571 9.29621 14.2869C9.29615 14.2869 9.29627 14.2868 9.29621 14.2869L12.1249 11.4582Z" fill="#FF5C1D"/>
<path fill-rule="evenodd" clip-rule="evenodd" d="M8 5.83331C7.60218 5.83331 7.22064 5.99135 6.93934 6.27265C6.65804 6.55396 6.5 6.93549 6.5 7.33331C6.5 7.73114 6.65804 8.11267 6.93934 8.39397C7.22064 8.67528 7.60218 8.83331 8 8.83331C8.39783 8.83331 8.77936 8.67528 9.06066 8.39397C9.34196 8.11267 9.5 7.73114 9.5 7.33331C9.5 6.93549 9.34196 6.55396 9.06066 6.27265C8.77936 5.99135 8.39783 5.83331 8 5.83331ZM6.23223 5.56555C6.70107 5.0967 7.33696 4.83331 8 4.83331C8.66304 4.83331 9.29893 5.0967 9.76777 5.56555C10.2366 6.03439 10.5 6.67027 10.5 7.33331C10.5 7.99635 10.2366 8.63224 9.76777 9.10108C9.29893 9.56992 8.66304 9.83331 8 9.83331C7.33696 9.83331 6.70107 9.56992 6.23223 9.10108C5.76339 8.63224 5.5 7.99635 5.5 7.33331C5.5 6.67027 5.76339 6.03439 6.23223 5.56555Z" fill="#FF5C1D"/>
</svg>
