<svg width="16" height="16" viewBox="0 0 16 16" fill="none" xmlns="http://www.w3.org/2000/svg">
<path d="M9.50935 10.6379L7.9591 7.95081L9.52203 10.6301L9.50935 10.6379ZM7.99998 13.8333C11.2095 13.8333 13.8333 11.2095 13.8333 8.00001C13.8333 4.79053 11.2095 2.16668 7.99998 2.16668C4.7905 2.16668 2.16665 4.79053 2.16665 8.00001C2.16665 11.2095 4.7905 13.8333 7.99998 13.8333ZM7.99998 1.83334C11.3905 1.83334 14.1666 4.60949 14.1666 8.00001C14.1666 11.3905 11.3905 14.1667 7.99998 14.1667C4.60946 14.1667 1.83331 11.3905 1.83331 8.00001C1.83331 4.60949 4.60946 1.83334 7.99998 1.83334Z" fill="#666666" stroke="#666666"/>
</svg>
