<svg width="33" height="33" viewBox="0 0 33 33" fill="none" xmlns="http://www.w3.org/2000/svg">
<path d="M24.2157 14.3928C23.6424 14.3928 23.189 13.9261 23.189 13.3661C23.189 12.8728 22.6957 11.8461 21.869 10.9528C21.0557 10.0861 20.1624 9.57946 19.4157 9.57946C18.8424 9.57946 18.389 9.11279 18.389 8.55279C18.389 7.99279 18.8557 7.52612 19.4157 7.52612C20.749 7.52612 22.149 8.24612 23.3757 9.53946C24.5224 10.7528 25.2557 12.2595 25.2557 13.3528C25.2557 13.9261 24.789 14.3928 24.2157 14.3928Z" fill="#FF5C1D"/>
<path d="M29.0291 14.393C28.4558 14.393 28.0025 13.9263 28.0025 13.3663C28.0025 8.63298 24.1491 4.79298 19.4291 4.79298C18.8558 4.79298 18.4025 4.32632 18.4025 3.76632C18.4025 3.20632 18.8558 2.72632 19.4158 2.72632C25.2825 2.72632 30.0558 7.49965 30.0558 13.3663C30.0558 13.9263 29.5891 14.393 29.0291 14.393Z" fill="#FF5C1D"/>
<path d="M15.4558 19.993L12.9892 22.4597C12.4692 22.9796 11.6425 22.9797 11.1092 22.473C10.9625 22.3263 10.8158 22.193 10.6692 22.0463C9.29583 20.6597 8.05583 19.2063 6.94916 17.6863C5.85583 16.1663 4.97583 14.6463 4.33583 13.1397C3.70916 11.6197 3.38916 10.1663 3.38916 8.77965C3.38916 7.87298 3.54916 7.00632 3.86916 6.20632C4.18916 5.39299 4.69583 4.64632 5.40249 3.97965C6.25583 3.13965 7.18916 2.72632 8.17583 2.72632C8.54916 2.72632 8.92249 2.80632 9.25583 2.96632C9.60249 3.12632 9.90916 3.36632 10.1492 3.71298L13.2425 8.07299C13.4825 8.40632 13.6558 8.71298 13.7758 9.00632C13.8958 9.28632 13.9625 9.56632 13.9625 9.81965C13.9625 10.1397 13.8692 10.4597 13.6825 10.7663C13.5092 11.073 13.2558 11.393 12.9358 11.713L11.9225 12.7663C11.7758 12.913 11.7092 13.0863 11.7092 13.2997C11.7092 13.4063 11.7225 13.4997 11.7492 13.6063C11.7892 13.713 11.8292 13.793 11.8558 13.873C12.0958 14.313 12.5092 14.8863 13.0958 15.5797C13.6958 16.273 14.3358 16.9797 15.0292 17.6863C15.1625 17.8197 15.3092 17.953 15.4425 18.0863C15.9758 18.6063 15.9892 19.4597 15.4558 19.993Z" fill="#FF5C1D"/>
<path d="M30.0158 24.4995C30.0158 24.8729 29.9491 25.2595 29.8158 25.6329C29.7758 25.7395 29.7358 25.8462 29.6825 25.9529C29.4558 26.4329 29.1625 26.8862 28.7758 27.3129C28.1225 28.0329 27.4025 28.5529 26.5891 28.8862C26.5758 28.8862 26.5625 28.8995 26.5491 28.8995C25.7625 29.2195 24.9091 29.3929 23.9891 29.3929C22.6291 29.3929 21.1758 29.0729 19.6425 28.4195C18.1091 27.7662 16.5758 26.8862 15.0558 25.7795C14.5358 25.3929 14.0158 25.0062 13.5225 24.5929L17.8825 20.2329C18.2558 20.5129 18.5891 20.7262 18.8691 20.8729C18.9358 20.8995 19.0158 20.9395 19.1091 20.9795C19.2158 21.0195 19.3225 21.0329 19.4425 21.0329C19.6691 21.0329 19.8425 20.9529 19.9891 20.8062L21.0025 19.8062C21.3358 19.4729 21.6558 19.2195 21.9625 19.0595C22.2691 18.8729 22.5758 18.7795 22.9091 18.7795C23.1625 18.7795 23.4291 18.8329 23.7225 18.9529C24.0158 19.0729 24.3225 19.2462 24.6558 19.4729L29.0691 22.6062C29.4158 22.8462 29.6558 23.1262 29.8025 23.4595C29.9358 23.7929 30.0158 24.1262 30.0158 24.4995Z" fill="#FF5C1D"/>
</svg>
