<svg width="44" height="44" viewBox="0 0 44 44" fill="none" xmlns="http://www.w3.org/2000/svg">
<path d="M22 20.1667C26.0501 20.1667 29.3333 16.8834 29.3333 12.8333C29.3333 8.78325 26.0501 5.5 22 5.5C17.9499 5.5 14.6667 8.78325 14.6667 12.8333C14.6667 16.8834 17.9499 20.1667 22 20.1667Z" stroke="#FF5C1D" stroke-width="2.75" stroke-linecap="round" stroke-linejoin="round"/>
<path d="M11 38.5V34.8333C11 32.8884 11.7726 31.0232 13.1479 29.6479C14.5232 28.2726 16.3884 27.5 18.3333 27.5H20.1667" stroke="#FF5C1D" stroke-width="2.75" stroke-linecap="round" stroke-linejoin="round"/>
<path d="M30.25 36.6667C32.7813 36.6667 34.8333 34.6146 34.8333 32.0833C34.8333 29.552 32.7813 27.5 30.25 27.5C27.7187 27.5 25.6667 29.552 25.6667 32.0833C25.6667 34.6146 27.7187 36.6667 30.25 36.6667Z" stroke="#FF5C1D" stroke-width="2.75" stroke-linecap="round" stroke-linejoin="round"/>
<path d="M33.9167 35.75L38.5 40.3333" stroke="#FF5C1D" stroke-width="2.75" stroke-linecap="round" stroke-linejoin="round"/>
</svg>
