<svg width="36" height="37" viewBox="0 0 36 37" fill="none" xmlns="http://www.w3.org/2000/svg">
<path d="M24.2101 4.4574L10.6651 8.9574C1.56005 12.0024 1.56005 16.9674 10.6651 19.9974L14.6851 21.3324L16.0201 25.3524C19.0501 34.4574 24.0301 34.4574 27.0601 25.3524L31.5751 11.8224C33.5851 5.7474 30.2851 2.4324 24.2101 4.4574ZM24.6901 12.5274L18.9901 18.2574C18.7651 18.4824 18.4801 18.5874 18.1951 18.5874C17.9101 18.5874 17.6251 18.4824 17.4001 18.2574C16.9651 17.8224 16.9651 17.1024 17.4001 16.6674L23.1001 10.9374C23.5351 10.5024 24.2551 10.5024 24.6901 10.9374C25.1251 11.3724 25.1251 12.0924 24.6901 12.5274Z" fill="white"/>
</svg>
