<svg width="12" height="6" viewBox="0 0 12 6" fill="none" xmlns="http://www.w3.org/2000/svg">
<path fill-rule="evenodd" clip-rule="evenodd" d="M10.995 0.504945C11.2684 0.778312 11.2684 1.22153 10.995 1.49489L10.5616 1.06147C10.995 1.4949 10.9951 1.49485 10.995 1.49489L10.949 1.54084L10.82 1.66896C10.7088 1.77916 10.5496 1.93638 10.3571 2.12497C9.97235 2.50188 9.45314 3.00536 8.91733 3.50966C8.38331 4.01227 7.8253 4.52276 7.36503 4.91036C7.1364 5.10289 6.92008 5.27513 6.73673 5.40268C6.64606 5.46575 6.5493 5.52788 6.45406 5.57703C6.38883 5.6107 6.21328 5.69992 6.00007 5.69992C5.78687 5.69992 5.61131 5.6107 5.54609 5.57703C5.45085 5.52788 5.35408 5.46575 5.26341 5.40268C5.08007 5.27513 4.86375 5.10289 4.63512 4.91036C4.17484 4.52276 3.61684 4.01227 3.08282 3.50966C2.547 3.00536 2.0278 2.50188 1.64304 2.12497C1.45052 1.93638 1.29133 1.77915 1.18015 1.66896L1.05117 1.54084L1.00595 1.49574L1.00517 1.49497C1.00513 1.49492 1.0051 1.49489 1.50007 0.99992L1.99506 0.50496L2.03906 0.548839L2.1657 0.674625C2.27522 0.783184 2.43244 0.938463 2.62273 1.12487C3.0036 1.49796 3.51564 1.99447 4.04233 2.49018C4.57081 2.98757 5.10655 3.47708 5.53691 3.83948C5.72074 3.99429 5.87689 4.11872 6.00008 4.20858C6.12326 4.11872 6.27941 3.99429 6.46324 3.83948C6.89359 3.47708 7.42934 2.98757 7.95782 2.49018C8.4845 1.99448 8.99655 1.49796 9.37741 1.12487C9.5677 0.938463 9.72492 0.783185 9.83445 0.674625L9.96108 0.548839L10.0045 0.505552C10.2779 0.232185 10.7217 0.231578 10.995 0.504945ZM5.81196 4.33296C5.79394 4.34016 5.79305 4.34272 5.81196 4.33296C5.8122 4.33284 5.81171 4.33309 5.81196 4.33296ZM1.0051 0.504945C1.27847 0.231578 1.7217 0.231593 1.99506 0.50496L1.50007 0.99992L1.00517 1.49497C0.731808 1.2216 0.731731 0.778312 1.0051 0.504945Z" fill="white"/>
</svg>
