<svg width="16" height="16" viewBox="0 0 16 16" fill="none" xmlns="http://www.w3.org/2000/svg">
<path fill-rule="evenodd" clip-rule="evenodd" d="M7.99996 2.50018C7.04403 2.50018 6.10956 2.78365 5.31473 3.31473C4.5199 3.84581 3.9004 4.60066 3.53457 5.48382C3.16874 6.36698 3.07301 7.33879 3.25948 8.27636C3.44595 9.2139 3.90624 10.0751 4.58214 10.7511C4.58216 10.7511 4.58212 10.751 4.58214 10.7511L7.41147 13.5797C7.48874 13.6571 7.58072 13.7186 7.68171 13.7605C7.78271 13.8024 7.89096 13.8239 8.0003 13.8239C8.10963 13.8239 8.21788 13.8024 8.31888 13.7605C8.41987 13.7186 8.51163 13.6573 8.5889 13.5799L11.4177 10.7511C12.0937 10.0751 12.554 9.21393 12.7404 8.27636C12.9269 7.33879 12.8312 6.36698 12.4654 5.48382C12.0995 4.60066 11.48 3.84581 10.6852 3.31473C9.89036 2.78365 8.95589 2.50018 7.99996 2.50018ZM12.1249 11.4582C12.9406 10.6424 13.4962 9.60298 13.7212 8.47143C13.9463 7.33988 13.8308 6.16701 13.3892 5.10113C12.9477 4.03524 12.2 3.12422 11.2408 2.48326C10.2815 1.84229 9.15367 1.50018 7.99996 1.50018C6.84625 1.50018 5.71845 1.84229 4.75917 2.48326C3.79989 3.12422 3.05221 4.03524 2.61069 5.10113C2.16917 6.16701 2.05364 7.33988 2.27869 8.47143C2.50375 9.60298 3.05929 10.6424 3.87507 11.4582L6.70423 14.2867C6.87437 14.457 7.07641 14.5921 7.2988 14.6843C7.52119 14.7765 7.75956 14.8239 8.0003 14.8239C8.24103 14.8239 8.4794 14.7765 8.70179 14.6843C8.9241 14.5921 9.12608 14.4571 9.29618 14.2869C9.29612 14.2869 9.29624 14.2868 9.29618 14.2869L12.1249 11.4582Z" fill="black"/>
<path fill-rule="evenodd" clip-rule="evenodd" d="M8 5.83334C7.60218 5.83334 7.22064 5.99138 6.93934 6.27268C6.65804 6.55399 6.5 6.93552 6.5 7.33334C6.5 7.73117 6.65804 8.1127 6.93934 8.394C7.22064 8.67531 7.60218 8.83334 8 8.83334C8.39783 8.83334 8.77936 8.67531 9.06066 8.394C9.34196 8.1127 9.5 7.73117 9.5 7.33334C9.5 6.93552 9.34196 6.55399 9.06066 6.27268C8.77936 5.99138 8.39783 5.83334 8 5.83334ZM6.23223 5.56558C6.70107 5.09674 7.33696 4.83334 8 4.83334C8.66304 4.83334 9.29893 5.09674 9.76777 5.56558C10.2366 6.03442 10.5 6.6703 10.5 7.33334C10.5 7.99638 10.2366 8.63227 9.76777 9.10111C9.29893 9.56995 8.66304 9.83334 8 9.83334C7.33696 9.83334 6.70107 9.56995 6.23223 9.10111C5.76339 8.63227 5.5 7.99638 5.5 7.33334C5.5 6.6703 5.76339 6.03442 6.23223 5.56558Z" fill="black"/>
</svg>
