<svg width="14" height="14" viewBox="0 0 14 14" fill="none" xmlns="http://www.w3.org/2000/svg">
<path fill-rule="evenodd" clip-rule="evenodd" d="M7 2.18768C6.16356 2.18768 5.3459 2.43571 4.65042 2.90041C3.95494 3.36511 3.41288 4.0256 3.09278 4.79837C2.77268 5.57113 2.68891 6.42147 2.85208 7.24184C3.01524 8.06219 3.41799 8.81574 4.0094 9.4072C4.00942 9.40722 4.00939 9.40718 4.0094 9.4072L6.48507 11.8823C6.55268 11.95 6.63316 12.0038 6.72153 12.0405C6.8099 12.0771 6.90462 12.096 7.00029 12.096C7.09595 12.096 7.19068 12.0771 7.27905 12.0405C7.36742 12.0038 7.44771 11.9502 7.51532 11.8825L9.99055 9.40724C10.582 8.81578 10.9848 8.06221 11.1479 7.24184C11.3111 6.42147 11.2273 5.57113 10.9072 4.79837C10.5871 4.0256 10.0451 3.36511 9.34957 2.90041C8.6541 2.43571 7.83644 2.18768 7 2.18768ZM10.6093 10.0259C11.3231 9.31211 11.8092 8.40263 12.0061 7.41253C12.203 6.42242 12.1019 5.39616 11.7156 4.46351C11.3293 3.53086 10.6751 2.73371 9.83569 2.17287C8.99632 1.61203 8.00949 1.31268 7 1.31268C5.9905 1.31268 5.00367 1.61203 4.1643 2.17287C3.32493 2.73371 2.67072 3.53086 2.28439 4.46351C1.89806 5.39616 1.79696 6.42242 1.99389 7.41253C2.19081 8.40263 2.67691 9.31211 3.39071 10.0259L5.86623 12.5009C6.01511 12.6499 6.19189 12.7681 6.38648 12.8488C6.58107 12.9294 6.78965 12.971 7.00029 12.971C7.21093 12.971 7.41951 12.9294 7.6141 12.8488C7.80862 12.7682 7.98535 12.65 8.13419 12.501C8.13414 12.5011 8.13424 12.501 8.13419 12.501L10.6093 10.0259Z" fill="#666666"/>
<path fill-rule="evenodd" clip-rule="evenodd" d="M7 5.10416C6.6519 5.10416 6.31806 5.24244 6.07192 5.48858C5.82578 5.73472 5.6875 6.06856 5.6875 6.41666C5.6875 6.76475 5.82578 7.09859 6.07192 7.34473C6.31806 7.59087 6.6519 7.72916 7 7.72916C7.3481 7.72916 7.68194 7.59087 7.92808 7.34473C8.17422 7.09859 8.3125 6.76475 8.3125 6.41666C8.3125 6.06856 8.17422 5.73472 7.92808 5.48858C7.68194 5.24244 7.3481 5.10416 7 5.10416ZM5.4532 4.86986C5.86344 4.45962 6.41984 4.22916 7 4.22916C7.58016 4.22916 8.13656 4.45962 8.5468 4.86986C8.95703 5.2801 9.1875 5.8365 9.1875 6.41666C9.1875 6.99682 8.95703 7.55322 8.5468 7.96345C8.13656 8.37369 7.58016 8.60416 7 8.60416C6.41984 8.60416 5.86344 8.37369 5.4532 7.96345C5.04297 7.55322 4.8125 6.99682 4.8125 6.41666C4.8125 5.8365 5.04297 5.2801 5.4532 4.86986Z" fill="#666666"/>
</svg>
