<svg width="44" height="45" viewBox="0 0 44 45" fill="none" xmlns="http://www.w3.org/2000/svg">
<path d="M22 20.1842C26.0501 20.1842 29.3334 16.901 29.3334 12.8509C29.3334 8.80082 26.0501 5.51758 22 5.51758C17.9499 5.51758 14.6667 8.80082 14.6667 12.8509C14.6667 16.901 17.9499 20.1842 22 20.1842Z" stroke="white" stroke-width="2.75" stroke-linecap="round" stroke-linejoin="round"/>
<path d="M11 38.5176V34.8509C11 32.906 11.7726 31.0407 13.1479 29.6655C14.5232 28.2902 16.3884 27.5176 18.3333 27.5176H20.1667" stroke="white" stroke-width="2.75" stroke-linecap="round" stroke-linejoin="round"/>
<path d="M30.25 36.6842C32.7813 36.6842 34.8334 34.6322 34.8334 32.1009C34.8334 29.5696 32.7813 27.5176 30.25 27.5176C27.7187 27.5176 25.6667 29.5696 25.6667 32.1009C25.6667 34.6322 27.7187 36.6842 30.25 36.6842Z" stroke="white" stroke-width="2.75" stroke-linecap="round" stroke-linejoin="round"/>
<path d="M33.9167 35.7676L38.5 40.3509" stroke="white" stroke-width="2.75" stroke-linecap="round" stroke-linejoin="round"/>
</svg>
