<svg width="20" height="21" viewBox="0 0 20 21" fill="none" xmlns="http://www.w3.org/2000/svg">
<path d="M14.1667 2.72591H13.9583V2.51758C13.9583 2.17258 13.6783 1.89258 13.3333 1.89258C12.9883 1.89258 12.7083 2.17258 12.7083 2.51758V2.72591H7.29167V2.51758C7.29167 2.17258 7.01167 1.89258 6.66667 1.89258C6.32167 1.89258 6.04167 2.17258 6.04167 2.51758V2.72591H5.83333C3.65083 2.72591 1.875 4.50174 1.875 6.68424V14.1842C1.875 16.3667 3.65083 18.1426 5.83333 18.1426H14.1667C16.3492 18.1426 18.125 16.3667 18.125 14.1842V6.68424C18.125 4.50174 16.3492 2.72591 14.1667 2.72591ZM5.83333 3.97591H6.04167V5.01758C6.04167 5.36258 6.32167 5.64258 6.66667 5.64258C7.01167 5.64258 7.29167 5.36258 7.29167 5.01758V3.97591H12.7083V5.01758C12.7083 5.36258 12.9883 5.64258 13.3333 5.64258C13.6783 5.64258 13.9583 5.36258 13.9583 5.01758V3.97591H14.1667C15.66 3.97591 16.875 5.19091 16.875 6.68424V6.89258H3.125V6.68424C3.125 5.19091 4.34 3.97591 5.83333 3.97591ZM14.1667 16.8926H5.83333C4.34 16.8926 3.125 15.6776 3.125 14.1842V8.14258H16.875V14.1842C16.875 15.6776 15.66 16.8926 14.1667 16.8926ZM14.1667 10.8509C14.1667 11.3109 13.7933 11.6842 13.3333 11.6842C12.8733 11.6842 12.5 11.3109 12.5 10.8509C12.5 10.3909 12.8733 10.0176 13.3333 10.0176C13.7933 10.0176 14.1667 10.3909 14.1667 10.8509ZM10.8333 10.8509C10.8333 11.3109 10.46 11.6842 10 11.6842C9.54 11.6842 9.16667 11.3109 9.16667 10.8509C9.16667 10.3909 9.54 10.0176 10 10.0176C10.46 10.0176 10.8333 10.3909 10.8333 10.8509ZM7.5 10.8509C7.5 11.3109 7.12667 11.6842 6.66667 11.6842C6.20667 11.6842 5.83333 11.3109 5.83333 10.8509C5.83333 10.3909 6.20667 10.0176 6.66667 10.0176C7.12667 10.0176 7.5 10.3909 7.5 10.8509ZM14.1667 14.1842C14.1667 14.6442 13.7933 15.0176 13.3333 15.0176C12.8733 15.0176 12.5 14.6442 12.5 14.1842C12.5 13.7242 12.8733 13.3509 13.3333 13.3509C13.7933 13.3509 14.1667 13.7242 14.1667 14.1842ZM10.8333 14.1842C10.8333 14.6442 10.46 15.0176 10 15.0176C9.54 15.0176 9.16667 14.6442 9.16667 14.1842C9.16667 13.7242 9.54 13.3509 10 13.3509C10.46 13.3509 10.8333 13.7242 10.8333 14.1842ZM7.5 14.1842C7.5 14.6442 7.12667 15.0176 6.66667 15.0176C6.20667 15.0176 5.83333 14.6442 5.83333 14.1842C5.83333 13.7242 6.20667 13.3509 6.66667 13.3509C7.12667 13.3509 7.5 13.7242 7.5 14.1842Z" fill="#393939"/>
</svg>
