<svg width="56" height="56" viewBox="0 0 56 56" fill="none" xmlns="http://www.w3.org/2000/svg">
<path fill-rule="evenodd" clip-rule="evenodd" d="M28 55.5625C12.7776 55.5625 0.4375 43.2224 0.4375 28C0.4375 12.7776 12.7776 0.4375 28 0.4375C43.2224 0.4375 55.5625 12.7776 55.5625 28C55.5625 43.2224 43.2224 55.5625 28 55.5625ZM28 53.5938C42.1351 53.5938 53.5938 42.1351 53.5938 28C53.5938 13.8649 42.1351 2.40625 28 2.40625C13.8649 2.40625 2.40625 13.8649 2.40625 28C2.40625 42.1351 13.8649 53.5938 28 53.5938Z" fill="#FF5C1D"/>
<path fill-rule="evenodd" clip-rule="evenodd" d="M6.67087 18.5762C7.85044 15.7552 9.543 14.1155 10 13.6518C10.4571 13.1883 11.1059 13.4144 11.5404 13.6518C11.975 13.8894 22.8672 24.7994 23.3535 25.3472C23.8395 25.8951 24.3548 26.7124 22.9595 26.7124C21.5639 26.7124 7.85409 26.5926 6.67087 26.5111C5.48737 26.4292 5.13806 25.739 5.13806 25.1495C5.13806 24.56 5.49103 21.3974 6.67087 18.5762ZM19.848 6.43937C22.6771 5.27866 24.6939 5.35487 25.345 5.35037C25.9961 5.34587 26.2948 5.96434 26.4343 6.43937C26.5735 6.91469 26.6748 22.4242 26.6312 23.1552C26.5873 23.8864 26.5994 24.6973 25.6128 23.7104C24.6259 22.7238 15.0161 12.9447 14.2373 12.0503C13.4583 11.1557 13.6993 10.4205 14.1164 10.0037C14.5332 9.58684 17.0189 7.60037 19.8483 6.43937H19.848ZM37.1426 6.67084C39.9636 7.85041 41.6033 9.54297 42.067 10C42.5305 10.457 42.3044 11.1059 42.067 11.5404C41.8294 11.9749 30.9194 22.8672 30.3715 23.3535C29.8237 23.8395 29.0063 24.3547 29.0063 22.9594C29.0063 21.5639 29.1262 7.85406 29.2077 6.67084C29.2896 5.48734 29.9798 5.13803 30.5693 5.13803C31.1588 5.13803 34.3214 5.491 37.1426 6.67084ZM49.2794 19.848C50.4401 22.6771 50.3639 24.6939 50.3684 25.345C50.3729 25.9961 49.7544 26.2948 49.2794 26.4343C48.8041 26.5735 33.2946 26.6748 32.5636 26.6312C31.8323 26.5873 31.0215 26.5994 32.0084 25.6128C32.995 24.6258 42.7741 15.0161 43.6685 14.2373C44.5631 13.4583 45.2983 13.6993 45.7151 14.1164C46.1319 14.5332 48.1184 17.0189 49.2794 19.8483V19.848ZM49.0479 37.4238C47.8684 40.2448 46.1758 41.8845 45.7188 42.3483C45.2618 42.8118 44.6129 42.5856 44.1784 42.3483C43.7438 42.1106 32.8516 31.2006 32.3653 30.6528C31.8793 30.1049 31.3641 29.2876 32.7593 29.2876C34.1549 29.2876 47.8647 29.4074 49.0479 29.4889C50.2314 29.5708 50.5808 30.261 50.5808 30.8505C50.5808 31.44 50.2278 34.6026 49.0479 37.4238ZM35.8708 49.5606C33.0417 50.7214 31.0249 50.6451 30.3738 50.6496C29.7227 50.6541 29.424 50.0357 29.2845 49.5606C29.1453 49.0853 29.044 33.5758 29.0876 32.8448C29.1315 32.1136 29.1194 31.3027 30.106 32.2896C31.0929 33.2763 40.7027 43.0553 41.4815 43.9497C42.2605 44.8443 42.0195 45.5795 41.6024 45.9963C41.1856 46.4132 38.6999 48.3996 35.8705 49.5606H35.8708ZM18.5762 49.3292C15.7552 48.1496 14.1156 46.457 13.6518 46C13.1883 45.543 13.4144 44.8941 13.6518 44.4596C13.8894 44.0251 24.7994 33.1328 25.3473 32.6465C25.8952 32.1605 26.7125 31.6453 26.7125 33.0406C26.7125 34.4361 26.5927 48.1459 26.5111 49.3292C26.4293 50.5127 25.7391 50.862 25.1496 50.862C24.5601 50.862 21.3974 50.509 18.5762 49.3292ZM6.43941 36.152C5.27869 33.3229 5.3549 31.3061 5.3504 30.655C5.3459 30.0039 5.96437 29.7052 6.43941 29.5657C6.91472 29.4265 22.4243 29.3253 23.1552 29.3688C23.8865 29.4127 24.6973 29.4006 23.7104 30.3873C22.7238 31.3742 12.9447 40.9839 12.0503 41.7627C11.1557 42.5418 10.4205 42.3007 10.0037 41.8836C9.58687 41.4668 7.60041 38.9811 6.43941 36.1518V36.152Z" fill="#FF5C1D"/>
</svg>
