<svg width="16" height="17" viewBox="0 0 16 17" fill="none" xmlns="http://www.w3.org/2000/svg">
<path fill-rule="evenodd" clip-rule="evenodd" d="M8 0.0175781C8.55229 0.0175781 9 0.465293 9 1.01758V7.01758H15C15.5523 7.01758 16 7.46529 16 8.01758C16 8.56986 15.5523 9.01758 15 9.01758H9V15.0176C9 15.5699 8.55229 16.0176 8 16.0176C7.44772 16.0176 7 15.5699 7 15.0176V9.01758H1C0.447715 9.01758 0 8.56986 0 8.01758C0 7.46529 0.447715 7.01758 1 7.01758H7V1.01758C7 0.465293 7.44772 0.0175781 8 0.0175781Z" fill="white"/>
</svg>
