<svg width="14" height="14" viewBox="0 0 14 14" fill="none" xmlns="http://www.w3.org/2000/svg">
<path fill-rule="evenodd" clip-rule="evenodd" d="M6.9999 2.04196C4.26127 2.04196 2.04157 4.26167 2.04157 7.00029C2.04157 9.73892 4.26127 11.9586 6.9999 11.9586C9.73852 11.9586 11.9582 9.73892 11.9582 7.00029C11.9582 4.26167 9.73852 2.04196 6.9999 2.04196ZM1.16656 7.00029C1.16656 3.77842 3.77802 1.16696 6.9999 1.16696C10.2218 1.16696 12.8332 3.77842 12.8332 7.00029C12.8332 10.2222 10.2218 12.8336 6.9999 12.8336C3.77802 12.8336 1.16656 10.2222 1.16656 7.00029Z" fill="#666666"/>
<path fill-rule="evenodd" clip-rule="evenodd" d="M6.80251 4.13986C7.04413 4.13986 7.24001 4.33574 7.24001 4.57736V7.15634L9.22581 8.34097C9.43332 8.46476 9.50118 8.73333 9.3774 8.94083C9.25361 9.14834 8.98504 9.21621 8.77753 9.09242L6.57837 7.7805C6.44605 7.70157 6.36501 7.55885 6.36501 7.40478V4.57736C6.36501 4.33574 6.56088 4.13986 6.80251 4.13986Z" fill="#666666"/>
</svg>
