<svg width="38" height="39" viewBox="0 0 38 39" fill="none" xmlns="http://www.w3.org/2000/svg">
<g clip-path="url(#clip0_53_166)">
<path d="M31.1981 12.2637C31.1981 5.51122 25.7045 0.0175781 18.952 0.0175781C12.1996 0.0175781 6.70593 5.51122 6.70593 12.2637C6.70593 17.8588 10.4778 22.5894 15.6122 24.0468V29.1113H12.2723C11.8221 29.1113 11.4162 29.3827 11.2437 29.7987C11.0715 30.2145 11.1669 30.6934 11.4852 31.0117L18.1649 37.6914C18.382 37.9089 18.667 38.0176 18.952 38.0176C19.237 38.0176 19.522 37.9089 19.7392 37.6914L26.4188 31.0117C26.7372 30.6934 26.8325 30.2145 26.6603 29.7984C26.4878 29.3824 26.082 29.1113 25.6317 29.1113H22.2919V24.0468C27.4263 22.5894 31.1981 17.8588 31.1981 12.2637ZM8.93249 12.2637C8.93249 6.73901 13.4274 2.24414 18.952 2.24414C24.4767 2.24414 28.9716 6.73901 28.9716 12.2637C28.9716 17.7883 24.4767 22.2832 18.952 22.2832C13.4274 22.2832 8.93249 17.7883 8.93249 12.2637ZM21.1786 31.3379H22.9439L18.952 35.3298L14.9602 31.3379H16.7255C17.3404 31.3379 17.8387 30.8395 17.8387 30.2246V24.4587C18.2055 24.4918 18.5766 24.5098 18.952 24.5098C19.3275 24.5098 19.6986 24.4918 20.0653 24.4587V30.2246C20.0653 30.8395 20.5637 31.3379 21.1786 31.3379Z" fill="white"/>
<path d="M20.0653 18.9434V17.3166C21.3673 16.8603 22.3037 15.62 22.3037 14.1641C22.3037 12.3225 20.8054 10.8242 18.9639 10.8242C18.3501 10.8242 17.8506 10.325 17.8506 9.71095C17.8506 9.0972 18.3501 8.59767 18.9639 8.59767C19.5779 8.59767 20.0771 9.0972 20.0771 9.71095C20.0771 10.3259 20.5758 10.8242 21.1904 10.8242C21.8053 10.8242 22.3037 10.3259 22.3037 9.71095C22.3037 8.25528 21.3673 7.01501 20.0653 6.55869V5.58398C20.0653 4.96907 19.5669 4.4707 18.952 4.4707C18.3371 4.4707 17.8387 4.96907 17.8387 5.58398V6.5668C16.5491 7.02951 15.624 8.26398 15.624 9.71095C15.624 11.5525 17.1223 13.0508 18.9639 13.0508C19.5779 13.0508 20.0771 13.5503 20.0771 14.1641C20.0771 14.7781 19.5779 15.2774 18.9639 15.2774C18.3501 15.2774 17.8506 14.7781 17.8506 14.1641C17.8506 13.5492 17.3522 13.0508 16.7373 13.0508C16.1227 13.0508 15.624 13.5492 15.624 14.1641C15.624 15.6111 16.5491 16.8455 17.8387 17.3085V18.9434C17.8387 19.5583 18.3371 20.0566 18.952 20.0566C19.5669 20.0566 20.0653 19.5583 20.0653 18.9434Z" fill="white"/>
</g>
<defs>
<clipPath id="clip0_53_166">
<rect width="38" height="38" fill="white" transform="translate(0 0.0175781)"/>
</clipPath>
</defs>
</svg>
