<svg width="44" height="45" viewBox="0 0 44 45" fill="none" xmlns="http://www.w3.org/2000/svg">
<g clip-path="url(#clip0_53_116)">
<path d="M39.6115 23.0911C40.0003 22.5146 40.2275 21.8206 40.2275 21.0745V20.3852C40.2275 18.3912 38.6052 16.7688 36.6112 16.7688C35.6163 16.7688 34.7139 17.1728 34.0594 17.8253C32.366 12.7887 27.5999 9.15063 22 9.15063C16.4001 9.15063 11.634 12.7886 9.94056 17.8253C9.28606 17.1728 8.3838 16.7688 7.38882 16.7688C5.39481 16.7688 3.77248 18.3912 3.77248 20.3852V21.0745C3.77248 21.8206 3.9997 22.5146 4.38848 23.0911C1.88521 23.6186 0 25.8439 0 28.5018V30.2321C0 30.7066 0.384828 31.0914 0.859375 31.0914H5.32812C5.80267 31.0914 6.1875 30.7066 6.1875 30.2321C6.1875 29.7575 5.80267 29.3727 5.32812 29.3727H1.71875V28.5018C1.71875 26.4004 3.42839 24.6907 5.52982 24.6907H9.59716C9.92698 26.1414 10.5051 27.4989 11.2851 28.7153L1.47967 38.5206C0.224125 39.7763 0.224125 41.8194 1.47976 43.0752C2.10762 43.703 2.93219 44.0169 3.75693 44.0169C4.58167 44.0169 5.40641 43.7029 6.03427 43.0752L11.44 37.6693C11.7756 37.3338 11.7756 36.7896 11.44 36.4539C11.1043 36.1184 10.5603 36.1184 10.2246 36.4539L4.81895 41.8597C4.23328 42.4453 3.28058 42.4452 2.695 41.8598C2.10951 41.2742 2.10951 40.3215 2.695 39.7359L12.3206 30.1104C14.6553 32.8485 18.1281 34.5881 22 34.5881C28.0438 34.5881 33.116 30.3506 34.4028 24.6907H38.4702C40.5716 24.6907 42.2812 26.4004 42.2812 28.5018V29.3727H34.2031C33.7286 29.3727 33.3438 29.7575 33.3438 30.2321C33.3438 30.7066 33.7286 31.0914 34.2031 31.0914H43.1406C43.6152 31.0914 44 30.7066 44 30.2321V28.5018C44 25.8439 42.1148 23.6186 39.6115 23.0911ZM9.28641 21.0746C9.28641 22.1208 8.43519 22.972 7.38882 22.972C6.34244 22.972 5.49123 22.1208 5.49123 21.0746V20.3852C5.49123 19.3389 6.34244 18.4877 7.38882 18.4877C8.43519 18.4877 9.28641 19.3389 9.28641 20.3852V21.0746ZM22 32.8694C15.9346 32.8694 11 27.9348 11 21.8694C11 15.804 15.9346 10.8694 22 10.8694C28.0654 10.8694 33 15.804 33 21.8694C33 27.9348 28.0654 32.8694 22 32.8694ZM38.5087 21.0746C38.5087 22.1208 37.6575 22.972 36.6111 22.972C35.5647 22.972 34.7135 22.1208 34.7135 21.0746V20.3852C34.7135 19.3389 35.5647 18.4877 36.6111 18.4877C37.6575 18.4877 38.5087 19.3389 38.5087 20.3852V21.0746Z" fill="white"/>
<path d="M22 12.5881C16.8823 12.5881 12.7188 16.7516 12.7188 21.8694C12.7188 24.5257 13.8408 26.9247 15.6353 28.6181C15.666 28.6512 15.6989 28.6825 15.735 28.7109C17.3872 30.2252 19.5875 31.1506 22 31.1506C24.4125 31.1506 26.6128 30.2251 28.265 28.7109C28.3011 28.6826 28.334 28.6512 28.3647 28.6181C30.1593 26.9247 31.2812 24.5257 31.2812 21.8694C31.2812 16.7517 27.1178 12.5881 22 12.5881ZM22 29.4319C20.2329 29.4319 18.6056 28.8225 17.3167 27.803C18.2298 26.0753 20.0092 24.9883 22 24.9883C23.9908 24.9883 25.7703 26.0753 26.6833 27.803C25.3944 28.8225 23.7671 29.4319 22 29.4319ZM20.189 21.4586V20.791C20.189 19.7924 21.0014 18.98 22 18.98C22.9986 18.98 23.811 19.7924 23.811 20.791V21.4586C23.811 22.4572 22.9986 23.2696 22 23.2696C21.0014 23.2696 20.189 22.4572 20.189 21.4586ZM27.9404 26.5443C27.1532 25.2882 26.0008 24.3302 24.6521 23.784C25.1977 23.1624 25.5297 22.3488 25.5297 21.4587V20.791C25.5297 18.8448 23.9462 17.2613 22 17.2613C20.0538 17.2613 18.4703 18.8448 18.4703 20.791V21.4587C18.4703 22.3488 18.8022 23.1624 19.3479 23.784C17.9992 24.3303 16.8469 25.2882 16.0596 26.5443C15.0441 25.2568 14.4375 23.6327 14.4375 21.8694C14.4375 17.6994 17.8301 14.3069 22 14.3069C26.1699 14.3069 29.5625 17.6994 29.5625 21.8694C29.5625 23.6327 28.9559 25.2568 27.9404 26.5443Z" fill="white"/>
<path d="M13.7388 34.1554C13.579 33.9955 13.3572 33.9036 13.1312 33.9036C12.9052 33.9036 12.6835 33.9955 12.5236 34.1554C12.3639 34.3152 12.2719 34.5369 12.2719 34.7629C12.2719 34.989 12.3638 35.2107 12.5236 35.3705C12.6835 35.5303 12.9052 35.6223 13.1312 35.6223C13.3572 35.6223 13.579 35.5304 13.7388 35.3705C13.8986 35.2107 13.9906 34.989 13.9906 34.7629C13.9906 34.5369 13.8986 34.3152 13.7388 34.1554Z" fill="white"/>
<path d="M22.0175 0.0183105C21.5429 0.0183105 21.1581 0.403139 21.1581 0.877686V3.80162C21.1581 4.27626 21.5429 4.661 22.0175 4.661C22.492 4.661 22.8768 4.27617 22.8768 3.80162V0.877686C22.8768 0.403139 22.492 0.0183105 22.0175 0.0183105Z" fill="white"/>
<path d="M22.6247 6.02792C22.4649 5.86808 22.244 5.77612 22.0172 5.77612C21.7911 5.77612 21.5695 5.86799 21.4096 6.02792C21.2498 6.18785 21.1578 6.40948 21.1578 6.6355C21.1578 6.86151 21.2497 7.08323 21.4096 7.24299C21.5695 7.40283 21.7911 7.49487 22.0172 7.49487C22.2441 7.49487 22.4649 7.40292 22.6247 7.24299C22.7845 7.08323 22.8766 6.86151 22.8766 6.6355C22.8766 6.40948 22.7846 6.18776 22.6247 6.02792Z" fill="white"/>
<path d="M29.3028 3.38932C28.9672 3.05382 28.4232 3.05382 28.0874 3.38932L26.577 4.89976C26.2414 5.23534 26.2414 5.7795 26.577 6.11517C26.7449 6.28292 26.9648 6.36688 27.1848 6.36688C27.4048 6.36688 27.6246 6.28292 27.7924 6.11517L29.3028 4.60473C29.6384 4.26915 29.6384 3.72499 29.3028 3.38932Z" fill="white"/>
<path d="M17.4374 4.91013L15.9124 3.38517C15.5767 3.04967 15.0328 3.04967 14.697 3.38517C14.3614 3.72076 14.3614 4.26491 14.697 4.60058L16.222 6.12554C16.3899 6.29329 16.6098 6.37726 16.8297 6.37726C17.0496 6.37726 17.2695 6.29329 17.4374 6.12554C17.773 5.78996 17.773 5.2458 17.4374 4.91013Z" fill="white"/>
</g>
<defs>
<clipPath id="clip0_53_116">
<rect width="44" height="44" fill="white" transform="translate(0 0.0175781)"/>
</clipPath>
</defs>
</svg>
