<svg width="40" height="41" viewBox="0 0 40 41" fill="none" xmlns="http://www.w3.org/2000/svg">
<g clip-path="url(#clip0_53_205)">
<path d="M37.4548 19.5721C32.6213 9.90496 32.7697 10.1994 32.7389 10.1448C32.5256 9.7673 32.1278 9.5491 31.7191 9.5491C31.5493 9.5491 8.26706 9.54613 8.17558 9.55441C7.78003 9.58926 7.42768 9.82504 7.24253 10.1793C7.23948 10.1853 7.23597 10.1909 7.233 10.1968L2.54542 19.572C2.54167 19.5794 2.53854 19.5871 2.53503 19.5946C2.53222 19.6004 2.52909 19.606 2.52643 19.6118C2.52448 19.6161 2.52308 19.6204 2.5212 19.6246C2.52112 19.6248 2.52104 19.625 2.52104 19.6251C2.34393 20.0282 2.40464 20.5056 2.70081 20.8544C2.70448 20.8589 2.70784 20.8635 2.71167 20.8678L19.1182 39.6181C19.1201 39.6203 19.1223 39.6221 19.1242 39.6243C19.5846 40.1425 20.4042 40.1552 20.8759 39.6243C20.8778 39.6221 20.88 39.6203 20.882 39.6181L37.2885 20.8678C37.2893 20.8668 37.2901 20.8658 37.2909 20.8648C37.5903 20.5205 37.6734 20.0093 37.4548 19.5721ZM29.8229 11.8929L26.8313 17.8761L22.3439 11.8929H29.8229ZM24.6877 18.9243H15.3125L20.0001 12.6742L24.6877 18.9243ZM17.6564 11.8929L13.1689 17.876L10.1774 11.8929H17.6564ZM8.2812 13.3414L11.0727 18.9243H5.48979L8.2812 13.3414ZM6.1762 21.268H12.1566L16.6419 33.2289L6.1762 21.268ZM20.0001 35.5089L14.6598 21.268H25.3404L20.0001 35.5089ZM23.3583 33.2289L27.8436 21.2681H33.824L23.3583 33.2289ZM28.9277 18.9243L31.7191 13.3414L34.5106 18.9243H28.9277Z" fill="white"/>
<path d="M20.0001 0.0175781C19.3529 0.0175781 18.8282 0.542266 18.8282 1.18945V4.70516C18.8282 5.35234 19.3529 5.87703 20.0001 5.87703C20.6473 5.87703 21.172 5.35234 21.172 4.70516V1.18945C21.172 0.542266 20.6473 0.0175781 20.0001 0.0175781Z" fill="white"/>
<path d="M16.1413 5.04851L13.7975 2.70476C13.3399 2.24718 12.5979 2.24718 12.1402 2.70476C11.6826 3.16241 11.6826 3.90437 12.1402 4.36202L14.484 6.70577C14.9416 7.16343 15.6836 7.16343 16.1413 6.70577C16.5989 6.24812 16.5989 5.50616 16.1413 5.04851Z" fill="white"/>
<path d="M27.8601 2.70476C27.4025 2.24718 26.6605 2.24718 26.2029 2.70476L23.8591 5.0485C23.4015 5.50616 23.4015 6.24811 23.8591 6.70577C24.3168 7.16343 25.0588 7.16335 25.5164 6.70577L27.8601 4.36202C28.3178 3.90436 28.3178 3.16241 27.8601 2.70476Z" fill="white"/>
</g>
<defs>
<clipPath id="clip0_53_205">
<rect width="40" height="40" fill="white" transform="translate(0 0.0175781)"/>
</clipPath>
</defs>
</svg>
