<svg width="38" height="39" viewBox="0 0 38 39" fill="none" xmlns="http://www.w3.org/2000/svg">
<path d="M18.7727 37.6426L18.22 37.3914C13.3407 35.1736 9.1561 31.8848 5.78321 27.6157C4.63318 26.1606 4 24.3306 4 22.4628V2.01758L5.93694 2.84863C8.29831 3.86188 10.2102 4.33372 11.953 4.33372C15.0041 4.33372 18.0304 2.47855 18.0606 2.45985L18.7727 2.01845L19.4974 2.44071C19.5272 2.45789 22.6664 4.26545 25.7059 4.26545C27.9025 4.26545 30.0079 3.50529 31.5968 2.84297L33.5204 2.0415V22.6592C33.5204 24.4221 32.976 26.1079 31.9462 27.5356C28.8009 31.8933 24.557 35.2149 19.3326 37.4075L18.7727 37.6426ZM6.7782 6.15651V22.4628C6.7782 23.7081 7.19894 24.9264 7.96324 25.8933C10.931 29.6493 14.5805 32.5774 18.8173 34.6041C23.3069 32.6141 26.9638 29.6911 29.6931 25.9094C30.3791 24.9586 30.742 23.8344 30.742 22.6592V6.13824C29.2554 6.63791 27.5379 7.04365 25.7059 7.04365C22.8536 7.04365 20.0871 5.85535 18.8147 5.22174C17.5618 5.88188 14.8399 7.11214 11.953 7.11214C10.0665 7.11236 8.272 6.66966 6.7782 6.15651ZM27.3828 14.8321L25.4183 12.8675L17.2496 21.0366L12.7271 16.5142L10.7623 18.4787L17.2496 24.9657L27.3828 14.8321Z" fill="white"/>
</svg>
