<svg width="58" height="58" viewBox="0 0 58 58" fill="none" xmlns="http://www.w3.org/2000/svg">
<path d="M24.9219 13.3219V15.1344C24.9219 17.1281 26.5531 18.7594 28.5469 18.7594C30.5406 18.7594 32.1719 17.1281 32.1719 15.1344V13.3219C32.1719 11.3281 30.5406 9.69688 28.5469 9.69688C26.5531 9.69688 24.9219 11.3281 24.9219 13.3219ZM26.7344 13.3219C26.7344 12.325 27.55 11.5094 28.5469 11.5094C29.5437 11.5094 30.3594 12.325 30.3594 13.3219V15.1344C30.3594 16.1313 29.5437 16.9469 28.5469 16.9469C27.55 16.9469 26.7344 16.1313 26.7344 15.1344V13.3219Z" fill="#333333"/>
<path d="M40.1469 41.0531C39.7844 41.4156 39.875 41.9594 40.2375 42.3219L41.9594 43.7719C42.1407 43.9531 42.775 44.1344 43.2282 43.6812C43.5907 43.3187 43.5 42.775 43.1375 42.4125L41.4157 40.9625C41.0532 40.6 40.5094 40.6906 40.1469 41.0531Z" fill="#333333"/>
<path d="M56.1875 55.2812H55.1C55.4625 54.1938 55.1906 53.1063 54.2844 52.3812L45.675 44.7688C45.3125 44.4062 44.7687 44.4062 44.4062 44.8594C44.0438 45.2219 44.1344 45.7656 44.4969 46.1281L53.1062 53.7406C53.5594 54.1031 53.4688 54.5563 53.3781 54.7375C52.8344 55.4625 52.2 55.2813 52.1094 55.1906L29 40.2375C28.7281 40.0563 28.4563 40.0562 28.1844 40.1469L19.1219 43.7719C18.7594 43.9531 18.5781 44.225 18.5781 44.5875V54.1031C18.5781 54.7375 18.0344 55.2812 17.4 55.2812C16.8563 55.2812 16.4031 54.9188 16.3125 54.4656L13.775 43.0469C13.5031 42.1406 13.9562 41.0531 14.8625 40.6L22.9281 36.6125H33.9844L37.5188 39.7844C37.7 39.9656 38.3344 40.2375 38.7875 39.6937C39.15 39.3312 39.0594 38.7875 38.6969 38.425L34.9812 35.1625L36.7031 25.4656L41.2344 14.1375C41.8687 12.8687 41.6875 11.2375 40.7812 10.15L33.8938 1.90312C33.0781 0.906247 31.6281 0.543747 30.3594 1.17812C29.5438 1.54062 27.9125 3.44375 29.3625 5.61875L34.7094 12.325L31.5375 20.3H25.5563L22.3844 12.325L27.7313 5.61875C29 3.35312 27.55 1.63125 26.7344 1.17812C25.5562 0.543747 24.1063 0.906247 23.2 1.90312L16.3125 10.15C15.4062 11.2375 15.225 12.8687 15.7687 14.1375L20.3906 25.5562L20.7531 27.55C20.8438 28.0031 21.2969 28.3656 21.8406 28.275C22.2938 28.1844 22.6562 27.7312 22.5656 27.1875L22.2031 25.0125L17.4906 13.3219C17.1281 12.6875 17.2188 11.8719 17.7625 11.3281L24.65 3.08125C25.0125 2.71875 25.5563 2.5375 26.0094 2.80937C26.1906 2.99062 26.9156 3.625 26.2812 4.44062L20.5719 11.5094C20.3906 11.7812 20.3 12.1437 20.4813 12.4156L24.1063 21.4781C24.2875 21.8406 24.5594 22.0219 24.9219 22.0219H32.1719C32.5344 22.0219 32.8969 21.8406 32.9875 21.4781L36.6125 12.4156C36.7031 12.1437 36.7031 11.7812 36.5219 11.5094L30.8125 4.44062C30.6313 4.16875 30.2688 3.44375 31.175 2.80937C31.6281 2.5375 32.1719 2.71875 32.5344 3.08125L39.4219 11.3281C39.875 11.8719 39.9656 12.6875 39.6031 13.4125L34.9812 25.0125L33.2594 34.9812H23.925L23.1094 30.5406C23.0188 30.0875 22.5656 29.725 22.0219 29.8156C21.5687 29.9062 21.2063 30.3594 21.2969 30.9031L22.0219 35.2531L13.9562 39.2406C12.2344 40.0562 11.4187 41.9594 11.9625 43.7719C11.9625 43.7719 14.5906 55.3719 14.5906 55.4625H12.6875C12.1437 55.4625 11.7812 55.825 11.7812 56.3688C11.7812 56.9125 12.1437 57.275 12.6875 57.275H38.0625C38.6063 57.275 38.9688 56.9125 38.9688 56.3688C38.9688 55.825 38.6063 55.4625 38.0625 55.4625H20.1188C20.3 55.1 20.3906 54.7375 20.3906 54.2844V45.4031L28.4562 42.2312L48.9375 55.2812H41.6875C41.1437 55.2812 40.7812 55.6437 40.7812 56.1875C40.7812 56.7313 41.1437 57.0938 41.6875 57.0938H56.1875C56.7313 57.0938 57.0938 56.7313 57.0938 56.1875C57.0938 55.6437 56.7313 55.2812 56.1875 55.2812Z" fill="#333333"/>
<path d="M9.0625 55.2812H1.8125C1.26875 55.2812 0.90625 55.6437 0.90625 56.1875C0.90625 56.7313 1.26875 57.0938 1.8125 57.0938H9.0625C9.60625 57.0938 9.96875 56.7313 9.96875 56.1875C9.96875 55.6437 9.60625 55.2812 9.0625 55.2812Z" fill="#333333"/>
</svg>
