<svg width="58" height="58" viewBox="0 0 58 58" fill="none" xmlns="http://www.w3.org/2000/svg">
<path d="M33.6353 17.2139C33.01 17.2139 32.5029 17.7215 32.5029 18.3467C32.5029 18.9715 33.01 19.4791 33.6353 19.4791C34.2606 19.4791 34.7677 18.9715 34.7677 18.3467C34.7677 17.7215 34.2606 17.2139 33.6353 17.2139Z" fill="#333333"/>
<path d="M26.7676 39.3387C27.2097 38.8957 27.2097 38.1789 26.7676 37.7359C26.3251 37.2943 25.6083 37.2943 25.1653 37.7359C24.7237 38.1789 24.7237 38.8957 25.1653 39.3387C25.6083 39.7803 26.3251 39.7803 26.7676 39.3387Z" fill="#333333"/>
<path d="M13.1579 57.665C13.5969 58.1075 14.3115 58.1124 14.7562 57.6743L20.2468 52.2652C21.1796 51.3324 21.4633 49.9513 21.0531 48.7508L22.2341 47.6118C22.87 46.9976 23.7072 46.6591 24.5922 46.6591H39.6476C42.3185 46.6591 44.843 45.6333 46.7568 43.7708C46.8356 43.6943 46.159 44.4912 57.0278 31.5011C58.6399 29.5939 58.3987 26.73 56.4897 25.1162C54.5927 23.5174 51.7509 23.747 50.1345 25.6215L43.4518 32.4901C42.6079 31.4515 41.3211 30.8041 39.9308 30.8041H27.3021C25.5051 30.0523 23.5984 29.6717 21.631 29.6717C16.1793 29.6717 11.4166 32.1887 8.86029 36.9129C7.78367 36.7089 6.6482 37.0346 5.83134 37.8514L0.443845 43.2549C0.00399473 43.696 0.00310978 44.4098 0.442075 44.8519L13.1579 57.665ZM21.6305 31.9365C23.3652 31.9365 25.0422 32.2856 26.6162 32.9742C26.7596 33.037 26.914 33.0693 27.0702 33.0693H39.9308C41.1587 33.0693 42.1959 34.0707 42.1959 35.334C42.1959 36.5832 41.18 37.5992 39.9308 37.5992H30.6908C30.0656 37.5992 29.5584 38.1063 29.5584 38.7316C29.5584 39.3573 30.0656 39.864 30.6908 39.864H39.9308C42.4287 39.864 44.4607 37.832 44.4607 35.334C44.4607 35.1349 44.4465 34.9375 44.4209 34.742C50.8854 28.0969 51.797 27.1632 51.8359 27.1167C52.643 26.164 54.0759 26.0432 55.029 26.8468C55.9831 27.6535 56.1039 29.0854 55.2945 30.0434L45.1368 42.1867C43.6536 43.6106 41.7061 44.3943 39.6476 44.3943H24.5922C23.1169 44.3943 21.7204 44.9585 20.661 45.982L19.6986 46.9108L10.8263 38.0391C12.8999 34.149 16.7909 31.9365 21.6305 31.9365ZM7.43409 39.452C7.80757 39.0785 8.38105 39.0112 8.83639 39.2927C9.00941 39.398 18.6958 49.1083 18.7556 49.1884C19.087 49.6349 19.0397 50.269 18.6516 50.6575L13.9708 55.2689L2.84311 44.0562L7.43409 39.452Z" fill="#333333"/>
<path d="M17.7802 24.009H44.9602C46.8338 24.009 48.3578 22.485 48.3578 20.6114C48.3578 17.7568 48.3578 5.45033 48.3578 3.39755C48.3578 1.52399 46.8338 0 44.9602 0H17.7802C15.9067 0 14.3827 1.52399 14.3827 3.39755V20.6114C14.3827 22.485 15.9067 24.009 17.7802 24.009ZM46.0926 9.05985H16.6479V6.79511H46.0926V9.05985ZM44.9602 21.7442H17.7802C17.1559 21.7442 16.6479 21.2358 16.6479 20.6114V11.325H46.0926V20.6114C46.0926 21.2358 45.5846 21.7442 44.9602 21.7442ZM17.7802 2.26518H44.9602C45.5846 2.26518 46.0926 2.77318 46.0926 3.39755V4.52992H16.6479V3.39755C16.6479 2.77318 17.1559 2.26518 17.7802 2.26518Z" fill="#333333"/>
<path d="M42.6951 17.2139H38.1652C37.5399 17.2139 37.0328 17.721 37.0328 18.3467C37.0328 18.972 37.5399 19.4791 38.1652 19.4791H42.6951C43.3208 19.4791 43.8279 18.972 43.8279 18.3467C43.8279 17.721 43.3208 17.2139 42.6951 17.2139Z" fill="#333333"/>
</svg>
