<svg width="56" height="40" viewBox="0 0 56 40" fill="none" xmlns="http://www.w3.org/2000/svg">
<path d="M27.7589 17.9718C29.5302 17.9718 31.2618 17.4465 32.7345 16.4624C34.2073 15.4783 35.3552 14.0795 36.0329 12.443C36.7107 10.8065 36.888 9.0057 36.5423 7.26844C36.1966 5.53118 35.3435 3.93546 34.0908 2.68307C32.8382 1.43069 31.2423 0.577894 29.5049 0.232546C27.7676 -0.112802 25.9669 0.0648065 24.3305 0.74291C22.6941 1.42101 21.2956 2.56915 20.3117 4.04213C19.3279 5.5151 18.803 7.24674 18.8033 9.01806C18.8062 11.3922 19.7507 13.6682 21.4297 15.3468C23.1086 17.0254 25.3848 17.9694 27.7589 17.9718ZM27.7589 3.6875C28.8132 3.6875 29.8438 4.00013 30.7204 4.58586C31.597 5.17159 32.2803 6.00411 32.6837 6.97815C33.0872 7.95218 33.1927 9.02398 32.9871 10.058C32.7814 11.092 32.2737 12.0418 31.5282 12.7873C30.7827 13.5328 29.8329 14.0405 28.7989 14.2462C27.7648 14.4519 26.693 14.3463 25.719 13.9429C24.745 13.5394 23.9124 12.8562 23.3267 11.9796C22.741 11.103 22.4283 10.0723 22.4283 9.01806C22.4303 7.6049 22.9925 6.25016 23.9918 5.25091C24.991 4.25165 26.3457 3.68942 27.7589 3.6875Z" fill="#333333"/>
<path d="M10.841 23.2353C12.2032 23.2353 13.5348 22.8314 14.6675 22.0746C15.8001 21.3178 16.6829 20.2421 17.2042 18.9835C17.7255 17.725 17.8619 16.3402 17.5961 15.0041C17.3304 13.6681 16.6744 12.4409 15.7112 11.4776C14.748 10.5144 13.5207 9.85841 12.1847 9.59266C10.8486 9.3269 9.46378 9.4633 8.20526 9.98459C6.94673 10.5059 5.87105 11.3887 5.11424 12.5213C4.35744 13.654 3.95349 14.9856 3.95349 16.3478C3.95349 18.1745 4.67914 19.9264 5.97079 21.218C7.26245 22.5097 9.01431 23.2353 10.841 23.2353ZM10.841 13.0853C11.4863 13.0853 12.117 13.2767 12.6535 13.6351C13.1901 13.9936 13.6082 14.5032 13.8551 15.0993C14.1021 15.6955 14.1667 16.3514 14.0408 16.9843C13.9149 17.6172 13.6042 18.1985 13.1479 18.6548C12.6917 19.111 12.1103 19.4217 11.4775 19.5476C10.8446 19.6735 10.1886 19.6089 9.59249 19.362C8.99634 19.115 8.48681 18.6969 8.12832 18.1604C7.76983 17.6238 7.57849 16.9931 7.57849 16.3478C7.57849 15.4825 7.92222 14.6527 8.53405 14.0409C9.14589 13.429 9.97572 13.0853 10.841 13.0853Z" fill="#333333"/>
<path d="M44.675 23.2353C46.0372 23.2353 47.3688 22.8314 48.5015 22.0746C49.6341 21.3178 50.5169 20.2421 51.0382 18.9835C51.5595 17.725 51.6959 16.3402 51.4301 15.0041C51.1644 13.6681 50.5084 12.4409 49.5452 11.4776C48.5819 10.5144 47.3547 9.85841 46.0187 9.59266C44.6826 9.3269 43.2978 9.4633 42.0392 9.98459C40.7807 10.5059 39.705 11.3887 38.9482 12.5213C38.1914 13.654 37.7875 14.9856 37.7875 16.3478C37.7875 18.1745 38.5131 19.9264 39.8048 21.218C41.0964 22.5097 42.8483 23.2353 44.675 23.2353ZM44.675 13.0853C45.3202 13.0853 45.951 13.2767 46.4875 13.6351C47.024 13.9936 47.4422 14.5032 47.6891 15.0993C47.9361 15.6955 48.0007 16.3514 47.8748 16.9843C47.7489 17.6172 47.4382 18.1985 46.9819 18.6548C46.5256 19.111 45.9443 19.4217 45.3115 19.5476C44.6786 19.6735 44.0226 19.6089 43.4265 19.362C42.8303 19.115 42.3208 18.6969 41.9623 18.1604C41.6038 17.6238 41.4125 16.9931 41.4125 16.3478C41.4125 15.4825 41.7562 14.6527 42.368 14.0409C42.9799 13.429 43.8097 13.0853 44.675 13.0853Z" fill="#333333"/>
<path d="M44.9161 26.8712C43.3271 26.8817 41.7659 27.2885 40.3739 28.0548C39.0506 25.9597 37.2265 24.227 35.0663 23.0128C32.9061 21.7987 30.4777 21.1414 28 21.1002C25.5223 21.1414 23.0939 21.7987 20.9336 23.0128C18.7734 24.227 16.9494 25.9597 15.626 28.0548C14.234 27.2885 12.6728 26.8817 11.0839 26.8712C8.23267 27.0103 5.55225 28.2718 3.62784 30.3803C1.70343 32.4888 0.691324 35.2729 0.812483 38.125C0.812483 38.6057 1.00344 39.0667 1.34335 39.4066C1.68326 39.7465 2.14428 39.9375 2.62498 39.9375C3.10569 39.9375 3.56671 39.7465 3.90661 39.4066C4.24652 39.0667 4.43748 38.6057 4.43748 38.125C4.31869 36.2347 4.94981 34.3737 6.194 32.9456C7.43818 31.5176 9.19515 30.6375 11.0839 30.4962C12.0855 30.5039 13.0689 30.7652 13.9422 31.2556C13.088 33.4084 12.6507 35.7038 12.6535 38.0199C12.6535 38.5006 12.8445 38.9616 13.1844 39.3015C13.5243 39.6414 13.9853 39.8324 14.466 39.8324C14.9468 39.8324 15.4078 39.6414 15.7477 39.3015C16.0876 38.9616 16.2785 38.5006 16.2785 38.0199C16.2785 30.6883 21.5348 24.7252 28 24.7252C34.4652 24.7252 39.7214 30.6883 39.7214 38.0199C39.7214 38.5006 39.9124 38.9616 40.2523 39.3015C40.5922 39.6414 41.0532 39.8324 41.5339 39.8324C42.0146 39.8324 42.4756 39.6414 42.8156 39.3015C43.1555 38.9616 43.3464 38.5006 43.3464 38.0199C43.3493 35.7038 42.912 33.4084 42.0577 31.2556C42.9311 30.7652 43.9144 30.5039 44.9161 30.4962C46.8048 30.6375 48.5618 31.5176 49.806 32.9456C51.0502 34.3737 51.6813 36.2347 51.5625 38.125C51.5625 38.6057 51.7534 39.0667 52.0934 39.4066C52.4333 39.7465 52.8943 39.9375 53.375 39.9375C53.8557 39.9375 54.3167 39.7465 54.6566 39.4066C54.9965 39.0667 55.1875 38.6057 55.1875 38.125C55.3087 35.2729 54.2965 32.4888 52.3721 30.3803C50.4477 28.2718 47.7673 27.0103 44.9161 26.8712Z" fill="#333333"/>
</svg>
