<svg width="60" height="46" viewBox="0 0 60 46" fill="none" xmlns="http://www.w3.org/2000/svg">
<path d="M57.5421 6.12049H54.7276V3.78172C54.7276 1.92754 53.2192 0.41906 51.3651 0.41906H48.6827C46.8286 0.41906 45.3202 1.92754 45.3202 3.78172V13.4094H40.8252V10.8246C40.8252 8.94866 39.2991 7.42262 37.4232 7.42262C36.6861 7.42262 36.0039 7.65906 35.4464 8.05899C34.8984 6.91367 33.7281 6.12049 32.3758 6.12049C31.0975 6.12049 29.9818 6.82923 29.4007 7.87443C28.8264 7.43164 28.108 7.16686 27.3283 7.16686C26.1451 7.16686 25.102 7.77477 24.4924 8.69407C23.8972 8.18348 23.1247 7.87408 22.281 7.87408C20.405 7.87408 18.879 9.40012 18.879 11.2761V13.4097H14.6801V10.9303C14.6801 10.4451 14.2869 10.0519 13.8018 10.0519C13.3168 10.0519 12.9235 10.4451 12.9235 10.9303V31.3343C12.9235 32.2199 12.2031 32.9402 11.3176 32.9402H8.63488C7.74931 32.9402 7.02897 32.2199 7.02897 31.3343V3.78172C7.02897 2.89614 7.74943 2.17569 8.63488 2.17569H11.3173C12.2028 2.17569 12.9232 2.89614 12.9232 3.78172V7.187C12.9232 7.67218 13.3164 8.06531 13.8015 8.06531C14.2865 8.06531 14.6798 7.67218 14.6798 7.187V3.78172C14.6798 1.92754 13.1713 0.41906 11.3173 0.41906H8.63488C6.7807 0.41906 5.27235 1.92754 5.27235 3.78172V6.12049H2.45788C1.10258 6.12049 0 7.22307 0 8.57825V26.5376C0 27.8929 1.10258 28.9954 2.45788 28.9954H5.27235V31.3342C5.27235 33.1883 6.78082 34.6968 8.63488 34.6968H11.3173C13.1714 34.6968 14.6798 33.1883 14.6798 31.3342V21.7065H17.6897V23.3103C17.6897 24.1345 17.978 24.939 18.5018 25.5757L21.2294 28.892V44.7025C21.2294 45.1877 21.6227 45.5808 22.1078 45.5808C22.5928 45.5808 22.9861 45.1877 22.9861 44.7025V28.5772C22.9861 28.3737 22.9153 28.1765 22.7861 28.0192L19.8583 24.4597C19.5926 24.1367 19.4462 23.7285 19.4462 23.3103V21.7065L36.0567 21.808C36.5417 21.808 36.935 21.4149 36.935 20.9297C36.935 20.4445 36.5417 20.0514 36.0567 20.0514H32.0603C31.2359 20.0514 30.5651 19.3806 30.5651 18.5563C30.5651 17.7318 31.2359 17.061 32.0603 17.061H39.6123C40.1312 17.061 40.5534 17.4831 40.5534 18.002V23.3102C40.5534 23.7284 40.407 24.1367 40.1413 24.4596L37.2136 28.0191C37.0843 28.1764 37.0136 28.3735 37.0136 28.5771V30.8937C37.0136 31.3788 37.4068 31.772 37.8919 31.772C38.3769 31.772 38.7702 31.3788 38.7702 30.8937V28.8919L41.4979 25.5756C42.0215 24.9389 42.3099 24.1344 42.3099 23.3102V21.7064H45.3198V31.3341C45.3198 33.1882 46.8283 34.6966 48.6824 34.6966H51.3648C53.2189 34.6966 54.7273 33.1882 54.7273 31.3341V28.9953H57.5418C58.8971 28.9953 59.9996 27.8927 59.9996 26.5374V8.57825C60 7.22307 58.8974 6.12049 57.5421 6.12049ZM2.45788 27.2388C2.07118 27.2388 1.75663 26.9241 1.75663 26.5376V8.57825C1.75663 8.19156 2.07118 7.87712 2.45788 7.87712H5.27235V27.2388H2.45788ZM37.4231 9.17925C38.3305 9.17925 39.0685 9.91739 39.0685 10.8246V14.0947C39.0685 14.5584 38.8717 14.9948 38.535 15.3045H36.311C35.9743 14.9948 35.7776 14.5584 35.7776 14.0947V10.8246C35.7776 9.91739 36.5157 9.17925 37.4231 9.17925ZM30.7302 9.5225C30.7302 8.61526 31.4684 7.87712 32.3756 7.87712C33.2828 7.87712 34.021 8.61526 34.021 9.5225V14.0947C34.021 14.5584 33.8242 14.9948 33.4875 15.3045H32.0605C31.818 15.3045 31.582 15.332 31.3545 15.3826C30.9635 15.0739 30.7301 14.6041 30.7301 14.0947V9.5225H30.7302ZM25.6827 10.5687C25.6827 9.66151 26.4209 8.92337 27.3281 8.92337C28.2353 8.92337 28.9736 9.66151 28.9736 10.5687V14.0945C28.9736 15.0019 28.2355 15.74 27.3281 15.74C26.4207 15.74 25.6827 15.0019 25.6827 14.0945V10.5687ZM20.6352 11.276C20.6352 10.3687 21.3734 9.63059 22.2806 9.63059C23.1878 9.63059 23.926 10.3687 23.926 11.276V14.0947C23.926 15.002 23.1878 15.7401 22.2806 15.7401C21.3734 15.7401 20.6352 15.002 20.6352 14.0947V11.276ZM14.6799 15.1661H19.0525C19.5026 16.5184 20.7792 17.4967 22.2807 17.4967C23.2811 17.4967 24.1819 17.0624 24.8049 16.3729C25.4279 17.0623 26.328 17.4967 27.3282 17.4967C28.0528 17.4967 28.7235 17.2668 29.2757 16.8791C28.9796 17.3691 28.8088 17.9431 28.8088 18.5563C28.8088 19.0547 28.9218 19.5272 29.1231 19.9497H14.6799V15.1661ZM42.3103 19.9499V18.0021C42.3103 16.8385 41.5697 15.8447 40.5351 15.467C40.5785 15.3688 40.617 15.2683 40.651 15.1661H45.3202V19.9499H42.3103ZM58.2434 26.5376C58.2434 26.9243 57.9288 27.2388 57.5421 27.2388H54.7276V24.7006C54.7276 24.2154 54.3344 23.8223 53.8493 23.8223C53.3643 23.8223 52.971 24.2154 52.971 24.7006V31.3342C52.971 32.2198 52.2506 32.9401 51.3651 32.9401H48.6827C47.7972 32.9401 47.0768 32.2198 47.0768 31.3342V3.78172C47.0768 2.89614 47.7973 2.17569 48.6827 2.17569H51.3651C52.2507 2.17569 52.971 2.89614 52.971 3.78172V20.9575C52.971 21.4426 53.3643 21.8358 53.8493 21.8358C54.3344 21.8358 54.7276 21.4426 54.7276 20.9575V7.87712H57.5421C57.9288 7.87712 58.2434 8.19168 58.2434 8.57825V26.5376Z" fill="white"/>
<path d="M37.8921 33.7585C37.407 33.7585 37.0138 34.1516 37.0138 34.6368V44.7024C37.0138 45.1876 37.407 45.5807 37.8921 45.5807C38.3772 45.5807 38.7704 45.1876 38.7704 44.7024V34.6368C38.7704 34.1516 38.3773 33.7585 37.8921 33.7585Z" fill="white"/>
</svg>
