<svg width="24" height="25" viewBox="0 0 24 25" fill="none" xmlns="http://www.w3.org/2000/svg">
<path fill-rule="evenodd" clip-rule="evenodd" d="M12 4.1657C10.5661 4.1657 9.16441 4.59131 7.97216 5.38871C6.77991 6.18611 5.85066 7.31948 5.30191 8.64551C4.75317 9.97154 4.60957 11.4307 4.88928 12.8384C5.16899 14.2461 5.85942 15.5391 6.87327 16.5541C6.8733 16.5541 6.87325 16.554 6.87327 16.5541L11.1173 20.8012C11.2332 20.9173 11.3711 21.0098 11.5226 21.0726C11.6741 21.1355 11.8365 21.1678 12.0005 21.1678C12.1645 21.1678 12.3269 21.1355 12.4784 21.0726C12.6299 21.0098 12.7675 20.9176 12.8834 20.8015L17.1267 16.5541C18.1406 15.5392 18.831 14.2461 19.1107 12.8384C19.3904 11.4307 19.2468 9.97154 18.6981 8.64551C18.1493 7.31948 17.2201 6.18611 16.0278 5.38871C14.8356 4.59131 13.4339 4.1657 12 4.1657ZM18.1873 17.6158C19.411 16.3909 20.2443 14.8303 20.5819 13.1313C20.9195 11.4323 20.7462 9.67129 20.0839 8.07091C19.4216 6.47053 18.3001 5.10267 16.8612 4.14029C15.4223 3.17791 13.7306 2.66425 12 2.66425C10.2694 2.66425 8.57773 3.17791 7.13881 4.14029C5.69989 5.10267 4.57838 6.47053 3.9161 8.07091C3.25382 9.67129 3.08052 11.4323 3.4181 13.1313C3.75568 14.8303 4.589 16.3909 5.81266 17.6158L10.0564 21.8627C10.3116 22.1184 10.6147 22.3212 10.9483 22.4596C11.2818 22.598 11.6394 22.6693 12.0005 22.6693C12.3616 22.6693 12.7192 22.598 13.0527 22.4596C13.3862 22.3213 13.6892 22.1185 13.9443 21.8629C13.9442 21.863 13.9444 21.8628 13.9443 21.8629L18.1873 17.6158Z" fill="white"/>
<path fill-rule="evenodd" clip-rule="evenodd" d="M12.0005 9.17028C11.4038 9.17028 10.8315 9.40756 10.4095 9.82993C9.98754 10.2523 9.75049 10.8252 9.75049 11.4225C9.75049 12.0198 9.98754 12.5926 10.4095 13.015C10.8315 13.4374 11.4038 13.6747 12.0005 13.6747C12.5972 13.6747 13.1695 13.4374 13.5915 13.015C14.0134 12.5926 14.2505 12.0198 14.2505 11.4225C14.2505 10.8252 14.0134 10.2523 13.5915 9.82993C13.1695 9.40756 12.5972 9.17028 12.0005 9.17028ZM9.34884 8.76824C10.0521 8.06429 11.0059 7.66882 12.0005 7.66882C12.995 7.66882 13.9489 8.06429 14.6521 8.76824C15.3554 9.47219 15.7505 10.4269 15.7505 11.4225C15.7505 12.418 15.3554 13.3728 14.6521 14.0767C13.9489 14.7806 12.995 15.1761 12.0005 15.1761C11.0059 15.1761 10.0521 14.7806 9.34884 14.0767C8.64558 13.3728 8.25049 12.418 8.25049 11.4225C8.25049 10.4269 8.64558 9.47219 9.34884 8.76824Z" fill="white"/>
</svg>
