<svg width="16" height="16" viewBox="0 0 16 16" fill="none" xmlns="http://www.w3.org/2000/svg">
<path d="M8 11.5666C8.60015 11.5666 9.08666 11.0801 9.08666 10.48C9.08666 9.87983 8.60015 9.39331 8 9.39331C7.39985 9.39331 6.91333 9.87983 6.91333 10.48C6.91333 11.0801 7.39985 11.5666 8 11.5666Z" fill="white"/>
<path d="M12.1866 6.35337V5.52004C12.1866 3.72004 11.7533 1.33337 7.99992 1.33337C4.24659 1.33337 3.81325 3.72004 3.81325 5.52004V6.35337C1.94659 6.58671 1.33325 7.53337 1.33325 9.86004V11.1C1.33325 13.8334 2.16659 14.6667 4.89992 14.6667H11.0999C13.8333 14.6667 14.6666 13.8334 14.6666 11.1V9.86004C14.6666 7.53337 14.0533 6.58671 12.1866 6.35337ZM7.99992 12.4934C6.88659 12.4934 5.98659 11.5867 5.98659 10.48C5.98659 9.36671 6.89325 8.46671 7.99992 8.46671C9.10659 8.46671 10.0133 9.37337 10.0133 10.48C10.0133 11.5934 9.11325 12.4934 7.99992 12.4934ZM4.89992 6.29337C4.84659 6.29337 4.79992 6.29337 4.74659 6.29337V5.52004C4.74659 3.56671 5.29992 2.26671 7.99992 2.26671C10.6999 2.26671 11.2533 3.56671 11.2533 5.52004V6.30004C11.1999 6.30004 11.1533 6.30004 11.0999 6.30004H4.89992V6.29337Z" fill="white"/>
</svg>
