<svg width="50" height="51" viewBox="0 0 50 51" fill="none" xmlns="http://www.w3.org/2000/svg">
<path fill-rule="evenodd" clip-rule="evenodd" d="M25 50.4533C11.3698 50.4533 0.320312 39.2966 0.320312 25.534C0.320312 11.7715 11.3698 0.614746 25 0.614746C38.6302 0.614746 49.6797 11.7715 49.6797 25.534C49.6797 39.2966 38.6302 50.4533 25 50.4533ZM31.8646 7.03223C29.7129 6.244 27.4412 5.8421 25.1523 5.84472C22.7666 5.84188 20.4003 6.27872 18.1698 7.13376C20.2846 9.42546 22.4256 11.6923 24.5923 13.934C24.8269 14.177 25.2145 14.1819 25.4549 13.9456C25.4549 13.9456 29.3543 10.1816 31.8649 7.03223H31.8646ZM31.8646 44.4527C29.3543 41.3033 25.4509 37.4799 25.4509 37.4799C25.3942 37.4237 25.3269 37.3794 25.2531 37.3496C25.1793 37.3198 25.1004 37.3051 25.0209 37.3062C24.9414 37.3074 24.8629 37.3245 24.79 37.3565C24.717 37.3884 24.6511 37.4347 24.596 37.4925C24.596 37.4925 21.4821 40.7551 18.1701 44.3512C20.4005 45.2062 22.7667 45.643 25.1523 45.6402C27.4412 45.6428 29.7129 45.2409 31.8646 44.4527ZM13.3938 9.69983C13.3938 9.69983 5.46588 15.1433 5.46588 25.5553C5.46588 35.9675 13.3938 42.0035 13.3938 42.0035L24.9994 29.7632L36.6921 41.543C36.6921 41.543 45.0372 34.964 45.0372 25.5251C45.0372 16.0859 36.5854 9.62661 36.5854 9.62661L28.7635 17.7238L32.8433 21.9807L36.8383 18.3874C36.8383 18.3874 38.9516 21.6968 38.9818 25.5104C39.0117 29.3239 36.9547 33.172 36.9547 33.172L25.0137 21.1932L13.5895 33.096C13.5895 33.096 11.2482 29.5242 11.2586 25.4042C11.2693 21.2839 13.3938 17.7235 13.3938 17.7235L17.2786 21.5654L21.8477 17.6863L13.3938 9.69983Z" fill="#308BC7"/>
</svg>
