<svg width="268" height="117" viewBox="0 0 268 117" fill="none" xmlns="http://www.w3.org/2000/svg">
<g clip-path="url(#clip0_95_375)">
<path d="M21.4706 117C21.4706 117 23.4392 95.8357 23.4392 87.2992L21.2927 97.0796L15.891 65.9048C15.891 65.9048 19.3242 106.86 21.4706 117Z" fill="#B2B2B2"/>
<path d="M47.5839 24.1594C47.5839 24.1594 41.1445 30.0253 33.6318 38.9215H7.33466C7.33466 38.9215 30.59 28.9642 47.5839 24.1594Z" fill="url(#paint0_linear_95_375)"/>
<path d="M27.4593 60.7992L33.6318 38.9214H7.33466L27.4593 60.7992Z" fill="url(#paint1_linear_95_375)"/>
<path d="M13.3235 50.895L21.6485 67.6733L23.4392 87.3698L21.2927 96.8437C21.2927 96.8437 16.5432 71.1693 13.3235 50.895Z" fill="url(#paint2_linear_95_375)"/>
<path d="M13.3235 50.895L25.4018 64.5311L23.4392 87.3698L21.6485 67.915L13.3235 50.895Z" fill="url(#paint3_linear_95_375)"/>
<path d="M50.1692 33.7747C50.1692 33.7747 27.323 52.1624 29.256 85.8192C29.256 85.8192 22.2414 51.6849 50.1692 33.7747Z" fill="white"/>
<path d="M17.5275 93.389L10.6375 57.6924L27.4594 68.7404L8.34277 53.8486C8.34277 53.8486 15.9977 87.5998 17.5275 93.389Z" fill="white"/>
<path d="M14.3019 46.4911L0 40.2656C0 40.2656 48.7165 17.5506 64.0679 12.2625C64.0679 12.2625 40.86 35.8204 32.4579 43.0895L32.9204 41.4447L56.8161 17.3089L2.78092 40.1418L13.3235 45.424L14.3019 46.4911Z" fill="white"/>
<path d="M25.0757 16.289C25.0757 18.712 23.1012 20.6752 20.6641 20.6752C18.2271 20.6752 16.2526 18.712 16.2526 16.289C16.2526 13.866 18.2271 11.9028 20.6641 11.9028C23.1012 11.8969 25.0757 13.866 25.0757 16.289Z" fill="#B2B2B2"/>
<path d="M67.4536 0L66.1254 2.65882L62.7397 3.12456L65.0937 5.64779L64.0679 8.89615L67.4536 7.45178L71.0824 8.89615L69.8728 5.17026L72.4106 2.76494L68.9063 2.64703L67.4536 0Z" fill="url(#paint4_linear_95_375)"/>
<path d="M52.7722 99.8623C51.9777 100.021 51.2247 100.098 50.5072 100.098C48.9774 100.098 47.7678 99.6972 46.8843 98.8954C46.0008 98.0937 45.5561 96.9323 45.5561 95.4172V85.9491H43.884V82.0228H45.5561V78.3382L50.4538 76.4517V82.0287H52.5291V85.955H50.4538V94.2027C50.4538 95.1754 50.8511 95.6589 51.6456 95.6589C51.948 95.6589 52.3275 95.5881 52.7782 95.4525V99.8623H52.7722Z" fill="white"/>
<path d="M66.9911 99.9803H62.1645V98.8484C61.9807 99.1962 61.5597 99.491 60.9016 99.7327C60.2434 99.9744 59.5259 100.086 58.7492 100.069C57.421 100.051 56.2884 99.5617 55.3456 98.6126C54.2487 97.5101 53.7032 96.0599 53.7032 94.2559V82.0229H58.5713V93.5602C58.5713 94.2028 58.7492 94.7275 59.1109 95.1225C59.4726 95.5175 59.8876 95.7179 60.356 95.7179C61.3403 95.7179 61.9392 95.0105 62.1408 93.5897V82.0229H66.997V99.9803H66.9911Z" fill="white"/>
<path d="M81.4827 100.646C81.4827 102.639 80.7 104.16 79.1287 105.209C77.7827 106.123 76.081 106.577 74.0294 106.577C71.9363 106.577 70.1812 106.152 68.7581 105.298V100.528C70.1397 101.784 71.8118 102.415 73.7804 102.415C75.6778 102.415 76.6265 101.737 76.6265 100.375V98.9011C76.4605 99.2077 76.0988 99.4671 75.5414 99.6793C74.984 99.8916 74.3555 99.9977 73.6558 99.9977C72.1913 99.9977 70.9639 99.5319 69.9796 98.6005C68.77 97.4391 68.1711 95.6881 68.1711 93.3359V82.0049H73.0925V93.5127C73.0925 94.1376 73.2704 94.6506 73.6321 95.0573C73.9938 95.4641 74.4089 95.6646 74.8773 95.6646C75.8438 95.6646 76.4308 94.9571 76.6324 93.5363V81.999H81.4886V100.646H81.4827Z" fill="white"/>
<path d="M96.6206 92.3102H87.5901C87.5901 93.4304 87.9696 94.2911 88.7226 94.8983C89.3986 95.423 90.282 95.6883 91.379 95.6883C93.1934 95.6883 94.7173 95.1105 95.9447 93.9492V98.972C94.3378 99.7856 92.6301 100.192 90.8157 100.192C88.4558 100.192 86.5465 99.4731 85.0878 98.0347C83.3742 96.3073 82.5441 93.7369 82.5974 90.3058C82.6508 87.4996 83.4987 85.3065 85.1412 83.7206C86.505 82.4413 88.0644 81.7929 89.8136 81.7752C92.138 81.7575 93.8931 82.6359 95.0849 84.4222C96.1463 86.0081 96.674 88.154 96.674 90.86C96.6799 91.3375 96.6621 91.8268 96.6206 92.3102ZM92.0016 88.6846C91.9482 87.983 91.6992 87.4112 91.2663 86.9808C90.8335 86.5504 90.3235 86.3264 89.7306 86.3028C89.1673 86.3028 88.6692 86.521 88.2364 86.9631C87.8035 87.4053 87.5545 87.9771 87.4893 88.6787H92.0016V88.6846Z" fill="white"/>
<path d="M110.739 99.98H105.871V88.2658C105.871 87.6527 105.693 87.1634 105.343 86.8097C104.993 86.4501 104.584 86.2732 104.115 86.2732C103.119 86.2732 102.515 86.9394 102.301 88.2658V99.98H97.516V82.0226H102.301V83.184C102.473 82.8598 102.876 82.5768 103.499 82.341C104.121 82.111 104.809 81.999 105.568 82.0226C106.997 82.0816 108.159 82.5001 109.055 83.2724C110.181 84.2806 110.739 85.831 110.739 87.9239V99.98V99.98Z" fill="white"/>
<path d="M126.12 99.98H121.364L121.311 99.0013C120.665 99.7147 119.74 100.074 118.53 100.074C116.816 100.074 115.298 99.2312 113.982 97.5452C112.601 95.7824 111.901 93.6129 111.877 91.0366C111.859 88.3601 112.464 86.1729 113.686 84.481C114.913 82.7831 116.449 81.9401 118.305 81.9401C118.536 81.9401 118.749 81.9518 118.957 81.9695C119.823 82.0697 120.605 82.3586 121.305 82.8479V76.1685H126.12V99.98ZM121.305 92.428V89.5451C121.038 87.7706 120.303 86.8863 119.093 86.8863C117.546 86.8863 116.781 88.2717 116.799 91.0366C116.799 93.8134 117.564 95.187 119.093 95.1693C120.303 95.1457 121.038 94.2319 121.305 92.428Z" fill="white"/>
<path d="M140.594 99.9803H135.767V98.8484C135.583 99.1962 135.162 99.491 134.504 99.7327C133.846 99.9744 133.128 100.086 132.352 100.069C131.023 100.051 129.891 99.5617 128.948 98.6126C127.851 97.5101 127.3 96.0599 127.3 94.2559V82.0229H132.168V93.5602C132.168 94.2028 132.346 94.7275 132.707 95.1225C133.069 95.5175 133.478 95.7179 133.953 95.7179C134.937 95.7179 135.536 95.0105 135.737 93.5897V82.0229H140.594V99.9803Z" fill="white"/>
<path d="M154.99 99.98H150.122V88.2658C150.122 87.6527 149.944 87.1634 149.594 86.8097C149.245 86.4501 148.836 86.2732 148.361 86.2732C147.365 86.2732 146.76 86.9394 146.547 88.2658V99.98H141.762V82.0226H146.547V83.184C146.725 82.8598 147.122 82.5768 147.744 82.341C148.367 82.111 149.055 81.999 149.814 82.0226C151.243 82.0816 152.405 82.5001 153.3 83.2724C154.427 84.2806 154.984 85.831 154.984 87.9239V99.98H154.99Z" fill="white"/>
<path d="M170.395 99.1902C170.395 101.69 169.547 103.635 167.851 105.033C166.375 106.253 164.572 106.86 162.444 106.86C160.552 106.86 158.957 106.394 157.659 105.463V100.216C158.163 100.929 158.833 101.495 159.663 101.914C160.493 102.332 161.335 102.539 162.183 102.539C163.167 102.539 163.962 102.273 164.56 101.749C165.242 101.153 165.574 100.334 165.557 99.2786V98.9072C164.555 99.6795 163.517 100.069 162.444 100.069C160.422 100.069 158.821 99.0546 157.629 97.0207C156.603 95.2757 156.105 93.2594 156.123 90.972C156.141 88.2837 156.722 86.1024 157.866 84.4163C159.01 82.7303 160.487 81.8872 162.301 81.8872C162.539 81.8872 162.788 81.899 163.037 81.9344C164.205 82.0935 165.047 82.465 165.551 83.0486V82.0228H170.389V99.1902H170.395ZM165.557 92.4282V89.5453C165.29 87.7295 164.555 86.8217 163.345 86.8217C161.833 86.804 161.068 88.1717 161.05 90.9425C161.032 93.678 161.797 95.0457 163.345 95.0457C164.555 95.0457 165.29 94.1732 165.557 92.4282Z" fill="white"/>
<path d="M180.878 79.8238C180.446 79.6823 180.066 79.6174 179.746 79.6174C178.898 79.6174 178.471 80.095 178.471 81.0441V82.0228H180.226V85.8607H178.471V99.986H173.621V85.8607H171.587V82.0228H173.621V79.8533C173.621 78.3558 174.083 77.2121 175.02 76.4221C175.886 75.6498 177.095 75.2607 178.643 75.2607C179.343 75.2607 180.09 75.3374 180.884 75.4966V79.8238H180.878Z" fill="#E54100"/>
<path d="M187.045 78.3971C187.045 79.3109 186.808 80.0596 186.339 80.6491C185.871 81.2387 185.231 81.5334 184.418 81.5334C183.576 81.5334 182.924 81.2387 182.456 80.6491C181.987 80.0596 181.75 79.3109 181.75 78.3971C181.75 77.5069 181.987 76.7641 182.456 76.1745C182.924 75.585 183.576 75.2784 184.418 75.2607C185.231 75.2607 185.871 75.5614 186.339 76.1627C186.814 76.7582 187.045 77.501 187.045 78.3971ZM186.826 99.9801H181.969V82.0228H186.826V99.9801Z" fill="#E54100"/>
<path d="M197.06 99.8623C196.265 100.021 195.512 100.098 194.795 100.098C193.265 100.098 192.055 99.6972 191.172 98.8954C190.288 98.0937 189.844 96.9323 189.844 95.4172V85.9491H188.172V82.0228H189.844V78.3382L194.741 76.4517V82.0287H196.817V85.955H194.741V94.2027C194.741 95.1754 195.139 95.6589 195.927 95.6589C196.23 95.6589 196.609 95.5881 197.06 95.4525V99.8623Z" fill="#E54100"/>
<path d="M211.208 99.98H206.339V88.2658C206.339 87.6527 206.162 87.1634 205.812 86.8097C205.462 86.4501 205.053 86.2732 204.584 86.2732C203.588 86.2732 202.983 86.9394 202.77 88.2658V99.98H197.985V82.0226H202.77V83.184C202.942 82.8598 203.345 82.5768 203.968 82.341C204.59 82.111 205.278 81.999 206.031 82.0226C207.46 82.0816 208.622 82.5001 209.518 83.2724C210.644 84.2806 211.208 85.831 211.208 87.9239V99.98V99.98Z" fill="#E54100"/>
<path d="M226.363 92.3102H217.333C217.333 93.4304 217.712 94.2911 218.465 94.8983C219.135 95.423 220.025 95.6883 221.122 95.6883C222.936 95.6883 224.46 95.1105 225.687 93.9492V98.972C224.08 99.7856 222.373 100.192 220.558 100.192C218.198 100.192 216.289 99.4731 214.83 98.0347C213.117 96.3073 212.287 93.7369 212.34 90.3058C212.393 87.4996 213.241 85.3065 214.884 83.7206C216.248 82.4413 217.807 81.7929 219.556 81.7752C221.881 81.7575 223.636 82.6359 224.822 84.4222C225.883 86.0081 226.411 88.154 226.411 90.86C226.417 91.3375 226.399 91.8268 226.363 92.3102ZM221.738 88.6846C221.685 87.983 221.442 87.4112 221.003 86.9808C220.57 86.5504 220.06 86.3264 219.467 86.3028C218.904 86.3028 218.406 86.521 217.973 86.9631C217.54 87.4053 217.291 87.9771 217.226 88.6787H221.738V88.6846Z" fill="#E54100"/>
<path d="M236.941 86.9162C235.548 86.191 234.457 85.8904 233.662 86.0083C232.779 86.1498 232.334 86.586 232.334 87.3171C232.334 87.7415 232.56 88.1483 233.01 88.5374C233.627 89.0444 234.249 89.5514 234.878 90.0525C235.578 90.6892 236.117 91.2847 236.497 91.8506C236.947 92.5876 237.173 93.4247 237.173 94.3797C237.173 95.8477 236.681 97.1447 235.69 98.2766C234.576 99.5736 233.07 100.222 231.166 100.222C230.016 100.222 228.711 99.9804 227.253 99.4911V94.6922C227.614 95.0577 228.124 95.3761 228.782 95.6532C229.441 95.9243 230.063 96.0599 230.656 96.0599C231.142 96.0599 231.534 95.9479 231.818 95.718C232.216 95.4409 232.411 95.0695 232.411 94.6038C232.411 94.1086 232.192 93.6487 231.759 93.2184C231.113 92.7526 230.188 92.0157 228.978 91.0017C227.899 89.9995 227.359 88.7202 227.359 87.1638C227.359 86.2736 227.555 85.4187 227.952 84.6052C228.866 82.7894 230.52 81.8049 232.915 81.6457C234.196 81.5691 235.53 81.74 236.924 82.1645V86.9162H236.941Z" fill="#E54100"/>
<path d="M247.834 86.9162C246.441 86.191 245.349 85.8904 244.555 86.0083C243.671 86.1498 243.227 86.586 243.227 87.3171C243.227 87.7415 243.452 88.1483 243.903 88.5374C244.519 89.0444 245.142 89.5514 245.77 90.0525C246.47 90.6892 247.01 91.2847 247.389 91.8506C247.84 92.5876 248.065 93.4247 248.065 94.3797C248.065 95.8477 247.573 97.1447 246.583 98.2766C245.468 99.5736 243.962 100.222 242.065 100.222C240.908 100.222 239.61 99.9804 238.151 99.4911V94.6922C238.513 95.0577 239.023 95.3761 239.681 95.6532C240.339 95.9243 240.962 96.0599 241.555 96.0599C242.041 96.0599 242.432 95.9479 242.717 95.718C243.114 95.4409 243.31 95.0695 243.31 94.6038C243.31 94.1086 243.09 93.6487 242.658 93.2184C242.011 92.7526 241.086 92.0157 239.877 91.0017C238.797 89.9995 238.258 88.7202 238.258 87.1638C238.258 86.2736 238.454 85.4187 238.851 84.6052C239.764 82.7894 241.418 81.8049 243.814 81.6457C245.095 81.5691 246.435 81.74 247.822 82.1645V86.9162H247.834Z" fill="#E54100"/>
<path d="M251.783 99.98H249.049V96.8613H251.783V99.98Z" fill="#B2B2B2"/>
<path d="M260.001 89.7222L257.677 99.9802H254.084L251.753 89.7222H254.7L255.88 96.3958L257.078 89.7222H260.001Z" fill="#B2B2B2"/>
<path d="M268 99.9802H265.219V93.2889C265.219 92.9352 265.118 92.6581 264.917 92.4576C264.715 92.2513 264.484 92.1511 264.211 92.1511C263.642 92.1511 263.298 92.5284 263.173 93.2889V99.9802H260.44V89.7222H263.173V90.3825C263.274 90.1938 263.5 90.0346 263.855 89.9049C264.211 89.7693 264.602 89.7104 265.035 89.7222C265.854 89.7575 266.518 89.9934 267.028 90.4355C267.674 91.0133 267.994 91.8976 267.994 93.0943V99.9802H268Z" fill="#B2B2B2"/>
<path d="M47.9101 110.757H49.351L53.0213 117H51.3492L50.6021 115.632H46.5404L45.7814 117H44.2991L47.9101 110.757ZM49.8728 114.306L48.5861 111.971L47.2816 114.306H49.8728Z" fill="white"/>
<path d="M57.5633 110.757H59.1405L60.7237 114.86L62.3839 110.757H63.4987L65.1945 114.86L66.7125 110.757H68.0762L65.6333 117H64.5956L62.8405 112.685L61.0557 117H60.0299L57.5633 110.757Z" fill="white"/>
<path d="M76.2411 110.757H77.676L81.3464 117H79.6743L78.9272 115.632H74.8655L74.1065 117H72.6241L76.2411 110.757ZM78.2038 114.306L76.9171 111.971L75.6126 114.306H78.2038Z" fill="white"/>
<path d="M86.7896 110.757H88.2779V113.357L91.8415 110.757H93.9998L89.7959 113.734L94.5216 117H92.1202L88.2779 114.259V117H86.7896V110.757V110.757Z" fill="white"/>
<path d="M99.9531 110.757H106.499V112.154H101.435V113.091H104.394V114.412H101.435V115.621H106.564V117.006H99.9531V110.757Z" fill="white"/>
<path d="M112.832 110.757H113.994L119.17 115.007V110.757H120.653V117H119.491L114.314 112.755V117H112.832V110.757Z" fill="white"/>
<path d="M136.911 114.212L133.579 110.757H135.595L137.753 113.127L139.93 110.757H141.708L138.394 114.176V117H136.905V114.212H136.911Z" fill="white"/>
<path d="M154.629 115.626C154.629 115.88 154.605 116.098 154.557 116.275C154.51 116.452 154.427 116.593 154.32 116.699C154.208 116.805 154.065 116.888 153.887 116.935C153.71 116.982 153.484 117.006 153.223 117.006H148.42C148.16 117.006 147.94 116.982 147.762 116.935C147.584 116.888 147.442 116.811 147.329 116.699C147.217 116.593 147.14 116.452 147.092 116.275C147.045 116.098 147.021 115.886 147.021 115.626V112.136C147.021 111.629 147.122 111.276 147.329 111.069C147.537 110.863 147.899 110.763 148.42 110.763H153.223C153.484 110.763 153.704 110.786 153.887 110.839C154.065 110.886 154.214 110.969 154.32 111.069C154.433 111.175 154.51 111.317 154.557 111.494C154.605 111.671 154.629 111.889 154.629 112.136V115.626ZM153.146 115.615V112.148H148.509V115.615H153.146Z" fill="white"/>
<path d="M162.444 115.615H166.689V110.757H168.172V115.626C168.172 115.88 168.148 116.098 168.1 116.275C168.053 116.452 167.97 116.593 167.863 116.699C167.751 116.806 167.608 116.888 167.43 116.935C167.252 116.982 167.033 117.006 166.778 117.006H162.373C162.112 117.006 161.886 116.982 161.708 116.935C161.531 116.888 161.388 116.811 161.276 116.699C161.169 116.593 161.086 116.452 161.038 116.275C160.991 116.098 160.961 115.886 160.961 115.626V110.757H162.444V115.615Z" fill="white"/>
<path d="M174.652 117V110.757H180.143C180.386 110.757 180.576 110.769 180.712 110.792C180.849 110.816 180.979 110.863 181.104 110.934C181.288 111.034 181.412 111.17 181.477 111.346C181.543 111.517 181.578 111.783 181.578 112.13V113.274C181.578 113.486 181.572 113.651 181.554 113.763C181.537 113.876 181.501 113.988 181.454 114.094C181.365 114.294 181.216 114.436 181.021 114.518C180.825 114.601 180.529 114.642 180.149 114.642H179.384L182.248 117H180.108L177.475 114.642H176.141V117H174.652V117ZM179.461 113.321C179.687 113.321 179.847 113.286 179.942 113.215C180.036 113.144 180.084 113.027 180.084 112.867V112.602C180.084 112.437 180.036 112.325 179.942 112.254C179.847 112.184 179.687 112.154 179.461 112.154H176.141V113.321H179.461Z" fill="white"/>
<path d="M199.212 117H197.718V112.154H194.777V110.757H202.147V112.154H199.212V117V117Z" fill="white"/>
<path d="M210.514 110.757H211.949L215.619 117H213.947L213.2 115.632H209.138L208.379 117H206.897L210.514 110.757ZM212.471 114.306L211.184 111.971L209.879 114.306H212.471Z" fill="white"/>
<path d="M221.056 110.757H222.539V115.615H227.336V117H221.051V110.757H221.056Z" fill="white"/>
<path d="M233.164 110.757H239.711V112.154H234.647V113.091H237.606V114.412H234.647V115.621H239.776V117.006H233.164V110.757Z" fill="white"/>
<path d="M246.043 110.757H247.205L252.382 115.007V110.757H253.864V117H252.702L247.531 112.755V117H246.043V110.757Z" fill="white"/>
<path d="M264.122 117H262.628V112.154H259.693V110.757H267.063V112.154H264.122V117V117Z" fill="white"/>
<g opacity="0.15">
<path opacity="0.15" d="M52.7426 99.8325C51.948 99.9917 51.195 100.068 50.4716 100.068C48.9418 100.068 47.7322 99.6674 46.8487 98.8656C45.9652 98.0639 45.5205 96.9025 45.5205 95.3874V85.9194H43.8484V81.993H45.5205V78.3084L50.4182 76.4219V81.993H52.4936V85.9194H50.4182V94.1729C50.4182 95.1457 50.8155 95.6291 51.6101 95.6291C51.9125 95.6291 52.292 95.5583 52.7426 95.4227V99.8325V99.8325Z" fill="black"/>
<path opacity="0.15" d="M66.9555 99.9505H62.129V98.8186C61.9451 99.1664 61.5242 99.4612 60.866 99.7029C60.2078 99.9446 59.4903 100.057 58.7136 100.039C57.3854 100.021 56.2529 99.532 55.3101 98.5828C54.2131 97.4804 53.6676 96.0301 53.6676 94.2261V81.9932H58.5357V93.5304C58.5357 94.173 58.7136 94.6977 59.0753 95.0927C59.437 95.4877 59.852 95.6882 60.3205 95.6882C61.3048 95.6882 61.9036 94.9807 62.1052 93.5599V81.9932H66.9615V99.9505H66.9555Z" fill="black"/>
<path opacity="0.15" d="M81.4827 100.646C81.4827 102.639 80.7 104.16 79.1287 105.209C77.7827 106.123 76.081 106.577 74.0294 106.577C71.9363 106.577 70.1812 106.152 68.7581 105.298V100.528C70.1397 101.784 71.8118 102.415 73.7804 102.415C75.6778 102.415 76.6265 101.737 76.6265 100.375V98.901C76.4605 99.2076 76.0988 99.467 75.5414 99.6851C74.984 99.8974 74.3555 100.003 73.6558 100.003C72.1913 100.003 70.9639 99.5378 69.9796 98.6063C68.77 97.4449 68.1711 95.694 68.1711 93.3417V82.0107H73.0925V93.5186C73.0925 94.1435 73.2704 94.6623 73.6321 95.0631C73.9938 95.4699 74.4089 95.6704 74.8773 95.6704C75.8438 95.6704 76.4308 94.9629 76.6324 93.548V82.0107H81.4886V100.646H81.4827Z" fill="black"/>
<path opacity="0.15" d="M96.591 92.2804H87.5604C87.5604 93.4006 87.9399 94.2613 88.6929 94.8685C89.3689 95.3932 90.2524 95.6585 91.3493 95.6585C93.1637 95.6585 94.6876 95.0808 95.9091 93.9194V98.9422C94.3081 99.7558 92.5945 100.163 90.7801 100.163C88.4202 100.163 86.5109 99.4434 85.0522 98.0049C83.3386 96.2775 82.5085 93.7012 82.5619 90.276C82.6152 87.4698 83.4631 85.2767 85.1056 83.6909C86.4694 82.4116 88.0288 81.7631 89.778 81.7454C92.1024 81.7277 93.8575 82.6061 95.0493 84.3924C96.1107 85.9783 96.6384 88.1242 96.6384 90.8302C96.6443 91.3077 96.6266 91.7911 96.591 92.2804ZM91.9719 88.6489C91.9186 87.9473 91.6754 87.3755 91.2367 86.9451C90.8038 86.5147 90.2939 86.2848 89.7009 86.2671C89.1376 86.2671 88.6396 86.4853 88.2067 86.9274C87.7739 87.3696 87.5248 87.9414 87.4596 88.643H91.9719V88.6489Z" fill="black"/>
<path opacity="0.15" d="M110.709 99.9502H105.841V88.2361C105.841 87.6229 105.663 87.1336 105.313 86.7799C104.963 86.4203 104.554 86.2434 104.086 86.2434C103.09 86.2434 102.485 86.9096 102.277 88.2361V99.9502H97.4922V81.9928H102.277V83.1542C102.449 82.83 102.852 82.547 103.475 82.3112C104.098 82.0813 104.785 81.9693 105.544 81.9928C106.973 82.0518 108.136 82.4704 109.031 83.2427C110.152 84.2567 110.715 85.8072 110.715 87.8941V99.9502H110.709Z" fill="black"/>
<path opacity="0.15" d="M126.084 99.9506H121.329L121.275 98.972C120.629 99.6853 119.704 100.045 118.494 100.045C116.781 100.045 115.263 99.2019 113.947 97.5158C112.565 95.7531 111.865 93.5836 111.842 91.0073C111.824 88.3308 112.429 86.1436 113.65 84.4516C114.877 82.7538 116.419 81.9107 118.269 81.9107C118.5 81.9107 118.714 81.9225 118.921 81.9402C119.787 82.0404 120.57 82.3293 121.269 82.8186V76.145H126.084V99.9506ZM121.275 92.3986V89.5158C121.009 87.7413 120.273 86.8511 119.064 86.8511C117.516 86.8511 116.751 88.2365 116.769 91.0014C116.769 93.7781 117.534 95.1518 119.064 95.1341C120.267 95.1105 121.009 94.2026 121.275 92.3986Z" fill="black"/>
<path opacity="0.15" d="M140.564 99.9505H135.737V98.8186C135.554 99.1664 135.133 99.4612 134.474 99.7029C133.81 99.9446 133.099 100.057 132.322 100.039C130.994 100.021 129.861 99.532 128.918 98.5828C127.822 97.4804 127.27 96.0301 127.27 94.2261V81.9932H132.138V93.5304C132.138 94.173 132.316 94.6977 132.678 95.0927C133.039 95.4877 133.449 95.6882 133.923 95.6882C134.907 95.6882 135.506 94.9807 135.708 93.5599V81.9932H140.564V99.9505Z" fill="black"/>
<path opacity="0.15" d="M154.961 99.9502H150.093V88.2361C150.093 87.6229 149.915 87.1336 149.565 86.7799C149.215 86.4203 148.806 86.2434 148.337 86.2434C147.341 86.2434 146.737 86.9096 146.523 88.2361V99.9502H141.738V81.9928H146.523V83.1542C146.701 82.83 147.098 82.547 147.721 82.3112C148.343 82.0813 149.031 81.9693 149.784 81.9928C151.213 82.0518 152.375 82.4704 153.271 83.2427C154.397 84.2567 154.961 85.8072 154.961 87.8941V99.9502V99.9502Z" fill="black"/>
<path opacity="0.15" d="M170.365 99.1605C170.365 101.66 169.517 103.606 167.822 105.003C166.345 106.223 164.543 106.83 162.414 106.83C160.522 106.83 158.927 106.365 157.629 105.433V100.186C158.133 100.9 158.803 101.466 159.633 101.884C160.463 102.303 161.299 102.509 162.147 102.509C163.131 102.509 163.926 102.244 164.525 101.719C165.207 101.124 165.539 100.304 165.521 99.2489V98.8775C164.519 99.6498 163.481 100.033 162.414 100.033C160.392 100.033 158.791 99.019 157.599 96.9851C156.573 95.24 156.075 93.2238 156.093 90.9364C156.111 88.2481 156.692 86.0668 157.836 84.3807C158.981 82.6946 160.457 81.8516 162.272 81.8516C162.509 81.8516 162.758 81.8692 163.007 81.8987C164.175 82.0579 165.017 82.4293 165.521 83.013V81.9872H170.359V99.1605H170.365ZM165.527 92.3984V89.5156C165.26 87.6998 164.525 86.7919 163.315 86.7919C161.803 86.7742 161.038 88.142 161.021 90.9128C161.003 93.6483 161.768 95.016 163.315 95.016C164.519 95.0101 165.26 94.1435 165.527 92.3984Z" fill="black"/>
<path opacity="0.15" d="M180.849 79.7882C180.416 79.6467 180.036 79.5818 179.716 79.5818C178.868 79.5818 178.441 80.0594 178.441 81.0085V81.9872H180.197V85.8192H178.441V99.9445H173.591V85.8192H171.557V81.9872H173.591V79.8176C173.591 78.3202 174.054 77.1765 174.99 76.3806C175.856 75.6083 177.066 75.2192 178.613 75.2192C179.313 75.2192 180.06 75.3018 180.855 75.4551V79.7882H180.849Z" fill="white"/>
<path opacity="0.15" d="M187.015 78.3614C187.015 79.2752 186.778 80.024 186.31 80.6135C185.841 81.203 185.201 81.4978 184.389 81.4978C183.547 81.4978 182.894 81.203 182.426 80.6135C181.958 80.024 181.72 79.2693 181.72 78.3614C181.72 77.4712 181.958 76.7284 182.426 76.1389C182.894 75.5493 183.553 75.2428 184.389 75.2251C185.201 75.2251 185.841 75.5258 186.31 76.1271C186.778 76.7225 187.015 77.4712 187.015 78.3614ZM186.79 99.9504H181.94V81.993H186.79V99.9504Z" fill="white"/>
<path opacity="0.15" d="M197.024 99.8325C196.23 99.9917 195.477 100.068 194.759 100.068C193.229 100.068 192.02 99.6674 191.136 98.8656C190.253 98.0639 189.808 96.9025 189.808 95.3874V85.9194H188.136V81.993H189.808V78.3084L194.706 76.4219V81.993H196.781V85.9194H194.706V94.1729C194.706 95.1457 195.103 95.6291 195.898 95.6291C196.2 95.6291 196.58 95.5583 197.03 95.4227V99.8325H197.024Z" fill="white"/>
<path opacity="0.15" d="M211.172 99.9502H206.304V88.2361C206.304 87.6229 206.126 87.1336 205.776 86.7799C205.426 86.4203 205.017 86.2434 204.549 86.2434C203.553 86.2434 202.948 86.9096 202.74 88.2361V99.9502H197.955V81.9928H202.74V83.1542C202.912 82.83 203.316 82.547 203.938 82.3112C204.561 82.0813 205.249 81.9693 206.008 81.9928C207.436 82.0518 208.599 82.4704 209.494 83.2427C210.621 84.2567 211.184 85.8072 211.184 87.8941V99.9502H211.172Z" fill="white"/>
<path opacity="0.15" d="M226.328 92.2804H217.297C217.297 93.4006 217.677 94.2613 218.43 94.8685C219.106 95.3932 219.989 95.6585 221.086 95.6585C222.9 95.6585 224.424 95.0808 225.652 93.9194V98.9422C224.045 99.7558 222.337 100.163 220.523 100.163C218.163 100.163 216.253 99.4434 214.795 98.0049C213.081 96.2775 212.251 93.7012 212.304 90.276C212.358 87.4698 213.206 85.2767 214.848 83.6909C216.212 82.4116 217.771 81.7631 219.521 81.7454C221.845 81.7277 223.6 82.6061 224.786 84.3924C225.847 85.9783 226.375 88.1242 226.375 90.8302C226.387 91.3077 226.363 91.7911 226.328 92.2804ZM221.709 88.6489C221.655 87.9473 221.412 87.3755 220.973 86.9451C220.54 86.5147 220.031 86.2848 219.438 86.2671C218.874 86.2671 218.376 86.4853 217.943 86.9274C217.511 87.3696 217.261 87.9414 217.196 88.643H221.709V88.6489Z" fill="white"/>
<path opacity="0.15" d="M236.906 86.8805C235.512 86.1613 234.421 85.8547 233.627 85.9727C232.743 86.1141 232.299 86.5504 232.299 87.2814C232.299 87.7059 232.524 88.1127 232.975 88.5018C233.591 89.0088 234.214 89.5158 234.842 90.0169C235.542 90.6477 236.082 91.249 236.461 91.815C236.912 92.546 237.137 93.3891 237.137 94.3441C237.137 95.8121 236.645 97.1091 235.655 98.241C234.54 99.538 233.034 100.186 231.13 100.186C229.98 100.186 228.676 99.9447 227.217 99.4613V94.6566C227.579 95.0221 228.089 95.3463 228.747 95.6175C229.405 95.8887 230.028 96.0243 230.621 96.0243C231.107 96.0243 231.498 95.9123 231.783 95.6824C232.18 95.4053 232.376 95.0339 232.376 94.5681C232.376 94.0729 232.156 93.6131 231.723 93.1827C231.077 92.717 230.152 91.9801 228.943 90.9661C227.863 89.9638 227.324 88.6845 227.324 87.1281C227.324 86.2379 227.519 85.3831 227.917 84.5695C228.83 82.7538 230.484 81.7692 232.88 81.6101C234.16 81.5334 235.495 81.7044 236.888 82.1289V86.8805H236.906Z" fill="white"/>
<path opacity="0.15" d="M247.804 86.8805C246.411 86.1613 245.32 85.8547 244.525 85.9727C243.642 86.1141 243.197 86.5504 243.197 87.2814C243.197 87.7059 243.422 88.1127 243.873 88.5018C244.49 89.0088 245.112 89.5158 245.741 90.0169C246.44 90.6477 246.98 91.249 247.36 91.815C247.81 92.546 248.036 93.3891 248.036 94.3441C248.036 95.8121 247.543 97.1091 246.553 98.241C245.438 99.538 243.932 100.186 242.035 100.186C240.879 100.186 239.58 99.9447 238.121 99.4613V94.6566C238.483 95.0221 238.993 95.3463 239.651 95.6175C240.309 95.8887 240.932 96.0243 241.525 96.0243C242.011 96.0243 242.403 95.9123 242.687 95.6824C243.084 95.4053 243.28 95.0339 243.28 94.5681C243.28 94.0729 243.061 93.6131 242.628 93.1827C241.982 92.717 241.057 91.9801 239.847 90.9661C238.768 89.9638 238.228 88.6845 238.228 87.1281C238.228 86.2379 238.424 85.3831 238.821 84.5695C239.734 82.7538 241.389 81.7692 243.784 81.6101C245.065 81.5334 246.405 81.7044 247.792 82.1289V86.8805H247.804Z" fill="white"/>
</g>
</g>
<defs>
<linearGradient id="paint0_linear_95_375" x1="7.33703" y1="31.5428" x2="47.5856" y2="31.5428" gradientUnits="userSpaceOnUse">
<stop stop-color="white"/>
<stop offset="0.037" stop-color="#FDF0EB"/>
<stop offset="0.1456" stop-color="#F7C7B4"/>
<stop offset="0.2581" stop-color="#F2A384"/>
<stop offset="0.3721" stop-color="#EE855B"/>
<stop offset="0.4881" stop-color="#EB6C3A"/>
<stop offset="0.6066" stop-color="#E85921"/>
<stop offset="0.7287" stop-color="#E64C0E"/>
<stop offset="0.8567" stop-color="#E54404"/>
<stop offset="1" stop-color="#E54100"/>
</linearGradient>
<linearGradient id="paint1_linear_95_375" x1="7.33703" y1="49.8615" x2="33.6328" y2="49.8615" gradientUnits="userSpaceOnUse">
<stop stop-color="white"/>
<stop offset="0.037" stop-color="#FDF0EB"/>
<stop offset="0.1456" stop-color="#F7C7B4"/>
<stop offset="0.2581" stop-color="#F2A384"/>
<stop offset="0.3721" stop-color="#EE855B"/>
<stop offset="0.4881" stop-color="#EB6C3A"/>
<stop offset="0.6066" stop-color="#E85921"/>
<stop offset="0.7287" stop-color="#E64C0E"/>
<stop offset="0.8567" stop-color="#E54404"/>
<stop offset="1" stop-color="#E54100"/>
</linearGradient>
<linearGradient id="paint2_linear_95_375" x1="13.3216" y1="73.8698" x2="23.437" y2="73.8698" gradientUnits="userSpaceOnUse">
<stop stop-color="white"/>
<stop offset="0.037" stop-color="#FDF0EB"/>
<stop offset="0.1456" stop-color="#F7C7B4"/>
<stop offset="0.2581" stop-color="#F2A384"/>
<stop offset="0.3721" stop-color="#EE855B"/>
<stop offset="0.4881" stop-color="#EB6C3A"/>
<stop offset="0.6066" stop-color="#E85921"/>
<stop offset="0.7287" stop-color="#E64C0E"/>
<stop offset="0.8567" stop-color="#E54404"/>
<stop offset="1" stop-color="#E54100"/>
</linearGradient>
<linearGradient id="paint3_linear_95_375" x1="13.3216" y1="69.1339" x2="25.4046" y2="69.1339" gradientUnits="userSpaceOnUse">
<stop stop-color="white"/>
<stop offset="0.037" stop-color="#FDF0EB"/>
<stop offset="0.1456" stop-color="#F7C7B4"/>
<stop offset="0.2581" stop-color="#F2A384"/>
<stop offset="0.3721" stop-color="#EE855B"/>
<stop offset="0.4881" stop-color="#EB6C3A"/>
<stop offset="0.6066" stop-color="#E85921"/>
<stop offset="0.7287" stop-color="#E64C0E"/>
<stop offset="0.8567" stop-color="#E54404"/>
<stop offset="1" stop-color="#E54100"/>
</linearGradient>
<linearGradient id="paint4_linear_95_375" x1="62.74" y1="4.4469" x2="72.4107" y2="4.4469" gradientUnits="userSpaceOnUse">
<stop stop-color="white"/>
<stop offset="0.0313" stop-color="#FCECE6"/>
<stop offset="0.0972" stop-color="#F8C9B6"/>
<stop offset="0.1687" stop-color="#F3A88B"/>
<stop offset="0.2443" stop-color="#EF8C65"/>
<stop offset="0.325" stop-color="#EC7546"/>
<stop offset="0.4123" stop-color="#E9622C"/>
<stop offset="0.5088" stop-color="#E75318"/>
<stop offset="0.6193" stop-color="#E6490B"/>
<stop offset="0.7563" stop-color="#E54302"/>
<stop offset="1" stop-color="#E54100"/>
</linearGradient>
<clipPath id="clip0_95_375">
<rect width="268" height="117" fill="white"/>
</clipPath>
</defs>
</svg>
