<svg width="16" height="16" viewBox="0 0 16 16" fill="none" xmlns="http://www.w3.org/2000/svg">
<path d="M5.16699 2.33331V1.33331C5.16699 1.05998 4.94033 0.833313 4.66699 0.833313C4.39366 0.833313 4.16699 1.05998 4.16699 1.33331V2.37331C4.33366 2.35331 4.48699 2.33331 4.66699 2.33331H5.16699Z" fill="#CDCDCD"/>
<path d="M10.5 2.37331V1.33331C10.5 1.05998 10.2733 0.833313 10 0.833313C9.72667 0.833313 9.5 1.05998 9.5 1.33331V2.33331H10C10.18 2.33331 10.3333 2.35331 10.5 2.37331Z" fill="#CDCDCD"/>
<path d="M14.193 9.97998C13.6797 9.57331 13.033 9.33331 12.333 9.33331C11.633 9.33331 10.973 9.57998 10.4597 9.99331C9.76634 10.54 9.33301 11.3933 9.33301 12.3333C9.33301 12.8933 9.49301 13.4333 9.76634 13.8733C9.97967 14.22 10.253 14.5266 10.5797 14.76C11.073 15.12 11.673 15.3333 12.333 15.3333C13.093 15.3333 13.7797 15.0533 14.3063 14.5866C14.5397 14.3933 14.7397 14.1533 14.8997 13.88C15.173 13.4333 15.333 12.8933 15.333 12.3333C15.333 11.38 14.8863 10.5266 14.193 9.97998ZM12.333 13.76C12.333 12.9733 11.693 12.3333 10.9063 12.3333C11.693 12.3333 12.333 11.6933 12.333 10.9066C12.333 11.6933 12.973 12.3333 13.7597 12.3333C12.973 12.3333 12.333 12.9733 12.333 13.76Z" fill="#CDCDCD"/>
<path d="M10.4997 2.37331V3.33331C10.4997 3.60665 10.273 3.83331 9.99967 3.83331C9.72634 3.83331 9.49967 3.60665 9.49967 3.33331V2.33331H5.16634V3.33331C5.16634 3.60665 4.93967 3.83331 4.66634 3.83331C4.39301 3.83331 4.16634 3.60665 4.16634 3.33331V2.37331C2.19967 2.55331 1.33301 3.81998 1.33301 5.66665V11.3333C1.33301 13.3333 2.33301 14.6666 4.66634 14.6666H7.41967C7.92634 14.6666 8.26634 14.1 8.13967 13.6066C8.04634 13.2466 7.99967 12.8733 7.99967 12.5C7.99967 11.1133 8.61967 9.83331 9.69301 8.98665C10.473 8.35331 11.473 7.99998 12.4997 7.99998H12.5263C12.9463 7.99998 13.333 7.69331 13.333 7.27331V5.66665C13.333 3.81998 12.4663 2.55331 10.4997 2.37331ZM5.99967 11.1666H4.66634C4.39301 11.1666 4.16634 10.94 4.16634 10.6666C4.16634 10.3933 4.39301 10.1666 4.66634 10.1666H5.99967C6.27301 10.1666 6.49967 10.3933 6.49967 10.6666C6.49967 10.94 6.27301 11.1666 5.99967 11.1666ZM7.99967 7.83331H4.66634C4.39301 7.83331 4.16634 7.60665 4.16634 7.33331C4.16634 7.05998 4.39301 6.83331 4.66634 6.83331H7.99967C8.27301 6.83331 8.49967 7.05998 8.49967 7.33331C8.49967 7.60665 8.27301 7.83331 7.99967 7.83331Z" fill="#CDCDCD"/>
</svg>
