<svg width="16" height="16" viewBox="0 0 16 16" fill="none" xmlns="http://www.w3.org/2000/svg">
<path fill-rule="evenodd" clip-rule="evenodd" d="M12.4711 5.8642C12.4711 6.70149 12.6924 7.195 13.1793 7.76371C13.5484 8.18269 13.6663 8.72051 13.6663 9.30399C13.6663 9.88681 13.4749 10.4401 13.0912 10.8893C12.589 11.4278 11.8807 11.7715 11.1578 11.8313C10.1103 11.9206 9.06211 11.9958 8.00001 11.9958C6.93724 11.9958 5.88971 11.9508 4.84218 11.8313C4.11865 11.7715 3.41035 11.4278 2.90878 10.8893C2.52515 10.4401 2.33301 9.88681 2.33301 9.30399C2.33301 8.72051 2.45161 8.18269 2.82 7.76371C3.32223 7.195 3.52895 6.70149 3.52895 5.8642V5.58018C3.52895 4.45887 3.80856 3.72566 4.38434 3.00789C5.24038 1.96111 6.61258 1.33331 7.97019 1.33331H8.02982C9.41659 1.33331 10.8332 1.99133 11.6746 3.08309C12.2206 3.78609 12.4711 4.48842 12.4711 5.58018V5.8642ZM6.04879 13.3739C6.04879 13.0381 6.35689 12.8844 6.64179 12.8186C6.97507 12.7481 9.00586 12.7481 9.33914 12.8186C9.62404 12.8844 9.93214 13.0381 9.93214 13.3739C9.91557 13.6935 9.72807 13.9768 9.469 14.1568C9.13307 14.4186 8.73884 14.5845 8.32672 14.6442C8.0988 14.6738 7.87485 14.6745 7.65487 14.6442C7.24209 14.5845 6.84786 14.4186 6.51259 14.1561C6.25286 13.9768 6.06536 13.6935 6.04879 13.3739Z" fill="#CDCDCD"/>
</svg>
