<svg width="16" height="16" viewBox="0 0 16 16" fill="none" xmlns="http://www.w3.org/2000/svg">
<path d="M11.8731 3.65998V4.15331L9.51313 2.78665C8.6198 2.27331 7.37313 2.27331 6.48646 2.78665L4.12646 4.15998V3.65998C4.12646 2.15998 4.94646 1.33331 6.44647 1.33331H9.55313C11.0531 1.33331 11.8731 2.15998 11.8731 3.65998Z" fill="#FF5C1D"/>
<path d="M11.8935 5.31331L11.8002 5.26664L10.8935 4.74664L9.0135 3.65997C8.44016 3.32664 7.56016 3.32664 6.98683 3.65997L5.10683 4.73997L4.20016 5.27331L4.08016 5.33331C2.9135 6.11997 2.8335 6.26664 2.8335 7.52664V10.54C2.8335 11.8 2.9135 11.9466 4.10683 12.7533L6.98683 14.4133C7.2735 14.5866 7.6335 14.66 8.00016 14.66C8.36016 14.66 8.72683 14.58 9.0135 14.4133L11.9202 12.7333C13.0935 11.9466 13.1668 11.8066 13.1668 10.54V7.52664C13.1668 6.26664 13.0868 6.11997 11.8935 5.31331ZM9.86016 8.99997L9.4535 9.49997C9.38683 9.57331 9.34016 9.71331 9.34683 9.81331L9.38683 10.4533C9.4135 10.8466 9.1335 11.0466 8.76683 10.9066L8.1735 10.6666C8.08016 10.6333 7.92683 10.6333 7.8335 10.6666L7.24016 10.9C6.8735 11.0466 6.5935 10.84 6.62016 10.4466L6.66016 9.80664C6.66683 9.70664 6.62016 9.56664 6.5535 9.49331L6.14016 8.99997C5.88683 8.69997 6.00016 8.36664 6.38016 8.26664L7.00016 8.10664C7.10016 8.07997 7.2135 7.98664 7.26683 7.90664L7.6135 7.37331C7.82683 7.03997 8.16683 7.03997 8.38683 7.37331L8.7335 7.90664C8.78683 7.99331 8.90683 8.07997 9.00016 8.10664L9.62016 8.26664C10.0002 8.36664 10.1135 8.69997 9.86016 8.99997Z" fill="#FF5C1D"/>
</svg>
