<svg width="16" height="16" viewBox="0 0 16 16" fill="none" xmlns="http://www.w3.org/2000/svg">
<path d="M12.54 4.16665H13.4467C13.32 3.98665 13.1867 3.81999 13.0467 3.65332L12.54 4.16665Z" fill="#FF5C1D"/>
<path d="M12.3468 2.94669C12.1802 2.80669 12.0135 2.67336 11.8335 2.54669V3.45336L12.3468 2.94669Z" fill="#FF5C1D"/>
<path d="M13.0533 3.65336L15.02 1.68669C15.2133 1.49336 15.2133 1.17336 15.02 0.980022C14.8267 0.786689 14.5067 0.786689 14.3133 0.980022L12.3467 2.94669C12.6 3.16669 12.8333 3.40669 13.0533 3.65336Z" fill="#FF5C1D"/>
<path d="M11.8332 2C11.8332 1.72667 11.6065 1.5 11.3332 1.5C11.0665 1.5 10.8532 1.71333 10.8398 1.97333C11.1865 2.14 11.5198 2.32667 11.8332 2.54667V2Z" fill="#FF5C1D"/>
<path d="M14.5001 4.66669C14.5001 4.39335 14.2734 4.16669 14.0001 4.16669H13.4468C13.6668 4.48002 13.8601 4.81335 14.0201 5.16002C14.2868 5.14669 14.5001 4.93335 14.5001 4.66669Z" fill="#FF5C1D"/>
<path d="M8.5 9.83334H8.7C8.96 9.83334 9.16667 9.60001 9.16667 9.31335C9.16667 8.95335 9.06667 8.90001 8.84 8.82001L8.5 8.70001V9.83334Z" fill="#FF5C1D"/>
<path d="M14.0268 5.15998C14.0202 5.15998 14.0135 5.16665 14.0002 5.16665H11.3335C11.2668 5.16665 11.2068 5.15331 11.1402 5.12665C11.0202 5.07331 10.9202 4.97998 10.8668 4.85331C10.8468 4.79331 10.8335 4.73331 10.8335 4.66665V1.99998C10.8335 1.99331 10.8402 1.98665 10.8402 1.97331C9.9735 1.56665 9.0135 1.33331 8.00016 1.33331C4.32016 1.33331 1.3335 4.31998 1.3335 7.99998C1.3335 11.68 4.32016 14.6666 8.00016 14.6666C11.6802 14.6666 14.6668 11.68 14.6668 7.99998C14.6668 6.98665 14.4335 6.02665 14.0268 5.15998ZM9.16683 7.87998C9.5935 8.02665 10.1668 8.33998 10.1668 9.31998C10.1668 10.1533 9.50683 10.84 8.70016 10.84H8.50016V11.0066C8.50016 11.28 8.2735 11.5066 8.00016 11.5066C7.72683 11.5066 7.50016 11.28 7.50016 11.0066V10.84H7.44683C6.56016 10.84 5.8335 10.0933 5.8335 9.17331C5.8335 8.89331 6.06016 8.66665 6.3335 8.66665C6.60683 8.66665 6.8335 8.89331 6.8335 9.16665C6.8335 9.53331 7.10683 9.83331 7.44683 9.83331H7.50016V8.35331L6.8335 8.11998C6.40683 7.97331 5.8335 7.65998 5.8335 6.67998C5.8335 5.84665 6.4935 5.15998 7.30016 5.15998H7.50016V4.99998C7.50016 4.72665 7.72683 4.49998 8.00016 4.49998C8.2735 4.49998 8.50016 4.72665 8.50016 4.99998V5.16665H8.5535C9.44016 5.16665 10.1668 5.91331 10.1668 6.83331C10.1668 7.10665 9.94016 7.33331 9.66683 7.33331C9.3935 7.33331 9.16683 7.10665 9.16683 6.83331C9.16683 6.46665 8.8935 6.16665 8.5535 6.16665H8.50016V7.64665L9.16683 7.87998Z" fill="#FF5C1D"/>
<path d="M6.8335 6.68669C6.8335 7.04669 6.9335 7.10002 7.16016 7.18002L7.50016 7.30002V6.16669H7.30016C7.04683 6.16669 6.8335 6.40002 6.8335 6.68669Z" fill="#FF5C1D"/>
</svg>
