<svg width="16" height="16" viewBox="0 0 16 16" fill="none" xmlns="http://www.w3.org/2000/svg">
<path d="M13.5002 7.66665C13.5002 10.8883 10.8885 13.5 7.66683 13.5C4.44517 13.5 1.8335 10.8883 1.8335 7.66665C1.8335 4.44499 4.44517 1.83331 7.66683 1.83331C10.8885 1.83331 13.5002 4.44499 13.5002 7.66665Z" fill="#FF5C1D" stroke="#FF5C1D"/>
<path d="M14.2002 14.6667C14.0802 14.6667 13.9602 14.62 13.8735 14.5334L12.6335 13.2934C12.4535 13.1134 12.4535 12.82 12.6335 12.6334C12.8135 12.4534 13.1069 12.4534 13.2935 12.6334L14.5335 13.8734C14.7135 14.0534 14.7135 14.3467 14.5335 14.5334C14.4402 14.62 14.3202 14.6667 14.2002 14.6667Z" fill="#FF5C1D"/>
</svg>
