<svg width="16" height="16" viewBox="0 0 16 16" fill="none" xmlns="http://www.w3.org/2000/svg">
<path d="M9.95354 1.66665V5.59998C9.95354 5.89331 9.60688 6.03998 9.39354 5.84665L8.22688 4.77331C8.10021 4.65331 7.90021 4.65331 7.77354 4.77331L6.60688 5.83998C6.39354 6.03998 6.04688 5.88665 6.04688 5.59998V1.66665C6.04688 1.47998 6.19354 1.33331 6.38021 1.33331H9.62021C9.80688 1.33331 9.95354 1.47998 9.95354 1.66665Z" fill="#FF5C1D"/>
<path d="M11.32 1.37336C11.1267 1.34669 10.9533 1.51336 10.9533 1.70669V5.72003C10.9533 6.22669 10.6533 6.68669 10.1867 6.89336C9.72 7.09336 9.18 7.00669 8.80667 6.66003L8.22667 6.12669C8.1 6.00669 7.90667 6.00669 7.77333 6.12669L7.19333 6.66003C6.95333 6.88669 6.64 7.00003 6.32667 7.00003C6.15333 7.00003 5.98 6.96669 5.81333 6.89336C5.34667 6.68669 5.04667 6.22669 5.04667 5.72003V1.70669C5.04667 1.51336 4.87333 1.34669 4.68 1.37336C2.81333 1.60669 2 2.86669 2 4.66669V11.3334C2 13.3334 3 14.6667 5.33333 14.6667H10.6667C13 14.6667 14 13.3334 14 11.3334V4.66669C14 2.86669 13.1867 1.60669 11.32 1.37336ZM11.6667 12.5H6C5.72667 12.5 5.5 12.2734 5.5 12C5.5 11.7267 5.72667 11.5 6 11.5H11.6667C11.94 11.5 12.1667 11.7267 12.1667 12C12.1667 12.2734 11.94 12.5 11.6667 12.5ZM11.6667 9.83336H8.83333C8.56 9.83336 8.33333 9.60669 8.33333 9.33336C8.33333 9.06003 8.56 8.83336 8.83333 8.83336H11.6667C11.94 8.83336 12.1667 9.06003 12.1667 9.33336C12.1667 9.60669 11.94 9.83336 11.6667 9.83336Z" fill="#FF5C1D"/>
</svg>
