<svg width="12" height="16" viewBox="0 0 12 16" fill="none" xmlns="http://www.w3.org/2000/svg">
<path fill-rule="evenodd" clip-rule="evenodd" d="M2.97962 0.503615H9.02004C9.72974 0.467343 10.4252 0.705169 10.953 1.16461C11.4808 1.62404 11.7975 2.26732 11.8331 2.95247V14.6637C11.8341 14.8982 11.7326 15.1223 11.5536 15.2808C11.3746 15.4394 11.1346 15.5177 10.8926 15.4966C10.6805 15.4966 10.4743 15.4293 10.3058 15.305L6.56936 12.5647C6.21652 12.3092 5.73137 12.3092 5.37853 12.5647L1.67662 15.305C1.51281 15.4259 1.31324 15.493 1.10709 15.4966C0.865101 15.5177 0.625105 15.4394 0.446063 15.2808C0.26702 15.1223 0.165525 14.8982 0.166511 14.6637V2.95247C0.202198 2.26732 0.518875 1.62404 1.04665 1.16461C1.57443 0.705169 2.26991 0.467343 2.97962 0.503615ZM7.37187 11.5734L10.5215 13.9057L10.5043 2.95247C10.4226 2.22628 9.7571 1.69466 9.00278 1.75303H2.96236C2.20804 1.69466 1.54255 2.22628 1.46089 2.95247V13.9057L4.61053 11.5734C5.4261 10.9736 6.5563 10.9736 7.37187 11.5734Z" fill="white"/>
</svg>
