<svg width="14" height="14" viewBox="0 0 14 14" fill="none" xmlns="http://www.w3.org/2000/svg">
<path d="M7.04064 12.8217C6.21814 12.8217 5.38981 12.5067 4.76564 11.8825L2.12314 9.24001C1.48147 8.59834 1.14314 7.71168 1.18397 6.80751L1.32397 3.89084C1.38814 2.49668 2.49064 1.39418 3.89064 1.32418L6.80731 1.18418C7.71147 1.14918 8.59814 1.48168 9.23981 2.12334L11.8823 4.76584C13.1365 6.02001 13.1365 8.06751 11.8823 9.32168L9.32147 11.8825C8.69147 12.5067 7.86897 12.8217 7.04064 12.8217ZM2.74147 8.61584L5.38397 11.2583C5.82731 11.7017 6.41647 11.9467 7.04064 11.9467C7.66481 11.9467 8.25397 11.7017 8.69731 11.2583L11.2581 8.69751C11.7015 8.25418 11.9465 7.66501 11.9465 7.04084C11.9465 6.41668 11.7015 5.82751 11.2581 5.38418L8.61564 2.74168C8.14897 2.27501 7.50147 2.02418 6.84814 2.05918L3.93147 2.19918C2.98064 2.24001 2.23981 2.98084 2.19314 3.92584L2.05314 6.84251C2.02397 7.50168 2.27481 8.14918 2.74147 8.61584Z" fill="#FF5C1D"/>
<path d="M5.54183 7.43751C4.49766 7.43751 3.646 6.58584 3.646 5.54168C3.646 4.49751 4.49766 3.64584 5.54183 3.64584C6.586 3.64584 7.43766 4.49751 7.43766 5.54168C7.43766 6.58584 6.586 7.43751 5.54183 7.43751ZM5.54183 4.52084C4.98183 4.52084 4.521 4.98168 4.521 5.54168C4.521 6.10168 4.98183 6.56251 5.54183 6.56251C6.10183 6.56251 6.56266 6.10168 6.56266 5.54168C6.56266 4.98168 6.10183 4.52084 5.54183 4.52084Z" fill="#FF5C1D"/>
</svg>
