<svg width="24" height="25" viewBox="0 0 24 25" fill="none" xmlns="http://www.w3.org/2000/svg">
<path fill-rule="evenodd" clip-rule="evenodd" d="M12 3.91564C7.30521 3.91564 3.5 7.72456 3.5 12.4239C3.5 17.1233 7.30521 20.9322 12 20.9322C16.6948 20.9322 20.5 17.1233 20.5 12.4239C20.5 7.72456 16.6948 3.91564 12 3.91564ZM2 12.4239C2 6.89532 6.47679 2.41418 12 2.41418C17.5232 2.41418 22 6.89532 22 12.4239C22 17.9525 17.5232 22.4336 12 22.4336C6.47679 22.4336 2 17.9525 2 12.4239Z" fill="white"/>
<path fill-rule="evenodd" clip-rule="evenodd" d="M11.6616 7.51556C12.0758 7.51556 12.4116 7.85168 12.4116 8.26629V12.6917L15.8159 14.7245C16.1716 14.9369 16.2879 15.3977 16.0757 15.7538C15.8635 16.1099 15.4031 16.2263 15.0474 16.0139L11.2774 13.7627C11.0506 13.6273 10.9116 13.3824 10.9116 13.118V8.26629C10.9116 7.85168 11.2474 7.51556 11.6616 7.51556Z" fill="white"/>
</svg>
