<svg width="16" height="16" viewBox="0 0 16 16" fill="none" xmlns="http://www.w3.org/2000/svg">
<path d="M7.99994 10C4.65994 10 1.93994 12.24 1.93994 15C1.93994 15.1867 2.08661 15.3333 2.27327 15.3333H13.7266C13.9133 15.3333 14.0599 15.1867 14.0599 15C14.0599 12.24 11.3399 10 7.99994 10Z" fill="#CDCDCD"/>
<path d="M10.4734 2.44004C9.87341 1.76004 8.98008 1.33337 8.00008 1.33337C7.06675 1.33337 6.21341 1.71337 5.60675 2.34004C5.02675 2.94004 4.66675 3.76671 4.66675 4.66671C4.66675 5.29337 4.84008 5.88004 5.15341 6.38004C5.32008 6.66671 5.53341 6.92671 5.78675 7.14004C6.36675 7.67337 7.14008 8.00004 8.00008 8.00004C9.22008 8.00004 10.2734 7.34671 10.8534 6.38004C11.0267 6.09337 11.1601 5.77337 11.2334 5.44004C11.3001 5.19337 11.3334 4.93337 11.3334 4.66671C11.3334 3.81337 11.0067 3.03337 10.4734 2.44004ZM9.24675 5.28004H8.62675V5.92671C8.62675 6.27337 8.34675 6.55337 8.00008 6.55337C7.65341 6.55337 7.37341 6.27337 7.37341 5.92671V5.28004H6.75341C6.40675 5.28004 6.12675 5.00004 6.12675 4.65337C6.12675 4.30671 6.40675 4.02671 6.75341 4.02671H7.37341V3.43337C7.37341 3.08671 7.65341 2.80671 8.00008 2.80671C8.34675 2.80671 8.62675 3.08671 8.62675 3.43337V4.02671H9.24675C9.59341 4.02671 9.87341 4.30671 9.87341 4.65337C9.87341 5.00004 9.59341 5.28004 9.24675 5.28004Z" fill="#CDCDCD"/>
</svg>
